  0
SECTION
  2
HEADER
  9
$ANGBASE
  50
0.0
  9
$ANGDIR
  70
1
  9
$MEASUREMENT
  70
1
  0
ENDSEC
  0
SECTION
  2
TABLES
  0
TABLE
  2
LTYPE
  70
4
  0
LTYPE
  5
40F
  2
CONTINUOUS
  70
0
  3
Solid line
  72
65
  73
0
  40
0.0
  0
LTYPE
  5
410
  2
DASHDOT
 70
0
  3
Dash Dot ____ _ ____ _
 72
65
 73
4
 40
2.0
 49
1.25
 49
-0.25
 49
0.25
 49
-0.25
  0
LTYPE
  5
411
  2
DASHED
 70
0
  3
Dashed __ __ __ __ __
 72
65
 73
2
 40
0.75
 49
0.5
 49
-0.25
  0
LTYPE
  5
43B
  2
DOTTED
 70
0
  3
Dotted .  .  .  .
 72
65
 73
2
 40
0.2
 49
0.0
 49
-0.2
  0
ENDTAB
  0
TABLE
  2
STYLE
  70
4
  0
STYLE
  2
KICAD
  70
0
  40
0
  41
1
  42
1
  50
0
  71
0
  3
isocp.shx
  0
STYLE
  2
KICADB
  70
0
  40
0
  41
1
  42
1
  50
0
  71
0
  3
isocp.shx
  0
STYLE
  2
KICADI
  70
0
  40
0
  41
1
  42
1
  50
15
  71
0
  3
isocp.shx
  0
STYLE
  2
KICADBI
  70
0
  40
0
  41
1
  42
1
  50
15
  71
0
  3
isocp.shx
  0
ENDTAB
  0
TABLE
  2
LAYER
  70
1
  0
LAYER
  2
BLACK
  70
0
  62
7
  6
CONTINUOUS
  0
ENDTAB
  0
ENDSEC
  0
SECTION
  2
ENTITIES
0
CIRCLE
8
BLACK
10
140
20
-95
40
5.05
0
CIRCLE
8
BLACK
10
140
20
-95
40
45
0
CIRCLE
8
BLACK
10
118
20
-63
40
3.5
0
CIRCLE
8
BLACK
10
172.21
20
-84.7
40
1
0
CIRCLE
8
BLACK
10
172.16
20
-108.55
40
1
0
CIRCLE
8
BLACK
10
140
20
-95
40
5.05
0
CIRCLE
8
BLACK
10
140
20
-95
40
45
0
CIRCLE
8
BLACK
10
118
20
-63
40
3.5
0
CIRCLE
8
BLACK
10
172.21
20
-84.7
40
1
0
CIRCLE
8
BLACK
10
172.16
20
-108.55
40
1
0
CIRCLE
8
BLACK
10
119
20
-95
40
3.5
0
LINE
8
BLACK
6
CONTINUOUS
10
120.255
20
-84.1992
11
120.26
21
-84.2
0
LINE
8
BLACK
6
CONTINUOUS
10
120.26
20
-84.2
11
120.265
21
-84.2012
0
LINE
8
BLACK
6
CONTINUOUS
10
120.265
20
-84.2012
11
120.27
21
-84.2029
0
LINE
8
BLACK
6
CONTINUOUS
10
120.27
20
-84.2029
11
120.274
21
-84.205
0
LINE
8
BLACK
6
CONTINUOUS
10
120.274
20
-84.205
11
120.278
21
-84.2076
0
LINE
8
BLACK
6
CONTINUOUS
10
120.278
20
-84.2076
11
120.282
21
-84.2106
0
LINE
8
BLACK
6
CONTINUOUS
10
120.282
20
-84.2106
11
120.286
21
-84.2139
0
LINE
8
BLACK
6
CONTINUOUS
10
120.286
20
-84.2139
11
120.289
21
-84.2176
0
LINE
8
BLACK
6
CONTINUOUS
10
120.289
20
-84.2176
11
120.292
21
-84.2217
0
LINE
8
BLACK
6
CONTINUOUS
10
120.292
20
-84.2217
11
120.295
21
-84.226
0
LINE
8
BLACK
6
CONTINUOUS
10
120.295
20
-84.226
11
120.297
21
-84.2305
0
LINE
8
BLACK
6
CONTINUOUS
10
120.297
20
-84.2305
11
120.299
21
-84.2352
0
LINE
8
BLACK
6
CONTINUOUS
10
120.299
20
-84.2352
11
120.3
21
-84.24
0
LINE
8
BLACK
6
CONTINUOUS
10
120.3
20
-84.24
11
120.301
21
-84.245
0
LINE
8
BLACK
6
CONTINUOUS
10
120.301
20
-84.245
11
120.301
21
-84.25
0
LINE
8
BLACK
6
CONTINUOUS
10
120.301
20
-84.25
11
120.301
21
-87.75
0
LINE
8
BLACK
6
CONTINUOUS
10
120.301
20
-87.75
11
120.301
21
-87.755
0
LINE
8
BLACK
6
CONTINUOUS
10
120.301
20
-87.755
11
120.3
21
-87.7599
0
LINE
8
BLACK
6
CONTINUOUS
10
120.3
20
-87.7599
11
120.299
21
-87.7648
0
LINE
8
BLACK
6
CONTINUOUS
10
120.299
20
-87.7648
11
120.297
21
-87.7695
0
LINE
8
BLACK
6
CONTINUOUS
10
120.297
20
-87.7695
11
120.295
21
-87.774
0
LINE
8
BLACK
6
CONTINUOUS
10
120.295
20
-87.774
11
120.292
21
-87.7783
0
LINE
8
BLACK
6
CONTINUOUS
10
120.292
20
-87.7783
11
120.289
21
-87.7824
0
LINE
8
BLACK
6
CONTINUOUS
10
120.289
20
-87.7824
11
120.286
21
-87.7861
0
LINE
8
BLACK
6
CONTINUOUS
10
120.286
20
-87.7861
11
120.282
21
-87.7894
0
LINE
8
BLACK
6
CONTINUOUS
10
120.282
20
-87.7894
11
120.278
21
-87.7924
0
LINE
8
BLACK
6
CONTINUOUS
10
120.278
20
-87.7924
11
120.274
21
-87.795
0
LINE
8
BLACK
6
CONTINUOUS
10
120.274
20
-87.795
11
120.27
21
-87.7971
0
LINE
8
BLACK
6
CONTINUOUS
10
120.27
20
-87.7971
11
120.265
21
-87.7988
0
LINE
8
BLACK
6
CONTINUOUS
10
120.265
20
-87.7988
11
120.26
21
-87.8
0
LINE
8
BLACK
6
CONTINUOUS
10
120.26
20
-87.8
11
120.255
21
-87.8008
0
LINE
8
BLACK
6
CONTINUOUS
10
120.255
20
-87.8008
11
120.25
21
-87.801
0
LINE
8
BLACK
6
CONTINUOUS
10
120.25
20
-87.801
11
117.75
21
-87.801
0
LINE
8
BLACK
6
CONTINUOUS
10
117.75
20
-87.801
11
117.745
21
-87.8008
0
LINE
8
BLACK
6
CONTINUOUS
10
117.745
20
-87.8008
11
117.74
21
-87.8
0
LINE
8
BLACK
6
CONTINUOUS
10
117.74
20
-87.8
11
117.735
21
-87.7988
0
LINE
8
BLACK
6
CONTINUOUS
10
117.735
20
-87.7988
11
117.73
21
-87.7971
0
LINE
8
BLACK
6
CONTINUOUS
10
117.73
20
-87.7971
11
117.726
21
-87.795
0
LINE
8
BLACK
6
CONTINUOUS
10
117.726
20
-87.795
11
117.722
21
-87.7924
0
LINE
8
BLACK
6
CONTINUOUS
10
117.722
20
-87.7924
11
117.718
21
-87.7894
0
LINE
8
BLACK
6
CONTINUOUS
10
117.718
20
-87.7894
11
117.714
21
-87.7861
0
LINE
8
BLACK
6
CONTINUOUS
10
117.714
20
-87.7861
11
117.711
21
-87.7824
0
LINE
8
BLACK
6
CONTINUOUS
10
117.711
20
-87.7824
11
117.708
21
-87.7783
0
LINE
8
BLACK
6
CONTINUOUS
10
117.708
20
-87.7783
11
117.705
21
-87.774
0
LINE
8
BLACK
6
CONTINUOUS
10
117.705
20
-87.774
11
117.703
21
-87.7695
0
LINE
8
BLACK
6
CONTINUOUS
10
117.703
20
-87.7695
11
117.701
21
-87.7648
0
LINE
8
BLACK
6
CONTINUOUS
10
117.701
20
-87.7648
11
117.7
21
-87.7599
0
LINE
8
BLACK
6
CONTINUOUS
10
117.7
20
-87.7599
11
117.699
21
-87.755
0
LINE
8
BLACK
6
CONTINUOUS
10
117.699
20
-87.755
11
117.699
21
-87.75
0
LINE
8
BLACK
6
CONTINUOUS
10
117.699
20
-87.75
11
117.699
21
-84.25
0
LINE
8
BLACK
6
CONTINUOUS
10
117.699
20
-84.25
11
117.699
21
-84.245
0
LINE
8
BLACK
6
CONTINUOUS
10
117.699
20
-84.245
11
117.7
21
-84.24
0
LINE
8
BLACK
6
CONTINUOUS
10
117.7
20
-84.24
11
117.701
21
-84.2352
0
LINE
8
BLACK
6
CONTINUOUS
10
117.701
20
-84.2352
11
117.703
21
-84.2305
0
LINE
8
BLACK
6
CONTINUOUS
10
117.703
20
-84.2305
11
117.705
21
-84.226
0
LINE
8
BLACK
6
CONTINUOUS
10
117.705
20
-84.226
11
117.708
21
-84.2217
0
LINE
8
BLACK
6
CONTINUOUS
10
117.708
20
-84.2217
11
117.711
21
-84.2176
0
LINE
8
BLACK
6
CONTINUOUS
10
117.711
20
-84.2176
11
117.714
21
-84.2139
0
LINE
8
BLACK
6
CONTINUOUS
10
117.714
20
-84.2139
11
117.718
21
-84.2106
0
LINE
8
BLACK
6
CONTINUOUS
10
117.718
20
-84.2106
11
117.722
21
-84.2076
0
LINE
8
BLACK
6
CONTINUOUS
10
117.722
20
-84.2076
11
117.726
21
-84.205
0
LINE
8
BLACK
6
CONTINUOUS
10
117.726
20
-84.205
11
117.73
21
-84.2029
0
LINE
8
BLACK
6
CONTINUOUS
10
117.73
20
-84.2029
11
117.735
21
-84.2012
0
LINE
8
BLACK
6
CONTINUOUS
10
117.735
20
-84.2012
11
117.74
21
-84.2
0
LINE
8
BLACK
6
CONTINUOUS
10
117.74
20
-84.2
11
117.745
21
-84.1992
0
LINE
8
BLACK
6
CONTINUOUS
10
117.745
20
-84.1992
11
117.75
21
-84.199
0
LINE
8
BLACK
6
CONTINUOUS
10
117.75
20
-84.199
11
120.25
21
-84.199
0
LINE
8
BLACK
6
CONTINUOUS
10
120.25
20
-84.199
11
120.255
21
-84.1992
0
LINE
8
BLACK
6
CONTINUOUS
10
120.255
20
-102.199
11
120.26
21
-102.2
0
LINE
8
BLACK
6
CONTINUOUS
10
120.26
20
-102.2
11
120.265
21
-102.201
0
LINE
8
BLACK
6
CONTINUOUS
10
120.265
20
-102.201
11
120.27
21
-102.203
0
LINE
8
BLACK
6
CONTINUOUS
10
120.27
20
-102.203
11
120.274
21
-102.205
0
LINE
8
BLACK
6
CONTINUOUS
10
120.274
20
-102.205
11
120.278
21
-102.208
0
LINE
8
BLACK
6
CONTINUOUS
10
120.278
20
-102.208
11
120.282
21
-102.211
0
LINE
8
BLACK
6
CONTINUOUS
10
120.282
20
-102.211
11
120.286
21
-102.214
0
LINE
8
BLACK
6
CONTINUOUS
10
120.286
20
-102.214
11
120.289
21
-102.218
0
LINE
8
BLACK
6
CONTINUOUS
10
120.289
20
-102.218
11
120.292
21
-102.222
0
LINE
8
BLACK
6
CONTINUOUS
10
120.292
20
-102.222
11
120.295
21
-102.226
0
LINE
8
BLACK
6
CONTINUOUS
10
120.295
20
-102.226
11
120.297
21
-102.23
0
LINE
8
BLACK
6
CONTINUOUS
10
120.297
20
-102.23
11
120.299
21
-102.235
0
LINE
8
BLACK
6
CONTINUOUS
10
120.299
20
-102.235
11
120.3
21
-102.24
0
LINE
8
BLACK
6
CONTINUOUS
10
120.3
20
-102.24
11
120.301
21
-102.245
0
LINE
8
BLACK
6
CONTINUOUS
10
120.301
20
-102.245
11
120.301
21
-102.25
0
LINE
8
BLACK
6
CONTINUOUS
10
120.301
20
-102.25
11
120.301
21
-105.75
0
LINE
8
BLACK
6
CONTINUOUS
10
120.301
20
-105.75
11
120.301
21
-105.755
0
LINE
8
BLACK
6
CONTINUOUS
10
120.301
20
-105.755
11
120.3
21
-105.76
0
LINE
8
BLACK
6
CONTINUOUS
10
120.3
20
-105.76
11
120.299
21
-105.765
0
LINE
8
BLACK
6
CONTINUOUS
10
120.299
20
-105.765
11
120.297
21
-105.77
0
LINE
8
BLACK
6
CONTINUOUS
10
120.297
20
-105.77
11
120.295
21
-105.774
0
LINE
8
BLACK
6
CONTINUOUS
10
120.295
20
-105.774
11
120.292
21
-105.778
0
LINE
8
BLACK
6
CONTINUOUS
10
120.292
20
-105.778
11
120.289
21
-105.782
0
LINE
8
BLACK
6
CONTINUOUS
10
120.289
20
-105.782
11
120.286
21
-105.786
0
LINE
8
BLACK
6
CONTINUOUS
10
120.286
20
-105.786
11
120.282
21
-105.789
0
LINE
8
BLACK
6
CONTINUOUS
10
120.282
20
-105.789
11
120.278
21
-105.792
0
LINE
8
BLACK
6
CONTINUOUS
10
120.278
20
-105.792
11
120.274
21
-105.795
0
LINE
8
BLACK
6
CONTINUOUS
10
120.274
20
-105.795
11
120.27
21
-105.797
0
LINE
8
BLACK
6
CONTINUOUS
10
120.27
20
-105.797
11
120.265
21
-105.799
0
LINE
8
BLACK
6
CONTINUOUS
10
120.265
20
-105.799
11
120.26
21
-105.8
0
LINE
8
BLACK
6
CONTINUOUS
10
120.26
20
-105.8
11
120.255
21
-105.801
0
LINE
8
BLACK
6
CONTINUOUS
10
120.255
20
-105.801
11
120.25
21
-105.801
0
LINE
8
BLACK
6
CONTINUOUS
10
120.25
20
-105.801
11
117.75
21
-105.801
0
LINE
8
BLACK
6
CONTINUOUS
10
117.75
20
-105.801
11
117.745
21
-105.801
0
LINE
8
BLACK
6
CONTINUOUS
10
117.745
20
-105.801
11
117.74
21
-105.8
0
LINE
8
BLACK
6
CONTINUOUS
10
117.74
20
-105.8
11
117.735
21
-105.799
0
LINE
8
BLACK
6
CONTINUOUS
10
117.735
20
-105.799
11
117.73
21
-105.797
0
LINE
8
BLACK
6
CONTINUOUS
10
117.73
20
-105.797
11
117.726
21
-105.795
0
LINE
8
BLACK
6
CONTINUOUS
10
117.726
20
-105.795
11
117.722
21
-105.792
0
LINE
8
BLACK
6
CONTINUOUS
10
117.722
20
-105.792
11
117.718
21
-105.789
0
LINE
8
BLACK
6
CONTINUOUS
10
117.718
20
-105.789
11
117.714
21
-105.786
0
LINE
8
BLACK
6
CONTINUOUS
10
117.714
20
-105.786
11
117.711
21
-105.782
0
LINE
8
BLACK
6
CONTINUOUS
10
117.711
20
-105.782
11
117.708
21
-105.778
0
LINE
8
BLACK
6
CONTINUOUS
10
117.708
20
-105.778
11
117.705
21
-105.774
0
LINE
8
BLACK
6
CONTINUOUS
10
117.705
20
-105.774
11
117.703
21
-105.77
0
LINE
8
BLACK
6
CONTINUOUS
10
117.703
20
-105.77
11
117.701
21
-105.765
0
LINE
8
BLACK
6
CONTINUOUS
10
117.701
20
-105.765
11
117.7
21
-105.76
0
LINE
8
BLACK
6
CONTINUOUS
10
117.7
20
-105.76
11
117.699
21
-105.755
0
LINE
8
BLACK
6
CONTINUOUS
10
117.699
20
-105.755
11
117.699
21
-105.75
0
LINE
8
BLACK
6
CONTINUOUS
10
117.699
20
-105.75
11
117.699
21
-102.25
0
LINE
8
BLACK
6
CONTINUOUS
10
117.699
20
-102.25
11
117.699
21
-102.245
0
LINE
8
BLACK
6
CONTINUOUS
10
117.699
20
-102.245
11
117.7
21
-102.24
0
LINE
8
BLACK
6
CONTINUOUS
10
117.7
20
-102.24
11
117.701
21
-102.235
0
LINE
8
BLACK
6
CONTINUOUS
10
117.701
20
-102.235
11
117.703
21
-102.23
0
LINE
8
BLACK
6
CONTINUOUS
10
117.703
20
-102.23
11
117.705
21
-102.226
0
LINE
8
BLACK
6
CONTINUOUS
10
117.705
20
-102.226
11
117.708
21
-102.222
0
LINE
8
BLACK
6
CONTINUOUS
10
117.708
20
-102.222
11
117.711
21
-102.218
0
LINE
8
BLACK
6
CONTINUOUS
10
117.711
20
-102.218
11
117.714
21
-102.214
0
LINE
8
BLACK
6
CONTINUOUS
10
117.714
20
-102.214
11
117.718
21
-102.211
0
LINE
8
BLACK
6
CONTINUOUS
10
117.718
20
-102.211
11
117.722
21
-102.208
0
LINE
8
BLACK
6
CONTINUOUS
10
117.722
20
-102.208
11
117.726
21
-102.205
0
LINE
8
BLACK
6
CONTINUOUS
10
117.726
20
-102.205
11
117.73
21
-102.203
0
LINE
8
BLACK
6
CONTINUOUS
10
117.73
20
-102.203
11
117.735
21
-102.201
0
LINE
8
BLACK
6
CONTINUOUS
10
117.735
20
-102.201
11
117.74
21
-102.2
0
LINE
8
BLACK
6
CONTINUOUS
10
117.74
20
-102.2
11
117.745
21
-102.199
0
LINE
8
BLACK
6
CONTINUOUS
10
117.745
20
-102.199
11
117.75
21
-102.199
0
LINE
8
BLACK
6
CONTINUOUS
10
117.75
20
-102.199
11
120.25
21
-102.199
0
LINE
8
BLACK
6
CONTINUOUS
10
120.25
20
-102.199
11
120.255
21
-102.199
0
LINE
8
BLACK
6
CONTINUOUS
10
133.105
20
-111.349
11
133.11
21
-111.35
0
LINE
8
BLACK
6
CONTINUOUS
10
133.11
20
-111.35
11
133.115
21
-111.351
0
LINE
8
BLACK
6
CONTINUOUS
10
133.115
20
-111.351
11
133.12
21
-111.353
0
LINE
8
BLACK
6
CONTINUOUS
10
133.12
20
-111.353
11
133.124
21
-111.355
0
LINE
8
BLACK
6
CONTINUOUS
10
133.124
20
-111.355
11
133.128
21
-111.358
0
LINE
8
BLACK
6
CONTINUOUS
10
133.128
20
-111.358
11
133.132
21
-111.361
0
LINE
8
BLACK
6
CONTINUOUS
10
133.132
20
-111.361
11
133.136
21
-111.364
0
LINE
8
BLACK
6
CONTINUOUS
10
133.136
20
-111.364
11
133.139
21
-111.368
0
LINE
8
BLACK
6
CONTINUOUS
10
133.139
20
-111.368
11
133.142
21
-111.372
0
LINE
8
BLACK
6
CONTINUOUS
10
133.142
20
-111.372
11
133.145
21
-111.376
0
LINE
8
BLACK
6
CONTINUOUS
10
133.145
20
-111.376
11
133.147
21
-111.38
0
LINE
8
BLACK
6
CONTINUOUS
10
133.147
20
-111.38
11
133.149
21
-111.385
0
LINE
8
BLACK
6
CONTINUOUS
10
133.149
20
-111.385
11
133.15
21
-111.39
0
LINE
8
BLACK
6
CONTINUOUS
10
133.15
20
-111.39
11
133.151
21
-111.395
0
LINE
8
BLACK
6
CONTINUOUS
10
133.151
20
-111.395
11
133.151
21
-111.4
0
LINE
8
BLACK
6
CONTINUOUS
10
133.151
20
-111.4
11
133.151
21
-112.6
0
LINE
8
BLACK
6
CONTINUOUS
10
133.151
20
-112.6
11
133.151
21
-112.605
0
LINE
8
BLACK
6
CONTINUOUS
10
133.151
20
-112.605
11
133.15
21
-112.61
0
LINE
8
BLACK
6
CONTINUOUS
10
133.15
20
-112.61
11
133.149
21
-112.615
0
LINE
8
BLACK
6
CONTINUOUS
10
133.149
20
-112.615
11
133.147
21
-112.62
0
LINE
8
BLACK
6
CONTINUOUS
10
133.147
20
-112.62
11
133.145
21
-112.624
0
LINE
8
BLACK
6
CONTINUOUS
10
133.145
20
-112.624
11
133.142
21
-112.628
0
LINE
8
BLACK
6
CONTINUOUS
10
133.142
20
-112.628
11
133.139
21
-112.632
0
LINE
8
BLACK
6
CONTINUOUS
10
133.139
20
-112.632
11
133.136
21
-112.636
0
LINE
8
BLACK
6
CONTINUOUS
10
133.136
20
-112.636
11
133.132
21
-112.639
0
LINE
8
BLACK
6
CONTINUOUS
10
133.132
20
-112.639
11
133.128
21
-112.642
0
LINE
8
BLACK
6
CONTINUOUS
10
133.128
20
-112.642
11
133.124
21
-112.645
0
LINE
8
BLACK
6
CONTINUOUS
10
133.124
20
-112.645
11
133.12
21
-112.647
0
LINE
8
BLACK
6
CONTINUOUS
10
133.12
20
-112.647
11
133.115
21
-112.649
0
LINE
8
BLACK
6
CONTINUOUS
10
133.115
20
-112.649
11
133.11
21
-112.65
0
LINE
8
BLACK
6
CONTINUOUS
10
133.11
20
-112.65
11
133.105
21
-112.651
0
LINE
8
BLACK
6
CONTINUOUS
10
133.105
20
-112.651
11
133.1
21
-112.651
0
LINE
8
BLACK
6
CONTINUOUS
10
133.1
20
-112.651
11
130.9
21
-112.651
0
LINE
8
BLACK
6
CONTINUOUS
10
130.9
20
-112.651
11
130.895
21
-112.651
0
LINE
8
BLACK
6
CONTINUOUS
10
130.895
20
-112.651
11
130.89
21
-112.65
0
LINE
8
BLACK
6
CONTINUOUS
10
130.89
20
-112.65
11
130.885
21
-112.649
0
LINE
8
BLACK
6
CONTINUOUS
10
130.885
20
-112.649
11
130.88
21
-112.647
0
LINE
8
BLACK
6
CONTINUOUS
10
130.88
20
-112.647
11
130.876
21
-112.645
0
LINE
8
BLACK
6
CONTINUOUS
10
130.876
20
-112.645
11
130.872
21
-112.642
0
LINE
8
BLACK
6
CONTINUOUS
10
130.872
20
-112.642
11
130.868
21
-112.639
0
LINE
8
BLACK
6
CONTINUOUS
10
130.868
20
-112.639
11
130.864
21
-112.636
0
LINE
8
BLACK
6
CONTINUOUS
10
130.864
20
-112.636
11
130.861
21
-112.632
0
LINE
8
BLACK
6
CONTINUOUS
10
130.861
20
-112.632
11
130.858
21
-112.628
0
LINE
8
BLACK
6
CONTINUOUS
10
130.858
20
-112.628
11
130.855
21
-112.624
0
LINE
8
BLACK
6
CONTINUOUS
10
130.855
20
-112.624
11
130.853
21
-112.62
0
LINE
8
BLACK
6
CONTINUOUS
10
130.853
20
-112.62
11
130.851
21
-112.615
0
LINE
8
BLACK
6
CONTINUOUS
10
130.851
20
-112.615
11
130.85
21
-112.61
0
LINE
8
BLACK
6
CONTINUOUS
10
130.85
20
-112.61
11
130.849
21
-112.605
0
LINE
8
BLACK
6
CONTINUOUS
10
130.849
20
-112.605
11
130.849
21
-112.6
0
LINE
8
BLACK
6
CONTINUOUS
10
130.849
20
-112.6
11
130.849
21
-111.4
0
LINE
8
BLACK
6
CONTINUOUS
10
130.849
20
-111.4
11
130.849
21
-111.395
0
LINE
8
BLACK
6
CONTINUOUS
10
130.849
20
-111.395
11
130.85
21
-111.39
0
LINE
8
BLACK
6
CONTINUOUS
10
130.85
20
-111.39
11
130.851
21
-111.385
0
LINE
8
BLACK
6
CONTINUOUS
10
130.851
20
-111.385
11
130.853
21
-111.38
0
LINE
8
BLACK
6
CONTINUOUS
10
130.853
20
-111.38
11
130.855
21
-111.376
0
LINE
8
BLACK
6
CONTINUOUS
10
130.855
20
-111.376
11
130.858
21
-111.372
0
LINE
8
BLACK
6
CONTINUOUS
10
130.858
20
-111.372
11
130.861
21
-111.368
0
LINE
8
BLACK
6
CONTINUOUS
10
130.861
20
-111.368
11
130.864
21
-111.364
0
LINE
8
BLACK
6
CONTINUOUS
10
130.864
20
-111.364
11
130.868
21
-111.361
0
LINE
8
BLACK
6
CONTINUOUS
10
130.868
20
-111.361
11
130.872
21
-111.358
0
LINE
8
BLACK
6
CONTINUOUS
10
130.872
20
-111.358
11
130.876
21
-111.355
0
LINE
8
BLACK
6
CONTINUOUS
10
130.876
20
-111.355
11
130.88
21
-111.353
0
LINE
8
BLACK
6
CONTINUOUS
10
130.88
20
-111.353
11
130.885
21
-111.351
0
LINE
8
BLACK
6
CONTINUOUS
10
130.885
20
-111.351
11
130.89
21
-111.35
0
LINE
8
BLACK
6
CONTINUOUS
10
130.89
20
-111.35
11
130.895
21
-111.349
0
LINE
8
BLACK
6
CONTINUOUS
10
130.895
20
-111.349
11
130.9
21
-111.349
0
LINE
8
BLACK
6
CONTINUOUS
10
130.9
20
-111.349
11
133.1
21
-111.349
0
LINE
8
BLACK
6
CONTINUOUS
10
133.1
20
-111.349
11
133.105
21
-111.349
0
LINE
8
BLACK
6
CONTINUOUS
10
149.105
20
-111.349
11
149.11
21
-111.35
0
LINE
8
BLACK
6
CONTINUOUS
10
149.11
20
-111.35
11
149.115
21
-111.351
0
LINE
8
BLACK
6
CONTINUOUS
10
149.115
20
-111.351
11
149.12
21
-111.353
0
LINE
8
BLACK
6
CONTINUOUS
10
149.12
20
-111.353
11
149.124
21
-111.355
0
LINE
8
BLACK
6
CONTINUOUS
10
149.124
20
-111.355
11
149.128
21
-111.358
0
LINE
8
BLACK
6
CONTINUOUS
10
149.128
20
-111.358
11
149.132
21
-111.361
0
LINE
8
BLACK
6
CONTINUOUS
10
149.132
20
-111.361
11
149.136
21
-111.364
0
LINE
8
BLACK
6
CONTINUOUS
10
149.136
20
-111.364
11
149.139
21
-111.368
0
LINE
8
BLACK
6
CONTINUOUS
10
149.139
20
-111.368
11
149.142
21
-111.372
0
LINE
8
BLACK
6
CONTINUOUS
10
149.142
20
-111.372
11
149.145
21
-111.376
0
LINE
8
BLACK
6
CONTINUOUS
10
149.145
20
-111.376
11
149.147
21
-111.38
0
LINE
8
BLACK
6
CONTINUOUS
10
149.147
20
-111.38
11
149.149
21
-111.385
0
LINE
8
BLACK
6
CONTINUOUS
10
149.149
20
-111.385
11
149.15
21
-111.39
0
LINE
8
BLACK
6
CONTINUOUS
10
149.15
20
-111.39
11
149.151
21
-111.395
0
LINE
8
BLACK
6
CONTINUOUS
10
149.151
20
-111.395
11
149.151
21
-111.4
0
LINE
8
BLACK
6
CONTINUOUS
10
149.151
20
-111.4
11
149.151
21
-112.6
0
LINE
8
BLACK
6
CONTINUOUS
10
149.151
20
-112.6
11
149.151
21
-112.605
0
LINE
8
BLACK
6
CONTINUOUS
10
149.151
20
-112.605
11
149.15
21
-112.61
0
LINE
8
BLACK
6
CONTINUOUS
10
149.15
20
-112.61
11
149.149
21
-112.615
0
LINE
8
BLACK
6
CONTINUOUS
10
149.149
20
-112.615
11
149.147
21
-112.62
0
LINE
8
BLACK
6
CONTINUOUS
10
149.147
20
-112.62
11
149.145
21
-112.624
0
LINE
8
BLACK
6
CONTINUOUS
10
149.145
20
-112.624
11
149.142
21
-112.628
0
LINE
8
BLACK
6
CONTINUOUS
10
149.142
20
-112.628
11
149.139
21
-112.632
0
LINE
8
BLACK
6
CONTINUOUS
10
149.139
20
-112.632
11
149.136
21
-112.636
0
LINE
8
BLACK
6
CONTINUOUS
10
149.136
20
-112.636
11
149.132
21
-112.639
0
LINE
8
BLACK
6
CONTINUOUS
10
149.132
20
-112.639
11
149.128
21
-112.642
0
LINE
8
BLACK
6
CONTINUOUS
10
149.128
20
-112.642
11
149.124
21
-112.645
0
LINE
8
BLACK
6
CONTINUOUS
10
149.124
20
-112.645
11
149.12
21
-112.647
0
LINE
8
BLACK
6
CONTINUOUS
10
149.12
20
-112.647
11
149.115
21
-112.649
0
LINE
8
BLACK
6
CONTINUOUS
10
149.115
20
-112.649
11
149.11
21
-112.65
0
LINE
8
BLACK
6
CONTINUOUS
10
149.11
20
-112.65
11
149.105
21
-112.651
0
LINE
8
BLACK
6
CONTINUOUS
10
149.105
20
-112.651
11
149.1
21
-112.651
0
LINE
8
BLACK
6
CONTINUOUS
10
149.1
20
-112.651
11
146.9
21
-112.651
0
LINE
8
BLACK
6
CONTINUOUS
10
146.9
20
-112.651
11
146.895
21
-112.651
0
LINE
8
BLACK
6
CONTINUOUS
10
146.895
20
-112.651
11
146.89
21
-112.65
0
LINE
8
BLACK
6
CONTINUOUS
10
146.89
20
-112.65
11
146.885
21
-112.649
0
LINE
8
BLACK
6
CONTINUOUS
10
146.885
20
-112.649
11
146.88
21
-112.647
0
LINE
8
BLACK
6
CONTINUOUS
10
146.88
20
-112.647
11
146.876
21
-112.645
0
LINE
8
BLACK
6
CONTINUOUS
10
146.876
20
-112.645
11
146.872
21
-112.642
0
LINE
8
BLACK
6
CONTINUOUS
10
146.872
20
-112.642
11
146.868
21
-112.639
0
LINE
8
BLACK
6
CONTINUOUS
10
146.868
20
-112.639
11
146.864
21
-112.636
0
LINE
8
BLACK
6
CONTINUOUS
10
146.864
20
-112.636
11
146.861
21
-112.632
0
LINE
8
BLACK
6
CONTINUOUS
10
146.861
20
-112.632
11
146.858
21
-112.628
0
LINE
8
BLACK
6
CONTINUOUS
10
146.858
20
-112.628
11
146.855
21
-112.624
0
LINE
8
BLACK
6
CONTINUOUS
10
146.855
20
-112.624
11
146.853
21
-112.62
0
LINE
8
BLACK
6
CONTINUOUS
10
146.853
20
-112.62
11
146.851
21
-112.615
0
LINE
8
BLACK
6
CONTINUOUS
10
146.851
20
-112.615
11
146.85
21
-112.61
0
LINE
8
BLACK
6
CONTINUOUS
10
146.85
20
-112.61
11
146.849
21
-112.605
0
LINE
8
BLACK
6
CONTINUOUS
10
146.849
20
-112.605
11
146.849
21
-112.6
0
LINE
8
BLACK
6
CONTINUOUS
10
146.849
20
-112.6
11
146.849
21
-111.4
0
LINE
8
BLACK
6
CONTINUOUS
10
146.849
20
-111.4
11
146.849
21
-111.395
0
LINE
8
BLACK
6
CONTINUOUS
10
146.849
20
-111.395
11
146.85
21
-111.39
0
LINE
8
BLACK
6
CONTINUOUS
10
146.85
20
-111.39
11
146.851
21
-111.385
0
LINE
8
BLACK
6
CONTINUOUS
10
146.851
20
-111.385
11
146.853
21
-111.38
0
LINE
8
BLACK
6
CONTINUOUS
10
146.853
20
-111.38
11
146.855
21
-111.376
0
LINE
8
BLACK
6
CONTINUOUS
10
146.855
20
-111.376
11
146.858
21
-111.372
0
LINE
8
BLACK
6
CONTINUOUS
10
146.858
20
-111.372
11
146.861
21
-111.368
0
LINE
8
BLACK
6
CONTINUOUS
10
146.861
20
-111.368
11
146.864
21
-111.364
0
LINE
8
BLACK
6
CONTINUOUS
10
146.864
20
-111.364
11
146.868
21
-111.361
0
LINE
8
BLACK
6
CONTINUOUS
10
146.868
20
-111.361
11
146.872
21
-111.358
0
LINE
8
BLACK
6
CONTINUOUS
10
146.872
20
-111.358
11
146.876
21
-111.355
0
LINE
8
BLACK
6
CONTINUOUS
10
146.876
20
-111.355
11
146.88
21
-111.353
0
LINE
8
BLACK
6
CONTINUOUS
10
146.88
20
-111.353
11
146.885
21
-111.351
0
LINE
8
BLACK
6
CONTINUOUS
10
146.885
20
-111.351
11
146.89
21
-111.35
0
LINE
8
BLACK
6
CONTINUOUS
10
146.89
20
-111.35
11
146.895
21
-111.349
0
LINE
8
BLACK
6
CONTINUOUS
10
146.895
20
-111.349
11
146.9
21
-111.349
0
LINE
8
BLACK
6
CONTINUOUS
10
146.9
20
-111.349
11
149.1
21
-111.349
0
LINE
8
BLACK
6
CONTINUOUS
10
149.1
20
-111.349
11
149.105
21
-111.349
0
LINE
8
BLACK
6
CONTINUOUS
10
133.105
20
-113.349
11
133.11
21
-113.35
0
LINE
8
BLACK
6
CONTINUOUS
10
133.11
20
-113.35
11
133.115
21
-113.351
0
LINE
8
BLACK
6
CONTINUOUS
10
133.115
20
-113.351
11
133.12
21
-113.353
0
LINE
8
BLACK
6
CONTINUOUS
10
133.12
20
-113.353
11
133.124
21
-113.355
0
LINE
8
BLACK
6
CONTINUOUS
10
133.124
20
-113.355
11
133.128
21
-113.358
0
LINE
8
BLACK
6
CONTINUOUS
10
133.128
20
-113.358
11
133.132
21
-113.361
0
LINE
8
BLACK
6
CONTINUOUS
10
133.132
20
-113.361
11
133.136
21
-113.364
0
LINE
8
BLACK
6
CONTINUOUS
10
133.136
20
-113.364
11
133.139
21
-113.368
0
LINE
8
BLACK
6
CONTINUOUS
10
133.139
20
-113.368
11
133.142
21
-113.372
0
LINE
8
BLACK
6
CONTINUOUS
10
133.142
20
-113.372
11
133.145
21
-113.376
0
LINE
8
BLACK
6
CONTINUOUS
10
133.145
20
-113.376
11
133.147
21
-113.38
0
LINE
8
BLACK
6
CONTINUOUS
10
133.147
20
-113.38
11
133.149
21
-113.385
0
LINE
8
BLACK
6
CONTINUOUS
10
133.149
20
-113.385
11
133.15
21
-113.39
0
LINE
8
BLACK
6
CONTINUOUS
10
133.15
20
-113.39
11
133.151
21
-113.395
0
LINE
8
BLACK
6
CONTINUOUS
10
133.151
20
-113.395
11
133.151
21
-113.4
0
LINE
8
BLACK
6
CONTINUOUS
10
133.151
20
-113.4
11
133.151
21
-114.6
0
LINE
8
BLACK
6
CONTINUOUS
10
133.151
20
-114.6
11
133.151
21
-114.605
0
LINE
8
BLACK
6
CONTINUOUS
10
133.151
20
-114.605
11
133.15
21
-114.61
0
LINE
8
BLACK
6
CONTINUOUS
10
133.15
20
-114.61
11
133.149
21
-114.615
0
LINE
8
BLACK
6
CONTINUOUS
10
133.149
20
-114.615
11
133.147
21
-114.62
0
LINE
8
BLACK
6
CONTINUOUS
10
133.147
20
-114.62
11
133.145
21
-114.624
0
LINE
8
BLACK
6
CONTINUOUS
10
133.145
20
-114.624
11
133.142
21
-114.628
0
LINE
8
BLACK
6
CONTINUOUS
10
133.142
20
-114.628
11
133.139
21
-114.632
0
LINE
8
BLACK
6
CONTINUOUS
10
133.139
20
-114.632
11
133.136
21
-114.636
0
LINE
8
BLACK
6
CONTINUOUS
10
133.136
20
-114.636
11
133.132
21
-114.639
0
LINE
8
BLACK
6
CONTINUOUS
10
133.132
20
-114.639
11
133.128
21
-114.642
0
LINE
8
BLACK
6
CONTINUOUS
10
133.128
20
-114.642
11
133.124
21
-114.645
0
LINE
8
BLACK
6
CONTINUOUS
10
133.124
20
-114.645
11
133.12
21
-114.647
0
LINE
8
BLACK
6
CONTINUOUS
10
133.12
20
-114.647
11
133.115
21
-114.649
0
LINE
8
BLACK
6
CONTINUOUS
10
133.115
20
-114.649
11
133.11
21
-114.65
0
LINE
8
BLACK
6
CONTINUOUS
10
133.11
20
-114.65
11
133.105
21
-114.651
0
LINE
8
BLACK
6
CONTINUOUS
10
133.105
20
-114.651
11
133.1
21
-114.651
0
LINE
8
BLACK
6
CONTINUOUS
10
133.1
20
-114.651
11
130.9
21
-114.651
0
LINE
8
BLACK
6
CONTINUOUS
10
130.9
20
-114.651
11
130.895
21
-114.651
0
LINE
8
BLACK
6
CONTINUOUS
10
130.895
20
-114.651
11
130.89
21
-114.65
0
LINE
8
BLACK
6
CONTINUOUS
10
130.89
20
-114.65
11
130.885
21
-114.649
0
LINE
8
BLACK
6
CONTINUOUS
10
130.885
20
-114.649
11
130.88
21
-114.647
0
LINE
8
BLACK
6
CONTINUOUS
10
130.88
20
-114.647
11
130.876
21
-114.645
0
LINE
8
BLACK
6
CONTINUOUS
10
130.876
20
-114.645
11
130.872
21
-114.642
0
LINE
8
BLACK
6
CONTINUOUS
10
130.872
20
-114.642
11
130.868
21
-114.639
0
LINE
8
BLACK
6
CONTINUOUS
10
130.868
20
-114.639
11
130.864
21
-114.636
0
LINE
8
BLACK
6
CONTINUOUS
10
130.864
20
-114.636
11
130.861
21
-114.632
0
LINE
8
BLACK
6
CONTINUOUS
10
130.861
20
-114.632
11
130.858
21
-114.628
0
LINE
8
BLACK
6
CONTINUOUS
10
130.858
20
-114.628
11
130.855
21
-114.624
0
LINE
8
BLACK
6
CONTINUOUS
10
130.855
20
-114.624
11
130.853
21
-114.62
0
LINE
8
BLACK
6
CONTINUOUS
10
130.853
20
-114.62
11
130.851
21
-114.615
0
LINE
8
BLACK
6
CONTINUOUS
10
130.851
20
-114.615
11
130.85
21
-114.61
0
LINE
8
BLACK
6
CONTINUOUS
10
130.85
20
-114.61
11
130.849
21
-114.605
0
LINE
8
BLACK
6
CONTINUOUS
10
130.849
20
-114.605
11
130.849
21
-114.6
0
LINE
8
BLACK
6
CONTINUOUS
10
130.849
20
-114.6
11
130.849
21
-113.4
0
LINE
8
BLACK
6
CONTINUOUS
10
130.849
20
-113.4
11
130.849
21
-113.395
0
LINE
8
BLACK
6
CONTINUOUS
10
130.849
20
-113.395
11
130.85
21
-113.39
0
LINE
8
BLACK
6
CONTINUOUS
10
130.85
20
-113.39
11
130.851
21
-113.385
0
LINE
8
BLACK
6
CONTINUOUS
10
130.851
20
-113.385
11
130.853
21
-113.38
0
LINE
8
BLACK
6
CONTINUOUS
10
130.853
20
-113.38
11
130.855
21
-113.376
0
LINE
8
BLACK
6
CONTINUOUS
10
130.855
20
-113.376
11
130.858
21
-113.372
0
LINE
8
BLACK
6
CONTINUOUS
10
130.858
20
-113.372
11
130.861
21
-113.368
0
LINE
8
BLACK
6
CONTINUOUS
10
130.861
20
-113.368
11
130.864
21
-113.364
0
LINE
8
BLACK
6
CONTINUOUS
10
130.864
20
-113.364
11
130.868
21
-113.361
0
LINE
8
BLACK
6
CONTINUOUS
10
130.868
20
-113.361
11
130.872
21
-113.358
0
LINE
8
BLACK
6
CONTINUOUS
10
130.872
20
-113.358
11
130.876
21
-113.355
0
LINE
8
BLACK
6
CONTINUOUS
10
130.876
20
-113.355
11
130.88
21
-113.353
0
LINE
8
BLACK
6
CONTINUOUS
10
130.88
20
-113.353
11
130.885
21
-113.351
0
LINE
8
BLACK
6
CONTINUOUS
10
130.885
20
-113.351
11
130.89
21
-113.35
0
LINE
8
BLACK
6
CONTINUOUS
10
130.89
20
-113.35
11
130.895
21
-113.349
0
LINE
8
BLACK
6
CONTINUOUS
10
130.895
20
-113.349
11
130.9
21
-113.349
0
LINE
8
BLACK
6
CONTINUOUS
10
130.9
20
-113.349
11
133.1
21
-113.349
0
LINE
8
BLACK
6
CONTINUOUS
10
133.1
20
-113.349
11
133.105
21
-113.349
0
LINE
8
BLACK
6
CONTINUOUS
10
149.105
20
-113.349
11
149.11
21
-113.35
0
LINE
8
BLACK
6
CONTINUOUS
10
149.11
20
-113.35
11
149.115
21
-113.351
0
LINE
8
BLACK
6
CONTINUOUS
10
149.115
20
-113.351
11
149.12
21
-113.353
0
LINE
8
BLACK
6
CONTINUOUS
10
149.12
20
-113.353
11
149.124
21
-113.355
0
LINE
8
BLACK
6
CONTINUOUS
10
149.124
20
-113.355
11
149.128
21
-113.358
0
LINE
8
BLACK
6
CONTINUOUS
10
149.128
20
-113.358
11
149.132
21
-113.361
0
LINE
8
BLACK
6
CONTINUOUS
10
149.132
20
-113.361
11
149.136
21
-113.364
0
LINE
8
BLACK
6
CONTINUOUS
10
149.136
20
-113.364
11
149.139
21
-113.368
0
LINE
8
BLACK
6
CONTINUOUS
10
149.139
20
-113.368
11
149.142
21
-113.372
0
LINE
8
BLACK
6
CONTINUOUS
10
149.142
20
-113.372
11
149.145
21
-113.376
0
LINE
8
BLACK
6
CONTINUOUS
10
149.145
20
-113.376
11
149.147
21
-113.38
0
LINE
8
BLACK
6
CONTINUOUS
10
149.147
20
-113.38
11
149.149
21
-113.385
0
LINE
8
BLACK
6
CONTINUOUS
10
149.149
20
-113.385
11
149.15
21
-113.39
0
LINE
8
BLACK
6
CONTINUOUS
10
149.15
20
-113.39
11
149.151
21
-113.395
0
LINE
8
BLACK
6
CONTINUOUS
10
149.151
20
-113.395
11
149.151
21
-113.4
0
LINE
8
BLACK
6
CONTINUOUS
10
149.151
20
-113.4
11
149.151
21
-114.6
0
LINE
8
BLACK
6
CONTINUOUS
10
149.151
20
-114.6
11
149.151
21
-114.605
0
LINE
8
BLACK
6
CONTINUOUS
10
149.151
20
-114.605
11
149.15
21
-114.61
0
LINE
8
BLACK
6
CONTINUOUS
10
149.15
20
-114.61
11
149.149
21
-114.615
0
LINE
8
BLACK
6
CONTINUOUS
10
149.149
20
-114.615
11
149.147
21
-114.62
0
LINE
8
BLACK
6
CONTINUOUS
10
149.147
20
-114.62
11
149.145
21
-114.624
0
LINE
8
BLACK
6
CONTINUOUS
10
149.145
20
-114.624
11
149.142
21
-114.628
0
LINE
8
BLACK
6
CONTINUOUS
10
149.142
20
-114.628
11
149.139
21
-114.632
0
LINE
8
BLACK
6
CONTINUOUS
10
149.139
20
-114.632
11
149.136
21
-114.636
0
LINE
8
BLACK
6
CONTINUOUS
10
149.136
20
-114.636
11
149.132
21
-114.639
0
LINE
8
BLACK
6
CONTINUOUS
10
149.132
20
-114.639
11
149.128
21
-114.642
0
LINE
8
BLACK
6
CONTINUOUS
10
149.128
20
-114.642
11
149.124
21
-114.645
0
LINE
8
BLACK
6
CONTINUOUS
10
149.124
20
-114.645
11
149.12
21
-114.647
0
LINE
8
BLACK
6
CONTINUOUS
10
149.12
20
-114.647
11
149.115
21
-114.649
0
LINE
8
BLACK
6
CONTINUOUS
10
149.115
20
-114.649
11
149.11
21
-114.65
0
LINE
8
BLACK
6
CONTINUOUS
10
149.11
20
-114.65
11
149.105
21
-114.651
0
LINE
8
BLACK
6
CONTINUOUS
10
149.105
20
-114.651
11
149.1
21
-114.651
0
LINE
8
BLACK
6
CONTINUOUS
10
149.1
20
-114.651
11
146.9
21
-114.651
0
LINE
8
BLACK
6
CONTINUOUS
10
146.9
20
-114.651
11
146.895
21
-114.651
0
LINE
8
BLACK
6
CONTINUOUS
10
146.895
20
-114.651
11
146.89
21
-114.65
0
LINE
8
BLACK
6
CONTINUOUS
10
146.89
20
-114.65
11
146.885
21
-114.649
0
LINE
8
BLACK
6
CONTINUOUS
10
146.885
20
-114.649
11
146.88
21
-114.647
0
LINE
8
BLACK
6
CONTINUOUS
10
146.88
20
-114.647
11
146.876
21
-114.645
0
LINE
8
BLACK
6
CONTINUOUS
10
146.876
20
-114.645
11
146.872
21
-114.642
0
LINE
8
BLACK
6
CONTINUOUS
10
146.872
20
-114.642
11
146.868
21
-114.639
0
LINE
8
BLACK
6
CONTINUOUS
10
146.868
20
-114.639
11
146.864
21
-114.636
0
LINE
8
BLACK
6
CONTINUOUS
10
146.864
20
-114.636
11
146.861
21
-114.632
0
LINE
8
BLACK
6
CONTINUOUS
10
146.861
20
-114.632
11
146.858
21
-114.628
0
LINE
8
BLACK
6
CONTINUOUS
10
146.858
20
-114.628
11
146.855
21
-114.624
0
LINE
8
BLACK
6
CONTINUOUS
10
146.855
20
-114.624
11
146.853
21
-114.62
0
LINE
8
BLACK
6
CONTINUOUS
10
146.853
20
-114.62
11
146.851
21
-114.615
0
LINE
8
BLACK
6
CONTINUOUS
10
146.851
20
-114.615
11
146.85
21
-114.61
0
LINE
8
BLACK
6
CONTINUOUS
10
146.85
20
-114.61
11
146.849
21
-114.605
0
LINE
8
BLACK
6
CONTINUOUS
10
146.849
20
-114.605
11
146.849
21
-114.6
0
LINE
8
BLACK
6
CONTINUOUS
10
146.849
20
-114.6
11
146.849
21
-113.4
0
LINE
8
BLACK
6
CONTINUOUS
10
146.849
20
-113.4
11
146.849
21
-113.395
0
LINE
8
BLACK
6
CONTINUOUS
10
146.849
20
-113.395
11
146.85
21
-113.39
0
LINE
8
BLACK
6
CONTINUOUS
10
146.85
20
-113.39
11
146.851
21
-113.385
0
LINE
8
BLACK
6
CONTINUOUS
10
146.851
20
-113.385
11
146.853
21
-113.38
0
LINE
8
BLACK
6
CONTINUOUS
10
146.853
20
-113.38
11
146.855
21
-113.376
0
LINE
8
BLACK
6
CONTINUOUS
10
146.855
20
-113.376
11
146.858
21
-113.372
0
LINE
8
BLACK
6
CONTINUOUS
10
146.858
20
-113.372
11
146.861
21
-113.368
0
LINE
8
BLACK
6
CONTINUOUS
10
146.861
20
-113.368
11
146.864
21
-113.364
0
LINE
8
BLACK
6
CONTINUOUS
10
146.864
20
-113.364
11
146.868
21
-113.361
0
LINE
8
BLACK
6
CONTINUOUS
10
146.868
20
-113.361
11
146.872
21
-113.358
0
LINE
8
BLACK
6
CONTINUOUS
10
146.872
20
-113.358
11
146.876
21
-113.355
0
LINE
8
BLACK
6
CONTINUOUS
10
146.876
20
-113.355
11
146.88
21
-113.353
0
LINE
8
BLACK
6
CONTINUOUS
10
146.88
20
-113.353
11
146.885
21
-113.351
0
LINE
8
BLACK
6
CONTINUOUS
10
146.885
20
-113.351
11
146.89
21
-113.35
0
LINE
8
BLACK
6
CONTINUOUS
10
146.89
20
-113.35
11
146.895
21
-113.349
0
LINE
8
BLACK
6
CONTINUOUS
10
146.895
20
-113.349
11
146.9
21
-113.349
0
LINE
8
BLACK
6
CONTINUOUS
10
146.9
20
-113.349
11
149.1
21
-113.349
0
LINE
8
BLACK
6
CONTINUOUS
10
149.1
20
-113.349
11
149.105
21
-113.349
0
LINE
8
BLACK
6
CONTINUOUS
10
133.105
20
-115.349
11
133.11
21
-115.35
0
LINE
8
BLACK
6
CONTINUOUS
10
133.11
20
-115.35
11
133.115
21
-115.351
0
LINE
8
BLACK
6
CONTINUOUS
10
133.115
20
-115.351
11
133.12
21
-115.353
0
LINE
8
BLACK
6
CONTINUOUS
10
133.12
20
-115.353
11
133.124
21
-115.355
0
LINE
8
BLACK
6
CONTINUOUS
10
133.124
20
-115.355
11
133.128
21
-115.358
0
LINE
8
BLACK
6
CONTINUOUS
10
133.128
20
-115.358
11
133.132
21
-115.361
0
LINE
8
BLACK
6
CONTINUOUS
10
133.132
20
-115.361
11
133.136
21
-115.364
0
LINE
8
BLACK
6
CONTINUOUS
10
133.136
20
-115.364
11
133.139
21
-115.368
0
LINE
8
BLACK
6
CONTINUOUS
10
133.139
20
-115.368
11
133.142
21
-115.372
0
LINE
8
BLACK
6
CONTINUOUS
10
133.142
20
-115.372
11
133.145
21
-115.376
0
LINE
8
BLACK
6
CONTINUOUS
10
133.145
20
-115.376
11
133.147
21
-115.38
0
LINE
8
BLACK
6
CONTINUOUS
10
133.147
20
-115.38
11
133.149
21
-115.385
0
LINE
8
BLACK
6
CONTINUOUS
10
133.149
20
-115.385
11
133.15
21
-115.39
0
LINE
8
BLACK
6
CONTINUOUS
10
133.15
20
-115.39
11
133.151
21
-115.395
0
LINE
8
BLACK
6
CONTINUOUS
10
133.151
20
-115.395
11
133.151
21
-115.4
0
LINE
8
BLACK
6
CONTINUOUS
10
133.151
20
-115.4
11
133.151
21
-116.6
0
LINE
8
BLACK
6
CONTINUOUS
10
133.151
20
-116.6
11
133.151
21
-116.605
0
LINE
8
BLACK
6
CONTINUOUS
10
133.151
20
-116.605
11
133.15
21
-116.61
0
LINE
8
BLACK
6
CONTINUOUS
10
133.15
20
-116.61
11
133.149
21
-116.615
0
LINE
8
BLACK
6
CONTINUOUS
10
133.149
20
-116.615
11
133.147
21
-116.62
0
LINE
8
BLACK
6
CONTINUOUS
10
133.147
20
-116.62
11
133.145
21
-116.624
0
LINE
8
BLACK
6
CONTINUOUS
10
133.145
20
-116.624
11
133.142
21
-116.628
0
LINE
8
BLACK
6
CONTINUOUS
10
133.142
20
-116.628
11
133.139
21
-116.632
0
LINE
8
BLACK
6
CONTINUOUS
10
133.139
20
-116.632
11
133.136
21
-116.636
0
LINE
8
BLACK
6
CONTINUOUS
10
133.136
20
-116.636
11
133.132
21
-116.639
0
LINE
8
BLACK
6
CONTINUOUS
10
133.132
20
-116.639
11
133.128
21
-116.642
0
LINE
8
BLACK
6
CONTINUOUS
10
133.128
20
-116.642
11
133.124
21
-116.645
0
LINE
8
BLACK
6
CONTINUOUS
10
133.124
20
-116.645
11
133.12
21
-116.647
0
LINE
8
BLACK
6
CONTINUOUS
10
133.12
20
-116.647
11
133.115
21
-116.649
0
LINE
8
BLACK
6
CONTINUOUS
10
133.115
20
-116.649
11
133.11
21
-116.65
0
LINE
8
BLACK
6
CONTINUOUS
10
133.11
20
-116.65
11
133.105
21
-116.651
0
LINE
8
BLACK
6
CONTINUOUS
10
133.105
20
-116.651
11
133.1
21
-116.651
0
LINE
8
BLACK
6
CONTINUOUS
10
133.1
20
-116.651
11
130.9
21
-116.651
0
LINE
8
BLACK
6
CONTINUOUS
10
130.9
20
-116.651
11
130.895
21
-116.651
0
LINE
8
BLACK
6
CONTINUOUS
10
130.895
20
-116.651
11
130.89
21
-116.65
0
LINE
8
BLACK
6
CONTINUOUS
10
130.89
20
-116.65
11
130.885
21
-116.649
0
LINE
8
BLACK
6
CONTINUOUS
10
130.885
20
-116.649
11
130.88
21
-116.647
0
LINE
8
BLACK
6
CONTINUOUS
10
130.88
20
-116.647
11
130.876
21
-116.645
0
LINE
8
BLACK
6
CONTINUOUS
10
130.876
20
-116.645
11
130.872
21
-116.642
0
LINE
8
BLACK
6
CONTINUOUS
10
130.872
20
-116.642
11
130.868
21
-116.639
0
LINE
8
BLACK
6
CONTINUOUS
10
130.868
20
-116.639
11
130.864
21
-116.636
0
LINE
8
BLACK
6
CONTINUOUS
10
130.864
20
-116.636
11
130.861
21
-116.632
0
LINE
8
BLACK
6
CONTINUOUS
10
130.861
20
-116.632
11
130.858
21
-116.628
0
LINE
8
BLACK
6
CONTINUOUS
10
130.858
20
-116.628
11
130.855
21
-116.624
0
LINE
8
BLACK
6
CONTINUOUS
10
130.855
20
-116.624
11
130.853
21
-116.62
0
LINE
8
BLACK
6
CONTINUOUS
10
130.853
20
-116.62
11
130.851
21
-116.615
0
LINE
8
BLACK
6
CONTINUOUS
10
130.851
20
-116.615
11
130.85
21
-116.61
0
LINE
8
BLACK
6
CONTINUOUS
10
130.85
20
-116.61
11
130.849
21
-116.605
0
LINE
8
BLACK
6
CONTINUOUS
10
130.849
20
-116.605
11
130.849
21
-116.6
0
LINE
8
BLACK
6
CONTINUOUS
10
130.849
20
-116.6
11
130.849
21
-115.4
0
LINE
8
BLACK
6
CONTINUOUS
10
130.849
20
-115.4
11
130.849
21
-115.395
0
LINE
8
BLACK
6
CONTINUOUS
10
130.849
20
-115.395
11
130.85
21
-115.39
0
LINE
8
BLACK
6
CONTINUOUS
10
130.85
20
-115.39
11
130.851
21
-115.385
0
LINE
8
BLACK
6
CONTINUOUS
10
130.851
20
-115.385
11
130.853
21
-115.38
0
LINE
8
BLACK
6
CONTINUOUS
10
130.853
20
-115.38
11
130.855
21
-115.376
0
LINE
8
BLACK
6
CONTINUOUS
10
130.855
20
-115.376
11
130.858
21
-115.372
0
LINE
8
BLACK
6
CONTINUOUS
10
130.858
20
-115.372
11
130.861
21
-115.368
0
LINE
8
BLACK
6
CONTINUOUS
10
130.861
20
-115.368
11
130.864
21
-115.364
0
LINE
8
BLACK
6
CONTINUOUS
10
130.864
20
-115.364
11
130.868
21
-115.361
0
LINE
8
BLACK
6
CONTINUOUS
10
130.868
20
-115.361
11
130.872
21
-115.358
0
LINE
8
BLACK
6
CONTINUOUS
10
130.872
20
-115.358
11
130.876
21
-115.355
0
LINE
8
BLACK
6
CONTINUOUS
10
130.876
20
-115.355
11
130.88
21
-115.353
0
LINE
8
BLACK
6
CONTINUOUS
10
130.88
20
-115.353
11
130.885
21
-115.351
0
LINE
8
BLACK
6
CONTINUOUS
10
130.885
20
-115.351
11
130.89
21
-115.35
0
LINE
8
BLACK
6
CONTINUOUS
10
130.89
20
-115.35
11
130.895
21
-115.349
0
LINE
8
BLACK
6
CONTINUOUS
10
130.895
20
-115.349
11
130.9
21
-115.349
0
LINE
8
BLACK
6
CONTINUOUS
10
130.9
20
-115.349
11
133.1
21
-115.349
0
LINE
8
BLACK
6
CONTINUOUS
10
133.1
20
-115.349
11
133.105
21
-115.349
0
LINE
8
BLACK
6
CONTINUOUS
10
149.105
20
-115.349
11
149.11
21
-115.35
0
LINE
8
BLACK
6
CONTINUOUS
10
149.11
20
-115.35
11
149.115
21
-115.351
0
LINE
8
BLACK
6
CONTINUOUS
10
149.115
20
-115.351
11
149.12
21
-115.353
0
LINE
8
BLACK
6
CONTINUOUS
10
149.12
20
-115.353
11
149.124
21
-115.355
0
LINE
8
BLACK
6
CONTINUOUS
10
149.124
20
-115.355
11
149.128
21
-115.358
0
LINE
8
BLACK
6
CONTINUOUS
10
149.128
20
-115.358
11
149.132
21
-115.361
0
LINE
8
BLACK
6
CONTINUOUS
10
149.132
20
-115.361
11
149.136
21
-115.364
0
LINE
8
BLACK
6
CONTINUOUS
10
149.136
20
-115.364
11
149.139
21
-115.368
0
LINE
8
BLACK
6
CONTINUOUS
10
149.139
20
-115.368
11
149.142
21
-115.372
0
LINE
8
BLACK
6
CONTINUOUS
10
149.142
20
-115.372
11
149.145
21
-115.376
0
LINE
8
BLACK
6
CONTINUOUS
10
149.145
20
-115.376
11
149.147
21
-115.38
0
LINE
8
BLACK
6
CONTINUOUS
10
149.147
20
-115.38
11
149.149
21
-115.385
0
LINE
8
BLACK
6
CONTINUOUS
10
149.149
20
-115.385
11
149.15
21
-115.39
0
LINE
8
BLACK
6
CONTINUOUS
10
149.15
20
-115.39
11
149.151
21
-115.395
0
LINE
8
BLACK
6
CONTINUOUS
10
149.151
20
-115.395
11
149.151
21
-115.4
0
LINE
8
BLACK
6
CONTINUOUS
10
149.151
20
-115.4
11
149.151
21
-116.6
0
LINE
8
BLACK
6
CONTINUOUS
10
149.151
20
-116.6
11
149.151
21
-116.605
0
LINE
8
BLACK
6
CONTINUOUS
10
149.151
20
-116.605
11
149.15
21
-116.61
0
LINE
8
BLACK
6
CONTINUOUS
10
149.15
20
-116.61
11
149.149
21
-116.615
0
LINE
8
BLACK
6
CONTINUOUS
10
149.149
20
-116.615
11
149.147
21
-116.62
0
LINE
8
BLACK
6
CONTINUOUS
10
149.147
20
-116.62
11
149.145
21
-116.624
0
LINE
8
BLACK
6
CONTINUOUS
10
149.145
20
-116.624
11
149.142
21
-116.628
0
LINE
8
BLACK
6
CONTINUOUS
10
149.142
20
-116.628
11
149.139
21
-116.632
0
LINE
8
BLACK
6
CONTINUOUS
10
149.139
20
-116.632
11
149.136
21
-116.636
0
LINE
8
BLACK
6
CONTINUOUS
10
149.136
20
-116.636
11
149.132
21
-116.639
0
LINE
8
BLACK
6
CONTINUOUS
10
149.132
20
-116.639
11
149.128
21
-116.642
0
LINE
8
BLACK
6
CONTINUOUS
10
149.128
20
-116.642
11
149.124
21
-116.645
0
LINE
8
BLACK
6
CONTINUOUS
10
149.124
20
-116.645
11
149.12
21
-116.647
0
LINE
8
BLACK
6
CONTINUOUS
10
149.12
20
-116.647
11
149.115
21
-116.649
0
LINE
8
BLACK
6
CONTINUOUS
10
149.115
20
-116.649
11
149.11
21
-116.65
0
LINE
8
BLACK
6
CONTINUOUS
10
149.11
20
-116.65
11
149.105
21
-116.651
0
LINE
8
BLACK
6
CONTINUOUS
10
149.105
20
-116.651
11
149.1
21
-116.651
0
LINE
8
BLACK
6
CONTINUOUS
10
149.1
20
-116.651
11
146.9
21
-116.651
0
LINE
8
BLACK
6
CONTINUOUS
10
146.9
20
-116.651
11
146.895
21
-116.651
0
LINE
8
BLACK
6
CONTINUOUS
10
146.895
20
-116.651
11
146.89
21
-116.65
0
LINE
8
BLACK
6
CONTINUOUS
10
146.89
20
-116.65
11
146.885
21
-116.649
0
LINE
8
BLACK
6
CONTINUOUS
10
146.885
20
-116.649
11
146.88
21
-116.647
0
LINE
8
BLACK
6
CONTINUOUS
10
146.88
20
-116.647
11
146.876
21
-116.645
0
LINE
8
BLACK
6
CONTINUOUS
10
146.876
20
-116.645
11
146.872
21
-116.642
0
LINE
8
BLACK
6
CONTINUOUS
10
146.872
20
-116.642
11
146.868
21
-116.639
0
LINE
8
BLACK
6
CONTINUOUS
10
146.868
20
-116.639
11
146.864
21
-116.636
0
LINE
8
BLACK
6
CONTINUOUS
10
146.864
20
-116.636
11
146.861
21
-116.632
0
LINE
8
BLACK
6
CONTINUOUS
10
146.861
20
-116.632
11
146.858
21
-116.628
0
LINE
8
BLACK
6
CONTINUOUS
10
146.858
20
-116.628
11
146.855
21
-116.624
0
LINE
8
BLACK
6
CONTINUOUS
10
146.855
20
-116.624
11
146.853
21
-116.62
0
LINE
8
BLACK
6
CONTINUOUS
10
146.853
20
-116.62
11
146.851
21
-116.615
0
LINE
8
BLACK
6
CONTINUOUS
10
146.851
20
-116.615
11
146.85
21
-116.61
0
LINE
8
BLACK
6
CONTINUOUS
10
146.85
20
-116.61
11
146.849
21
-116.605
0
LINE
8
BLACK
6
CONTINUOUS
10
146.849
20
-116.605
11
146.849
21
-116.6
0
LINE
8
BLACK
6
CONTINUOUS
10
146.849
20
-116.6
11
146.849
21
-115.4
0
LINE
8
BLACK
6
CONTINUOUS
10
146.849
20
-115.4
11
146.849
21
-115.395
0
LINE
8
BLACK
6
CONTINUOUS
10
146.849
20
-115.395
11
146.85
21
-115.39
0
LINE
8
BLACK
6
CONTINUOUS
10
146.85
20
-115.39
11
146.851
21
-115.385
0
LINE
8
BLACK
6
CONTINUOUS
10
146.851
20
-115.385
11
146.853
21
-115.38
0
LINE
8
BLACK
6
CONTINUOUS
10
146.853
20
-115.38
11
146.855
21
-115.376
0
LINE
8
BLACK
6
CONTINUOUS
10
146.855
20
-115.376
11
146.858
21
-115.372
0
LINE
8
BLACK
6
CONTINUOUS
10
146.858
20
-115.372
11
146.861
21
-115.368
0
LINE
8
BLACK
6
CONTINUOUS
10
146.861
20
-115.368
11
146.864
21
-115.364
0
LINE
8
BLACK
6
CONTINUOUS
10
146.864
20
-115.364
11
146.868
21
-115.361
0
LINE
8
BLACK
6
CONTINUOUS
10
146.868
20
-115.361
11
146.872
21
-115.358
0
LINE
8
BLACK
6
CONTINUOUS
10
146.872
20
-115.358
11
146.876
21
-115.355
0
LINE
8
BLACK
6
CONTINUOUS
10
146.876
20
-115.355
11
146.88
21
-115.353
0
LINE
8
BLACK
6
CONTINUOUS
10
146.88
20
-115.353
11
146.885
21
-115.351
0
LINE
8
BLACK
6
CONTINUOUS
10
146.885
20
-115.351
11
146.89
21
-115.35
0
LINE
8
BLACK
6
CONTINUOUS
10
146.89
20
-115.35
11
146.895
21
-115.349
0
LINE
8
BLACK
6
CONTINUOUS
10
146.895
20
-115.349
11
146.9
21
-115.349
0
LINE
8
BLACK
6
CONTINUOUS
10
146.9
20
-115.349
11
149.1
21
-115.349
0
LINE
8
BLACK
6
CONTINUOUS
10
149.1
20
-115.349
11
149.105
21
-115.349
0
LINE
8
BLACK
6
CONTINUOUS
10
133.105
20
-117.349
11
133.11
21
-117.35
0
LINE
8
BLACK
6
CONTINUOUS
10
133.11
20
-117.35
11
133.115
21
-117.351
0
LINE
8
BLACK
6
CONTINUOUS
10
133.115
20
-117.351
11
133.12
21
-117.353
0
LINE
8
BLACK
6
CONTINUOUS
10
133.12
20
-117.353
11
133.124
21
-117.355
0
LINE
8
BLACK
6
CONTINUOUS
10
133.124
20
-117.355
11
133.128
21
-117.358
0
LINE
8
BLACK
6
CONTINUOUS
10
133.128
20
-117.358
11
133.132
21
-117.361
0
LINE
8
BLACK
6
CONTINUOUS
10
133.132
20
-117.361
11
133.136
21
-117.364
0
LINE
8
BLACK
6
CONTINUOUS
10
133.136
20
-117.364
11
133.139
21
-117.368
0
LINE
8
BLACK
6
CONTINUOUS
10
133.139
20
-117.368
11
133.142
21
-117.372
0
LINE
8
BLACK
6
CONTINUOUS
10
133.142
20
-117.372
11
133.145
21
-117.376
0
LINE
8
BLACK
6
CONTINUOUS
10
133.145
20
-117.376
11
133.147
21
-117.38
0
LINE
8
BLACK
6
CONTINUOUS
10
133.147
20
-117.38
11
133.149
21
-117.385
0
LINE
8
BLACK
6
CONTINUOUS
10
133.149
20
-117.385
11
133.15
21
-117.39
0
LINE
8
BLACK
6
CONTINUOUS
10
133.15
20
-117.39
11
133.151
21
-117.395
0
LINE
8
BLACK
6
CONTINUOUS
10
133.151
20
-117.395
11
133.151
21
-117.4
0
LINE
8
BLACK
6
CONTINUOUS
10
133.151
20
-117.4
11
133.151
21
-118.6
0
LINE
8
BLACK
6
CONTINUOUS
10
133.151
20
-118.6
11
133.151
21
-118.605
0
LINE
8
BLACK
6
CONTINUOUS
10
133.151
20
-118.605
11
133.15
21
-118.61
0
LINE
8
BLACK
6
CONTINUOUS
10
133.15
20
-118.61
11
133.149
21
-118.615
0
LINE
8
BLACK
6
CONTINUOUS
10
133.149
20
-118.615
11
133.147
21
-118.62
0
LINE
8
BLACK
6
CONTINUOUS
10
133.147
20
-118.62
11
133.145
21
-118.624
0
LINE
8
BLACK
6
CONTINUOUS
10
133.145
20
-118.624
11
133.142
21
-118.628
0
LINE
8
BLACK
6
CONTINUOUS
10
133.142
20
-118.628
11
133.139
21
-118.632
0
LINE
8
BLACK
6
CONTINUOUS
10
133.139
20
-118.632
11
133.136
21
-118.636
0
LINE
8
BLACK
6
CONTINUOUS
10
133.136
20
-118.636
11
133.132
21
-118.639
0
LINE
8
BLACK
6
CONTINUOUS
10
133.132
20
-118.639
11
133.128
21
-118.642
0
LINE
8
BLACK
6
CONTINUOUS
10
133.128
20
-118.642
11
133.124
21
-118.645
0
LINE
8
BLACK
6
CONTINUOUS
10
133.124
20
-118.645
11
133.12
21
-118.647
0
LINE
8
BLACK
6
CONTINUOUS
10
133.12
20
-118.647
11
133.115
21
-118.649
0
LINE
8
BLACK
6
CONTINUOUS
10
133.115
20
-118.649
11
133.11
21
-118.65
0
LINE
8
BLACK
6
CONTINUOUS
10
133.11
20
-118.65
11
133.105
21
-118.651
0
LINE
8
BLACK
6
CONTINUOUS
10
133.105
20
-118.651
11
133.1
21
-118.651
0
LINE
8
BLACK
6
CONTINUOUS
10
133.1
20
-118.651
11
130.9
21
-118.651
0
LINE
8
BLACK
6
CONTINUOUS
10
130.9
20
-118.651
11
130.895
21
-118.651
0
LINE
8
BLACK
6
CONTINUOUS
10
130.895
20
-118.651
11
130.89
21
-118.65
0
LINE
8
BLACK
6
CONTINUOUS
10
130.89
20
-118.65
11
130.885
21
-118.649
0
LINE
8
BLACK
6
CONTINUOUS
10
130.885
20
-118.649
11
130.88
21
-118.647
0
LINE
8
BLACK
6
CONTINUOUS
10
130.88
20
-118.647
11
130.876
21
-118.645
0
LINE
8
BLACK
6
CONTINUOUS
10
130.876
20
-118.645
11
130.872
21
-118.642
0
LINE
8
BLACK
6
CONTINUOUS
10
130.872
20
-118.642
11
130.868
21
-118.639
0
LINE
8
BLACK
6
CONTINUOUS
10
130.868
20
-118.639
11
130.864
21
-118.636
0
LINE
8
BLACK
6
CONTINUOUS
10
130.864
20
-118.636
11
130.861
21
-118.632
0
LINE
8
BLACK
6
CONTINUOUS
10
130.861
20
-118.632
11
130.858
21
-118.628
0
LINE
8
BLACK
6
CONTINUOUS
10
130.858
20
-118.628
11
130.855
21
-118.624
0
LINE
8
BLACK
6
CONTINUOUS
10
130.855
20
-118.624
11
130.853
21
-118.62
0
LINE
8
BLACK
6
CONTINUOUS
10
130.853
20
-118.62
11
130.851
21
-118.615
0
LINE
8
BLACK
6
CONTINUOUS
10
130.851
20
-118.615
11
130.85
21
-118.61
0
LINE
8
BLACK
6
CONTINUOUS
10
130.85
20
-118.61
11
130.849
21
-118.605
0
LINE
8
BLACK
6
CONTINUOUS
10
130.849
20
-118.605
11
130.849
21
-118.6
0
LINE
8
BLACK
6
CONTINUOUS
10
130.849
20
-118.6
11
130.849
21
-117.4
0
LINE
8
BLACK
6
CONTINUOUS
10
130.849
20
-117.4
11
130.849
21
-117.395
0
LINE
8
BLACK
6
CONTINUOUS
10
130.849
20
-117.395
11
130.85
21
-117.39
0
LINE
8
BLACK
6
CONTINUOUS
10
130.85
20
-117.39
11
130.851
21
-117.385
0
LINE
8
BLACK
6
CONTINUOUS
10
130.851
20
-117.385
11
130.853
21
-117.38
0
LINE
8
BLACK
6
CONTINUOUS
10
130.853
20
-117.38
11
130.855
21
-117.376
0
LINE
8
BLACK
6
CONTINUOUS
10
130.855
20
-117.376
11
130.858
21
-117.372
0
LINE
8
BLACK
6
CONTINUOUS
10
130.858
20
-117.372
11
130.861
21
-117.368
0
LINE
8
BLACK
6
CONTINUOUS
10
130.861
20
-117.368
11
130.864
21
-117.364
0
LINE
8
BLACK
6
CONTINUOUS
10
130.864
20
-117.364
11
130.868
21
-117.361
0
LINE
8
BLACK
6
CONTINUOUS
10
130.868
20
-117.361
11
130.872
21
-117.358
0
LINE
8
BLACK
6
CONTINUOUS
10
130.872
20
-117.358
11
130.876
21
-117.355
0
LINE
8
BLACK
6
CONTINUOUS
10
130.876
20
-117.355
11
130.88
21
-117.353
0
LINE
8
BLACK
6
CONTINUOUS
10
130.88
20
-117.353
11
130.885
21
-117.351
0
LINE
8
BLACK
6
CONTINUOUS
10
130.885
20
-117.351
11
130.89
21
-117.35
0
LINE
8
BLACK
6
CONTINUOUS
10
130.89
20
-117.35
11
130.895
21
-117.349
0
LINE
8
BLACK
6
CONTINUOUS
10
130.895
20
-117.349
11
130.9
21
-117.349
0
LINE
8
BLACK
6
CONTINUOUS
10
130.9
20
-117.349
11
133.1
21
-117.349
0
LINE
8
BLACK
6
CONTINUOUS
10
133.1
20
-117.349
11
133.105
21
-117.349
0
LINE
8
BLACK
6
CONTINUOUS
10
149.105
20
-117.349
11
149.11
21
-117.35
0
LINE
8
BLACK
6
CONTINUOUS
10
149.11
20
-117.35
11
149.115
21
-117.351
0
LINE
8
BLACK
6
CONTINUOUS
10
149.115
20
-117.351
11
149.12
21
-117.353
0
LINE
8
BLACK
6
CONTINUOUS
10
149.12
20
-117.353
11
149.124
21
-117.355
0
LINE
8
BLACK
6
CONTINUOUS
10
149.124
20
-117.355
11
149.128
21
-117.358
0
LINE
8
BLACK
6
CONTINUOUS
10
149.128
20
-117.358
11
149.132
21
-117.361
0
LINE
8
BLACK
6
CONTINUOUS
10
149.132
20
-117.361
11
149.136
21
-117.364
0
LINE
8
BLACK
6
CONTINUOUS
10
149.136
20
-117.364
11
149.139
21
-117.368
0
LINE
8
BLACK
6
CONTINUOUS
10
149.139
20
-117.368
11
149.142
21
-117.372
0
LINE
8
BLACK
6
CONTINUOUS
10
149.142
20
-117.372
11
149.145
21
-117.376
0
LINE
8
BLACK
6
CONTINUOUS
10
149.145
20
-117.376
11
149.147
21
-117.38
0
LINE
8
BLACK
6
CONTINUOUS
10
149.147
20
-117.38
11
149.149
21
-117.385
0
LINE
8
BLACK
6
CONTINUOUS
10
149.149
20
-117.385
11
149.15
21
-117.39
0
LINE
8
BLACK
6
CONTINUOUS
10
149.15
20
-117.39
11
149.151
21
-117.395
0
LINE
8
BLACK
6
CONTINUOUS
10
149.151
20
-117.395
11
149.151
21
-117.4
0
LINE
8
BLACK
6
CONTINUOUS
10
149.151
20
-117.4
11
149.151
21
-118.6
0
LINE
8
BLACK
6
CONTINUOUS
10
149.151
20
-118.6
11
149.151
21
-118.605
0
LINE
8
BLACK
6
CONTINUOUS
10
149.151
20
-118.605
11
149.15
21
-118.61
0
LINE
8
BLACK
6
CONTINUOUS
10
149.15
20
-118.61
11
149.149
21
-118.615
0
LINE
8
BLACK
6
CONTINUOUS
10
149.149
20
-118.615
11
149.147
21
-118.62
0
LINE
8
BLACK
6
CONTINUOUS
10
149.147
20
-118.62
11
149.145
21
-118.624
0
LINE
8
BLACK
6
CONTINUOUS
10
149.145
20
-118.624
11
149.142
21
-118.628
0
LINE
8
BLACK
6
CONTINUOUS
10
149.142
20
-118.628
11
149.139
21
-118.632
0
LINE
8
BLACK
6
CONTINUOUS
10
149.139
20
-118.632
11
149.136
21
-118.636
0
LINE
8
BLACK
6
CONTINUOUS
10
149.136
20
-118.636
11
149.132
21
-118.639
0
LINE
8
BLACK
6
CONTINUOUS
10
149.132
20
-118.639
11
149.128
21
-118.642
0
LINE
8
BLACK
6
CONTINUOUS
10
149.128
20
-118.642
11
149.124
21
-118.645
0
LINE
8
BLACK
6
CONTINUOUS
10
149.124
20
-118.645
11
149.12
21
-118.647
0
LINE
8
BLACK
6
CONTINUOUS
10
149.12
20
-118.647
11
149.115
21
-118.649
0
LINE
8
BLACK
6
CONTINUOUS
10
149.115
20
-118.649
11
149.11
21
-118.65
0
LINE
8
BLACK
6
CONTINUOUS
10
149.11
20
-118.65
11
149.105
21
-118.651
0
LINE
8
BLACK
6
CONTINUOUS
10
149.105
20
-118.651
11
149.1
21
-118.651
0
LINE
8
BLACK
6
CONTINUOUS
10
149.1
20
-118.651
11
146.9
21
-118.651
0
LINE
8
BLACK
6
CONTINUOUS
10
146.9
20
-118.651
11
146.895
21
-118.651
0
LINE
8
BLACK
6
CONTINUOUS
10
146.895
20
-118.651
11
146.89
21
-118.65
0
LINE
8
BLACK
6
CONTINUOUS
10
146.89
20
-118.65
11
146.885
21
-118.649
0
LINE
8
BLACK
6
CONTINUOUS
10
146.885
20
-118.649
11
146.88
21
-118.647
0
LINE
8
BLACK
6
CONTINUOUS
10
146.88
20
-118.647
11
146.876
21
-118.645
0
LINE
8
BLACK
6
CONTINUOUS
10
146.876
20
-118.645
11
146.872
21
-118.642
0
LINE
8
BLACK
6
CONTINUOUS
10
146.872
20
-118.642
11
146.868
21
-118.639
0
LINE
8
BLACK
6
CONTINUOUS
10
146.868
20
-118.639
11
146.864
21
-118.636
0
LINE
8
BLACK
6
CONTINUOUS
10
146.864
20
-118.636
11
146.861
21
-118.632
0
LINE
8
BLACK
6
CONTINUOUS
10
146.861
20
-118.632
11
146.858
21
-118.628
0
LINE
8
BLACK
6
CONTINUOUS
10
146.858
20
-118.628
11
146.855
21
-118.624
0
LINE
8
BLACK
6
CONTINUOUS
10
146.855
20
-118.624
11
146.853
21
-118.62
0
LINE
8
BLACK
6
CONTINUOUS
10
146.853
20
-118.62
11
146.851
21
-118.615
0
LINE
8
BLACK
6
CONTINUOUS
10
146.851
20
-118.615
11
146.85
21
-118.61
0
LINE
8
BLACK
6
CONTINUOUS
10
146.85
20
-118.61
11
146.849
21
-118.605
0
LINE
8
BLACK
6
CONTINUOUS
10
146.849
20
-118.605
11
146.849
21
-118.6
0
LINE
8
BLACK
6
CONTINUOUS
10
146.849
20
-118.6
11
146.849
21
-117.4
0
LINE
8
BLACK
6
CONTINUOUS
10
146.849
20
-117.4
11
146.849
21
-117.395
0
LINE
8
BLACK
6
CONTINUOUS
10
146.849
20
-117.395
11
146.85
21
-117.39
0
LINE
8
BLACK
6
CONTINUOUS
10
146.85
20
-117.39
11
146.851
21
-117.385
0
LINE
8
BLACK
6
CONTINUOUS
10
146.851
20
-117.385
11
146.853
21
-117.38
0
LINE
8
BLACK
6
CONTINUOUS
10
146.853
20
-117.38
11
146.855
21
-117.376
0
LINE
8
BLACK
6
CONTINUOUS
10
146.855
20
-117.376
11
146.858
21
-117.372
0
LINE
8
BLACK
6
CONTINUOUS
10
146.858
20
-117.372
11
146.861
21
-117.368
0
LINE
8
BLACK
6
CONTINUOUS
10
146.861
20
-117.368
11
146.864
21
-117.364
0
LINE
8
BLACK
6
CONTINUOUS
10
146.864
20
-117.364
11
146.868
21
-117.361
0
LINE
8
BLACK
6
CONTINUOUS
10
146.868
20
-117.361
11
146.872
21
-117.358
0
LINE
8
BLACK
6
CONTINUOUS
10
146.872
20
-117.358
11
146.876
21
-117.355
0
LINE
8
BLACK
6
CONTINUOUS
10
146.876
20
-117.355
11
146.88
21
-117.353
0
LINE
8
BLACK
6
CONTINUOUS
10
146.88
20
-117.353
11
146.885
21
-117.351
0
LINE
8
BLACK
6
CONTINUOUS
10
146.885
20
-117.351
11
146.89
21
-117.35
0
LINE
8
BLACK
6
CONTINUOUS
10
146.89
20
-117.35
11
146.895
21
-117.349
0
LINE
8
BLACK
6
CONTINUOUS
10
146.895
20
-117.349
11
146.9
21
-117.349
0
LINE
8
BLACK
6
CONTINUOUS
10
146.9
20
-117.349
11
149.1
21
-117.349
0
LINE
8
BLACK
6
CONTINUOUS
10
149.1
20
-117.349
11
149.105
21
-117.349
0
LINE
8
BLACK
6
CONTINUOUS
10
133.105
20
-119.349
11
133.11
21
-119.35
0
LINE
8
BLACK
6
CONTINUOUS
10
133.11
20
-119.35
11
133.115
21
-119.351
0
LINE
8
BLACK
6
CONTINUOUS
10
133.115
20
-119.351
11
133.12
21
-119.353
0
LINE
8
BLACK
6
CONTINUOUS
10
133.12
20
-119.353
11
133.124
21
-119.355
0
LINE
8
BLACK
6
CONTINUOUS
10
133.124
20
-119.355
11
133.128
21
-119.358
0
LINE
8
BLACK
6
CONTINUOUS
10
133.128
20
-119.358
11
133.132
21
-119.361
0
LINE
8
BLACK
6
CONTINUOUS
10
133.132
20
-119.361
11
133.136
21
-119.364
0
LINE
8
BLACK
6
CONTINUOUS
10
133.136
20
-119.364
11
133.139
21
-119.368
0
LINE
8
BLACK
6
CONTINUOUS
10
133.139
20
-119.368
11
133.142
21
-119.372
0
LINE
8
BLACK
6
CONTINUOUS
10
133.142
20
-119.372
11
133.145
21
-119.376
0
LINE
8
BLACK
6
CONTINUOUS
10
133.145
20
-119.376
11
133.147
21
-119.38
0
LINE
8
BLACK
6
CONTINUOUS
10
133.147
20
-119.38
11
133.149
21
-119.385
0
LINE
8
BLACK
6
CONTINUOUS
10
133.149
20
-119.385
11
133.15
21
-119.39
0
LINE
8
BLACK
6
CONTINUOUS
10
133.15
20
-119.39
11
133.151
21
-119.395
0
LINE
8
BLACK
6
CONTINUOUS
10
133.151
20
-119.395
11
133.151
21
-119.4
0
LINE
8
BLACK
6
CONTINUOUS
10
133.151
20
-119.4
11
133.151
21
-120.6
0
LINE
8
BLACK
6
CONTINUOUS
10
133.151
20
-120.6
11
133.151
21
-120.605
0
LINE
8
BLACK
6
CONTINUOUS
10
133.151
20
-120.605
11
133.15
21
-120.61
0
LINE
8
BLACK
6
CONTINUOUS
10
133.15
20
-120.61
11
133.149
21
-120.615
0
LINE
8
BLACK
6
CONTINUOUS
10
133.149
20
-120.615
11
133.147
21
-120.62
0
LINE
8
BLACK
6
CONTINUOUS
10
133.147
20
-120.62
11
133.145
21
-120.624
0
LINE
8
BLACK
6
CONTINUOUS
10
133.145
20
-120.624
11
133.142
21
-120.628
0
LINE
8
BLACK
6
CONTINUOUS
10
133.142
20
-120.628
11
133.139
21
-120.632
0
LINE
8
BLACK
6
CONTINUOUS
10
133.139
20
-120.632
11
133.136
21
-120.636
0
LINE
8
BLACK
6
CONTINUOUS
10
133.136
20
-120.636
11
133.132
21
-120.639
0
LINE
8
BLACK
6
CONTINUOUS
10
133.132
20
-120.639
11
133.128
21
-120.642
0
LINE
8
BLACK
6
CONTINUOUS
10
133.128
20
-120.642
11
133.124
21
-120.645
0
LINE
8
BLACK
6
CONTINUOUS
10
133.124
20
-120.645
11
133.12
21
-120.647
0
LINE
8
BLACK
6
CONTINUOUS
10
133.12
20
-120.647
11
133.115
21
-120.649
0
LINE
8
BLACK
6
CONTINUOUS
10
133.115
20
-120.649
11
133.11
21
-120.65
0
LINE
8
BLACK
6
CONTINUOUS
10
133.11
20
-120.65
11
133.105
21
-120.651
0
LINE
8
BLACK
6
CONTINUOUS
10
133.105
20
-120.651
11
133.1
21
-120.651
0
LINE
8
BLACK
6
CONTINUOUS
10
133.1
20
-120.651
11
130.9
21
-120.651
0
LINE
8
BLACK
6
CONTINUOUS
10
130.9
20
-120.651
11
130.895
21
-120.651
0
LINE
8
BLACK
6
CONTINUOUS
10
130.895
20
-120.651
11
130.89
21
-120.65
0
LINE
8
BLACK
6
CONTINUOUS
10
130.89
20
-120.65
11
130.885
21
-120.649
0
LINE
8
BLACK
6
CONTINUOUS
10
130.885
20
-120.649
11
130.88
21
-120.647
0
LINE
8
BLACK
6
CONTINUOUS
10
130.88
20
-120.647
11
130.876
21
-120.645
0
LINE
8
BLACK
6
CONTINUOUS
10
130.876
20
-120.645
11
130.872
21
-120.642
0
LINE
8
BLACK
6
CONTINUOUS
10
130.872
20
-120.642
11
130.868
21
-120.639
0
LINE
8
BLACK
6
CONTINUOUS
10
130.868
20
-120.639
11
130.864
21
-120.636
0
LINE
8
BLACK
6
CONTINUOUS
10
130.864
20
-120.636
11
130.861
21
-120.632
0
LINE
8
BLACK
6
CONTINUOUS
10
130.861
20
-120.632
11
130.858
21
-120.628
0
LINE
8
BLACK
6
CONTINUOUS
10
130.858
20
-120.628
11
130.855
21
-120.624
0
LINE
8
BLACK
6
CONTINUOUS
10
130.855
20
-120.624
11
130.853
21
-120.62
0
LINE
8
BLACK
6
CONTINUOUS
10
130.853
20
-120.62
11
130.851
21
-120.615
0
LINE
8
BLACK
6
CONTINUOUS
10
130.851
20
-120.615
11
130.85
21
-120.61
0
LINE
8
BLACK
6
CONTINUOUS
10
130.85
20
-120.61
11
130.849
21
-120.605
0
LINE
8
BLACK
6
CONTINUOUS
10
130.849
20
-120.605
11
130.849
21
-120.6
0
LINE
8
BLACK
6
CONTINUOUS
10
130.849
20
-120.6
11
130.849
21
-119.4
0
LINE
8
BLACK
6
CONTINUOUS
10
130.849
20
-119.4
11
130.849
21
-119.395
0
LINE
8
BLACK
6
CONTINUOUS
10
130.849
20
-119.395
11
130.85
21
-119.39
0
LINE
8
BLACK
6
CONTINUOUS
10
130.85
20
-119.39
11
130.851
21
-119.385
0
LINE
8
BLACK
6
CONTINUOUS
10
130.851
20
-119.385
11
130.853
21
-119.38
0
LINE
8
BLACK
6
CONTINUOUS
10
130.853
20
-119.38
11
130.855
21
-119.376
0
LINE
8
BLACK
6
CONTINUOUS
10
130.855
20
-119.376
11
130.858
21
-119.372
0
LINE
8
BLACK
6
CONTINUOUS
10
130.858
20
-119.372
11
130.861
21
-119.368
0
LINE
8
BLACK
6
CONTINUOUS
10
130.861
20
-119.368
11
130.864
21
-119.364
0
LINE
8
BLACK
6
CONTINUOUS
10
130.864
20
-119.364
11
130.868
21
-119.361
0
LINE
8
BLACK
6
CONTINUOUS
10
130.868
20
-119.361
11
130.872
21
-119.358
0
LINE
8
BLACK
6
CONTINUOUS
10
130.872
20
-119.358
11
130.876
21
-119.355
0
LINE
8
BLACK
6
CONTINUOUS
10
130.876
20
-119.355
11
130.88
21
-119.353
0
LINE
8
BLACK
6
CONTINUOUS
10
130.88
20
-119.353
11
130.885
21
-119.351
0
LINE
8
BLACK
6
CONTINUOUS
10
130.885
20
-119.351
11
130.89
21
-119.35
0
LINE
8
BLACK
6
CONTINUOUS
10
130.89
20
-119.35
11
130.895
21
-119.349
0
LINE
8
BLACK
6
CONTINUOUS
10
130.895
20
-119.349
11
130.9
21
-119.349
0
LINE
8
BLACK
6
CONTINUOUS
10
130.9
20
-119.349
11
133.1
21
-119.349
0
LINE
8
BLACK
6
CONTINUOUS
10
133.1
20
-119.349
11
133.105
21
-119.349
0
LINE
8
BLACK
6
CONTINUOUS
10
149.105
20
-119.349
11
149.11
21
-119.35
0
LINE
8
BLACK
6
CONTINUOUS
10
149.11
20
-119.35
11
149.115
21
-119.351
0
LINE
8
BLACK
6
CONTINUOUS
10
149.115
20
-119.351
11
149.12
21
-119.353
0
LINE
8
BLACK
6
CONTINUOUS
10
149.12
20
-119.353
11
149.124
21
-119.355
0
LINE
8
BLACK
6
CONTINUOUS
10
149.124
20
-119.355
11
149.128
21
-119.358
0
LINE
8
BLACK
6
CONTINUOUS
10
149.128
20
-119.358
11
149.132
21
-119.361
0
LINE
8
BLACK
6
CONTINUOUS
10
149.132
20
-119.361
11
149.136
21
-119.364
0
LINE
8
BLACK
6
CONTINUOUS
10
149.136
20
-119.364
11
149.139
21
-119.368
0
LINE
8
BLACK
6
CONTINUOUS
10
149.139
20
-119.368
11
149.142
21
-119.372
0
LINE
8
BLACK
6
CONTINUOUS
10
149.142
20
-119.372
11
149.145
21
-119.376
0
LINE
8
BLACK
6
CONTINUOUS
10
149.145
20
-119.376
11
149.147
21
-119.38
0
LINE
8
BLACK
6
CONTINUOUS
10
149.147
20
-119.38
11
149.149
21
-119.385
0
LINE
8
BLACK
6
CONTINUOUS
10
149.149
20
-119.385
11
149.15
21
-119.39
0
LINE
8
BLACK
6
CONTINUOUS
10
149.15
20
-119.39
11
149.151
21
-119.395
0
LINE
8
BLACK
6
CONTINUOUS
10
149.151
20
-119.395
11
149.151
21
-119.4
0
LINE
8
BLACK
6
CONTINUOUS
10
149.151
20
-119.4
11
149.151
21
-120.6
0
LINE
8
BLACK
6
CONTINUOUS
10
149.151
20
-120.6
11
149.151
21
-120.605
0
LINE
8
BLACK
6
CONTINUOUS
10
149.151
20
-120.605
11
149.15
21
-120.61
0
LINE
8
BLACK
6
CONTINUOUS
10
149.15
20
-120.61
11
149.149
21
-120.615
0
LINE
8
BLACK
6
CONTINUOUS
10
149.149
20
-120.615
11
149.147
21
-120.62
0
LINE
8
BLACK
6
CONTINUOUS
10
149.147
20
-120.62
11
149.145
21
-120.624
0
LINE
8
BLACK
6
CONTINUOUS
10
149.145
20
-120.624
11
149.142
21
-120.628
0
LINE
8
BLACK
6
CONTINUOUS
10
149.142
20
-120.628
11
149.139
21
-120.632
0
LINE
8
BLACK
6
CONTINUOUS
10
149.139
20
-120.632
11
149.136
21
-120.636
0
LINE
8
BLACK
6
CONTINUOUS
10
149.136
20
-120.636
11
149.132
21
-120.639
0
LINE
8
BLACK
6
CONTINUOUS
10
149.132
20
-120.639
11
149.128
21
-120.642
0
LINE
8
BLACK
6
CONTINUOUS
10
149.128
20
-120.642
11
149.124
21
-120.645
0
LINE
8
BLACK
6
CONTINUOUS
10
149.124
20
-120.645
11
149.12
21
-120.647
0
LINE
8
BLACK
6
CONTINUOUS
10
149.12
20
-120.647
11
149.115
21
-120.649
0
LINE
8
BLACK
6
CONTINUOUS
10
149.115
20
-120.649
11
149.11
21
-120.65
0
LINE
8
BLACK
6
CONTINUOUS
10
149.11
20
-120.65
11
149.105
21
-120.651
0
LINE
8
BLACK
6
CONTINUOUS
10
149.105
20
-120.651
11
149.1
21
-120.651
0
LINE
8
BLACK
6
CONTINUOUS
10
149.1
20
-120.651
11
146.9
21
-120.651
0
LINE
8
BLACK
6
CONTINUOUS
10
146.9
20
-120.651
11
146.895
21
-120.651
0
LINE
8
BLACK
6
CONTINUOUS
10
146.895
20
-120.651
11
146.89
21
-120.65
0
LINE
8
BLACK
6
CONTINUOUS
10
146.89
20
-120.65
11
146.885
21
-120.649
0
LINE
8
BLACK
6
CONTINUOUS
10
146.885
20
-120.649
11
146.88
21
-120.647
0
LINE
8
BLACK
6
CONTINUOUS
10
146.88
20
-120.647
11
146.876
21
-120.645
0
LINE
8
BLACK
6
CONTINUOUS
10
146.876
20
-120.645
11
146.872
21
-120.642
0
LINE
8
BLACK
6
CONTINUOUS
10
146.872
20
-120.642
11
146.868
21
-120.639
0
LINE
8
BLACK
6
CONTINUOUS
10
146.868
20
-120.639
11
146.864
21
-120.636
0
LINE
8
BLACK
6
CONTINUOUS
10
146.864
20
-120.636
11
146.861
21
-120.632
0
LINE
8
BLACK
6
CONTINUOUS
10
146.861
20
-120.632
11
146.858
21
-120.628
0
LINE
8
BLACK
6
CONTINUOUS
10
146.858
20
-120.628
11
146.855
21
-120.624
0
LINE
8
BLACK
6
CONTINUOUS
10
146.855
20
-120.624
11
146.853
21
-120.62
0
LINE
8
BLACK
6
CONTINUOUS
10
146.853
20
-120.62
11
146.851
21
-120.615
0
LINE
8
BLACK
6
CONTINUOUS
10
146.851
20
-120.615
11
146.85
21
-120.61
0
LINE
8
BLACK
6
CONTINUOUS
10
146.85
20
-120.61
11
146.849
21
-120.605
0
LINE
8
BLACK
6
CONTINUOUS
10
146.849
20
-120.605
11
146.849
21
-120.6
0
LINE
8
BLACK
6
CONTINUOUS
10
146.849
20
-120.6
11
146.849
21
-119.4
0
LINE
8
BLACK
6
CONTINUOUS
10
146.849
20
-119.4
11
146.849
21
-119.395
0
LINE
8
BLACK
6
CONTINUOUS
10
146.849
20
-119.395
11
146.85
21
-119.39
0
LINE
8
BLACK
6
CONTINUOUS
10
146.85
20
-119.39
11
146.851
21
-119.385
0
LINE
8
BLACK
6
CONTINUOUS
10
146.851
20
-119.385
11
146.853
21
-119.38
0
LINE
8
BLACK
6
CONTINUOUS
10
146.853
20
-119.38
11
146.855
21
-119.376
0
LINE
8
BLACK
6
CONTINUOUS
10
146.855
20
-119.376
11
146.858
21
-119.372
0
LINE
8
BLACK
6
CONTINUOUS
10
146.858
20
-119.372
11
146.861
21
-119.368
0
LINE
8
BLACK
6
CONTINUOUS
10
146.861
20
-119.368
11
146.864
21
-119.364
0
LINE
8
BLACK
6
CONTINUOUS
10
146.864
20
-119.364
11
146.868
21
-119.361
0
LINE
8
BLACK
6
CONTINUOUS
10
146.868
20
-119.361
11
146.872
21
-119.358
0
LINE
8
BLACK
6
CONTINUOUS
10
146.872
20
-119.358
11
146.876
21
-119.355
0
LINE
8
BLACK
6
CONTINUOUS
10
146.876
20
-119.355
11
146.88
21
-119.353
0
LINE
8
BLACK
6
CONTINUOUS
10
146.88
20
-119.353
11
146.885
21
-119.351
0
LINE
8
BLACK
6
CONTINUOUS
10
146.885
20
-119.351
11
146.89
21
-119.35
0
LINE
8
BLACK
6
CONTINUOUS
10
146.89
20
-119.35
11
146.895
21
-119.349
0
LINE
8
BLACK
6
CONTINUOUS
10
146.895
20
-119.349
11
146.9
21
-119.349
0
LINE
8
BLACK
6
CONTINUOUS
10
146.9
20
-119.349
11
149.1
21
-119.349
0
LINE
8
BLACK
6
CONTINUOUS
10
149.1
20
-119.349
11
149.105
21
-119.349
0
LINE
8
BLACK
6
CONTINUOUS
10
133.105
20
-121.349
11
133.11
21
-121.35
0
LINE
8
BLACK
6
CONTINUOUS
10
133.11
20
-121.35
11
133.115
21
-121.351
0
LINE
8
BLACK
6
CONTINUOUS
10
133.115
20
-121.351
11
133.12
21
-121.353
0
LINE
8
BLACK
6
CONTINUOUS
10
133.12
20
-121.353
11
133.124
21
-121.355
0
LINE
8
BLACK
6
CONTINUOUS
10
133.124
20
-121.355
11
133.128
21
-121.358
0
LINE
8
BLACK
6
CONTINUOUS
10
133.128
20
-121.358
11
133.132
21
-121.361
0
LINE
8
BLACK
6
CONTINUOUS
10
133.132
20
-121.361
11
133.136
21
-121.364
0
LINE
8
BLACK
6
CONTINUOUS
10
133.136
20
-121.364
11
133.139
21
-121.368
0
LINE
8
BLACK
6
CONTINUOUS
10
133.139
20
-121.368
11
133.142
21
-121.372
0
LINE
8
BLACK
6
CONTINUOUS
10
133.142
20
-121.372
11
133.145
21
-121.376
0
LINE
8
BLACK
6
CONTINUOUS
10
133.145
20
-121.376
11
133.147
21
-121.38
0
LINE
8
BLACK
6
CONTINUOUS
10
133.147
20
-121.38
11
133.149
21
-121.385
0
LINE
8
BLACK
6
CONTINUOUS
10
133.149
20
-121.385
11
133.15
21
-121.39
0
LINE
8
BLACK
6
CONTINUOUS
10
133.15
20
-121.39
11
133.151
21
-121.395
0
LINE
8
BLACK
6
CONTINUOUS
10
133.151
20
-121.395
11
133.151
21
-121.4
0
LINE
8
BLACK
6
CONTINUOUS
10
133.151
20
-121.4
11
133.151
21
-122.6
0
LINE
8
BLACK
6
CONTINUOUS
10
133.151
20
-122.6
11
133.151
21
-122.605
0
LINE
8
BLACK
6
CONTINUOUS
10
133.151
20
-122.605
11
133.15
21
-122.61
0
LINE
8
BLACK
6
CONTINUOUS
10
133.15
20
-122.61
11
133.149
21
-122.615
0
LINE
8
BLACK
6
CONTINUOUS
10
133.149
20
-122.615
11
133.147
21
-122.62
0
LINE
8
BLACK
6
CONTINUOUS
10
133.147
20
-122.62
11
133.145
21
-122.624
0
LINE
8
BLACK
6
CONTINUOUS
10
133.145
20
-122.624
11
133.142
21
-122.628
0
LINE
8
BLACK
6
CONTINUOUS
10
133.142
20
-122.628
11
133.139
21
-122.632
0
LINE
8
BLACK
6
CONTINUOUS
10
133.139
20
-122.632
11
133.136
21
-122.636
0
LINE
8
BLACK
6
CONTINUOUS
10
133.136
20
-122.636
11
133.132
21
-122.639
0
LINE
8
BLACK
6
CONTINUOUS
10
133.132
20
-122.639
11
133.128
21
-122.642
0
LINE
8
BLACK
6
CONTINUOUS
10
133.128
20
-122.642
11
133.124
21
-122.645
0
LINE
8
BLACK
6
CONTINUOUS
10
133.124
20
-122.645
11
133.12
21
-122.647
0
LINE
8
BLACK
6
CONTINUOUS
10
133.12
20
-122.647
11
133.115
21
-122.649
0
LINE
8
BLACK
6
CONTINUOUS
10
133.115
20
-122.649
11
133.11
21
-122.65
0
LINE
8
BLACK
6
CONTINUOUS
10
133.11
20
-122.65
11
133.105
21
-122.651
0
LINE
8
BLACK
6
CONTINUOUS
10
133.105
20
-122.651
11
133.1
21
-122.651
0
LINE
8
BLACK
6
CONTINUOUS
10
133.1
20
-122.651
11
130.9
21
-122.651
0
LINE
8
BLACK
6
CONTINUOUS
10
130.9
20
-122.651
11
130.895
21
-122.651
0
LINE
8
BLACK
6
CONTINUOUS
10
130.895
20
-122.651
11
130.89
21
-122.65
0
LINE
8
BLACK
6
CONTINUOUS
10
130.89
20
-122.65
11
130.885
21
-122.649
0
LINE
8
BLACK
6
CONTINUOUS
10
130.885
20
-122.649
11
130.88
21
-122.647
0
LINE
8
BLACK
6
CONTINUOUS
10
130.88
20
-122.647
11
130.876
21
-122.645
0
LINE
8
BLACK
6
CONTINUOUS
10
130.876
20
-122.645
11
130.872
21
-122.642
0
LINE
8
BLACK
6
CONTINUOUS
10
130.872
20
-122.642
11
130.868
21
-122.639
0
LINE
8
BLACK
6
CONTINUOUS
10
130.868
20
-122.639
11
130.864
21
-122.636
0
LINE
8
BLACK
6
CONTINUOUS
10
130.864
20
-122.636
11
130.861
21
-122.632
0
LINE
8
BLACK
6
CONTINUOUS
10
130.861
20
-122.632
11
130.858
21
-122.628
0
LINE
8
BLACK
6
CONTINUOUS
10
130.858
20
-122.628
11
130.855
21
-122.624
0
LINE
8
BLACK
6
CONTINUOUS
10
130.855
20
-122.624
11
130.853
21
-122.62
0
LINE
8
BLACK
6
CONTINUOUS
10
130.853
20
-122.62
11
130.851
21
-122.615
0
LINE
8
BLACK
6
CONTINUOUS
10
130.851
20
-122.615
11
130.85
21
-122.61
0
LINE
8
BLACK
6
CONTINUOUS
10
130.85
20
-122.61
11
130.849
21
-122.605
0
LINE
8
BLACK
6
CONTINUOUS
10
130.849
20
-122.605
11
130.849
21
-122.6
0
LINE
8
BLACK
6
CONTINUOUS
10
130.849
20
-122.6
11
130.849
21
-121.4
0
LINE
8
BLACK
6
CONTINUOUS
10
130.849
20
-121.4
11
130.849
21
-121.395
0
LINE
8
BLACK
6
CONTINUOUS
10
130.849
20
-121.395
11
130.85
21
-121.39
0
LINE
8
BLACK
6
CONTINUOUS
10
130.85
20
-121.39
11
130.851
21
-121.385
0
LINE
8
BLACK
6
CONTINUOUS
10
130.851
20
-121.385
11
130.853
21
-121.38
0
LINE
8
BLACK
6
CONTINUOUS
10
130.853
20
-121.38
11
130.855
21
-121.376
0
LINE
8
BLACK
6
CONTINUOUS
10
130.855
20
-121.376
11
130.858
21
-121.372
0
LINE
8
BLACK
6
CONTINUOUS
10
130.858
20
-121.372
11
130.861
21
-121.368
0
LINE
8
BLACK
6
CONTINUOUS
10
130.861
20
-121.368
11
130.864
21
-121.364
0
LINE
8
BLACK
6
CONTINUOUS
10
130.864
20
-121.364
11
130.868
21
-121.361
0
LINE
8
BLACK
6
CONTINUOUS
10
130.868
20
-121.361
11
130.872
21
-121.358
0
LINE
8
BLACK
6
CONTINUOUS
10
130.872
20
-121.358
11
130.876
21
-121.355
0
LINE
8
BLACK
6
CONTINUOUS
10
130.876
20
-121.355
11
130.88
21
-121.353
0
LINE
8
BLACK
6
CONTINUOUS
10
130.88
20
-121.353
11
130.885
21
-121.351
0
LINE
8
BLACK
6
CONTINUOUS
10
130.885
20
-121.351
11
130.89
21
-121.35
0
LINE
8
BLACK
6
CONTINUOUS
10
130.89
20
-121.35
11
130.895
21
-121.349
0
LINE
8
BLACK
6
CONTINUOUS
10
130.895
20
-121.349
11
130.9
21
-121.349
0
LINE
8
BLACK
6
CONTINUOUS
10
130.9
20
-121.349
11
133.1
21
-121.349
0
LINE
8
BLACK
6
CONTINUOUS
10
133.1
20
-121.349
11
133.105
21
-121.349
0
LINE
8
BLACK
6
CONTINUOUS
10
149.105
20
-121.349
11
149.11
21
-121.35
0
LINE
8
BLACK
6
CONTINUOUS
10
149.11
20
-121.35
11
149.115
21
-121.351
0
LINE
8
BLACK
6
CONTINUOUS
10
149.115
20
-121.351
11
149.12
21
-121.353
0
LINE
8
BLACK
6
CONTINUOUS
10
149.12
20
-121.353
11
149.124
21
-121.355
0
LINE
8
BLACK
6
CONTINUOUS
10
149.124
20
-121.355
11
149.128
21
-121.358
0
LINE
8
BLACK
6
CONTINUOUS
10
149.128
20
-121.358
11
149.132
21
-121.361
0
LINE
8
BLACK
6
CONTINUOUS
10
149.132
20
-121.361
11
149.136
21
-121.364
0
LINE
8
BLACK
6
CONTINUOUS
10
149.136
20
-121.364
11
149.139
21
-121.368
0
LINE
8
BLACK
6
CONTINUOUS
10
149.139
20
-121.368
11
149.142
21
-121.372
0
LINE
8
BLACK
6
CONTINUOUS
10
149.142
20
-121.372
11
149.145
21
-121.376
0
LINE
8
BLACK
6
CONTINUOUS
10
149.145
20
-121.376
11
149.147
21
-121.38
0
LINE
8
BLACK
6
CONTINUOUS
10
149.147
20
-121.38
11
149.149
21
-121.385
0
LINE
8
BLACK
6
CONTINUOUS
10
149.149
20
-121.385
11
149.15
21
-121.39
0
LINE
8
BLACK
6
CONTINUOUS
10
149.15
20
-121.39
11
149.151
21
-121.395
0
LINE
8
BLACK
6
CONTINUOUS
10
149.151
20
-121.395
11
149.151
21
-121.4
0
LINE
8
BLACK
6
CONTINUOUS
10
149.151
20
-121.4
11
149.151
21
-122.6
0
LINE
8
BLACK
6
CONTINUOUS
10
149.151
20
-122.6
11
149.151
21
-122.605
0
LINE
8
BLACK
6
CONTINUOUS
10
149.151
20
-122.605
11
149.15
21
-122.61
0
LINE
8
BLACK
6
CONTINUOUS
10
149.15
20
-122.61
11
149.149
21
-122.615
0
LINE
8
BLACK
6
CONTINUOUS
10
149.149
20
-122.615
11
149.147
21
-122.62
0
LINE
8
BLACK
6
CONTINUOUS
10
149.147
20
-122.62
11
149.145
21
-122.624
0
LINE
8
BLACK
6
CONTINUOUS
10
149.145
20
-122.624
11
149.142
21
-122.628
0
LINE
8
BLACK
6
CONTINUOUS
10
149.142
20
-122.628
11
149.139
21
-122.632
0
LINE
8
BLACK
6
CONTINUOUS
10
149.139
20
-122.632
11
149.136
21
-122.636
0
LINE
8
BLACK
6
CONTINUOUS
10
149.136
20
-122.636
11
149.132
21
-122.639
0
LINE
8
BLACK
6
CONTINUOUS
10
149.132
20
-122.639
11
149.128
21
-122.642
0
LINE
8
BLACK
6
CONTINUOUS
10
149.128
20
-122.642
11
149.124
21
-122.645
0
LINE
8
BLACK
6
CONTINUOUS
10
149.124
20
-122.645
11
149.12
21
-122.647
0
LINE
8
BLACK
6
CONTINUOUS
10
149.12
20
-122.647
11
149.115
21
-122.649
0
LINE
8
BLACK
6
CONTINUOUS
10
149.115
20
-122.649
11
149.11
21
-122.65
0
LINE
8
BLACK
6
CONTINUOUS
10
149.11
20
-122.65
11
149.105
21
-122.651
0
LINE
8
BLACK
6
CONTINUOUS
10
149.105
20
-122.651
11
149.1
21
-122.651
0
LINE
8
BLACK
6
CONTINUOUS
10
149.1
20
-122.651
11
146.9
21
-122.651
0
LINE
8
BLACK
6
CONTINUOUS
10
146.9
20
-122.651
11
146.895
21
-122.651
0
LINE
8
BLACK
6
CONTINUOUS
10
146.895
20
-122.651
11
146.89
21
-122.65
0
LINE
8
BLACK
6
CONTINUOUS
10
146.89
20
-122.65
11
146.885
21
-122.649
0
LINE
8
BLACK
6
CONTINUOUS
10
146.885
20
-122.649
11
146.88
21
-122.647
0
LINE
8
BLACK
6
CONTINUOUS
10
146.88
20
-122.647
11
146.876
21
-122.645
0
LINE
8
BLACK
6
CONTINUOUS
10
146.876
20
-122.645
11
146.872
21
-122.642
0
LINE
8
BLACK
6
CONTINUOUS
10
146.872
20
-122.642
11
146.868
21
-122.639
0
LINE
8
BLACK
6
CONTINUOUS
10
146.868
20
-122.639
11
146.864
21
-122.636
0
LINE
8
BLACK
6
CONTINUOUS
10
146.864
20
-122.636
11
146.861
21
-122.632
0
LINE
8
BLACK
6
CONTINUOUS
10
146.861
20
-122.632
11
146.858
21
-122.628
0
LINE
8
BLACK
6
CONTINUOUS
10
146.858
20
-122.628
11
146.855
21
-122.624
0
LINE
8
BLACK
6
CONTINUOUS
10
146.855
20
-122.624
11
146.853
21
-122.62
0
LINE
8
BLACK
6
CONTINUOUS
10
146.853
20
-122.62
11
146.851
21
-122.615
0
LINE
8
BLACK
6
CONTINUOUS
10
146.851
20
-122.615
11
146.85
21
-122.61
0
LINE
8
BLACK
6
CONTINUOUS
10
146.85
20
-122.61
11
146.849
21
-122.605
0
LINE
8
BLACK
6
CONTINUOUS
10
146.849
20
-122.605
11
146.849
21
-122.6
0
LINE
8
BLACK
6
CONTINUOUS
10
146.849
20
-122.6
11
146.849
21
-121.4
0
LINE
8
BLACK
6
CONTINUOUS
10
146.849
20
-121.4
11
146.849
21
-121.395
0
LINE
8
BLACK
6
CONTINUOUS
10
146.849
20
-121.395
11
146.85
21
-121.39
0
LINE
8
BLACK
6
CONTINUOUS
10
146.85
20
-121.39
11
146.851
21
-121.385
0
LINE
8
BLACK
6
CONTINUOUS
10
146.851
20
-121.385
11
146.853
21
-121.38
0
LINE
8
BLACK
6
CONTINUOUS
10
146.853
20
-121.38
11
146.855
21
-121.376
0
LINE
8
BLACK
6
CONTINUOUS
10
146.855
20
-121.376
11
146.858
21
-121.372
0
LINE
8
BLACK
6
CONTINUOUS
10
146.858
20
-121.372
11
146.861
21
-121.368
0
LINE
8
BLACK
6
CONTINUOUS
10
146.861
20
-121.368
11
146.864
21
-121.364
0
LINE
8
BLACK
6
CONTINUOUS
10
146.864
20
-121.364
11
146.868
21
-121.361
0
LINE
8
BLACK
6
CONTINUOUS
10
146.868
20
-121.361
11
146.872
21
-121.358
0
LINE
8
BLACK
6
CONTINUOUS
10
146.872
20
-121.358
11
146.876
21
-121.355
0
LINE
8
BLACK
6
CONTINUOUS
10
146.876
20
-121.355
11
146.88
21
-121.353
0
LINE
8
BLACK
6
CONTINUOUS
10
146.88
20
-121.353
11
146.885
21
-121.351
0
LINE
8
BLACK
6
CONTINUOUS
10
146.885
20
-121.351
11
146.89
21
-121.35
0
LINE
8
BLACK
6
CONTINUOUS
10
146.89
20
-121.35
11
146.895
21
-121.349
0
LINE
8
BLACK
6
CONTINUOUS
10
146.895
20
-121.349
11
146.9
21
-121.349
0
LINE
8
BLACK
6
CONTINUOUS
10
146.9
20
-121.349
11
149.1
21
-121.349
0
LINE
8
BLACK
6
CONTINUOUS
10
149.1
20
-121.349
11
149.105
21
-121.349
0
LINE
8
BLACK
6
CONTINUOUS
10
133.105
20
-123.349
11
133.11
21
-123.35
0
LINE
8
BLACK
6
CONTINUOUS
10
133.11
20
-123.35
11
133.115
21
-123.351
0
LINE
8
BLACK
6
CONTINUOUS
10
133.115
20
-123.351
11
133.12
21
-123.353
0
LINE
8
BLACK
6
CONTINUOUS
10
133.12
20
-123.353
11
133.124
21
-123.355
0
LINE
8
BLACK
6
CONTINUOUS
10
133.124
20
-123.355
11
133.128
21
-123.358
0
LINE
8
BLACK
6
CONTINUOUS
10
133.128
20
-123.358
11
133.132
21
-123.361
0
LINE
8
BLACK
6
CONTINUOUS
10
133.132
20
-123.361
11
133.136
21
-123.364
0
LINE
8
BLACK
6
CONTINUOUS
10
133.136
20
-123.364
11
133.139
21
-123.368
0
LINE
8
BLACK
6
CONTINUOUS
10
133.139
20
-123.368
11
133.142
21
-123.372
0
LINE
8
BLACK
6
CONTINUOUS
10
133.142
20
-123.372
11
133.145
21
-123.376
0
LINE
8
BLACK
6
CONTINUOUS
10
133.145
20
-123.376
11
133.147
21
-123.38
0
LINE
8
BLACK
6
CONTINUOUS
10
133.147
20
-123.38
11
133.149
21
-123.385
0
LINE
8
BLACK
6
CONTINUOUS
10
133.149
20
-123.385
11
133.15
21
-123.39
0
LINE
8
BLACK
6
CONTINUOUS
10
133.15
20
-123.39
11
133.151
21
-123.395
0
LINE
8
BLACK
6
CONTINUOUS
10
133.151
20
-123.395
11
133.151
21
-123.4
0
LINE
8
BLACK
6
CONTINUOUS
10
133.151
20
-123.4
11
133.151
21
-124.6
0
LINE
8
BLACK
6
CONTINUOUS
10
133.151
20
-124.6
11
133.151
21
-124.605
0
LINE
8
BLACK
6
CONTINUOUS
10
133.151
20
-124.605
11
133.15
21
-124.61
0
LINE
8
BLACK
6
CONTINUOUS
10
133.15
20
-124.61
11
133.149
21
-124.615
0
LINE
8
BLACK
6
CONTINUOUS
10
133.149
20
-124.615
11
133.147
21
-124.62
0
LINE
8
BLACK
6
CONTINUOUS
10
133.147
20
-124.62
11
133.145
21
-124.624
0
LINE
8
BLACK
6
CONTINUOUS
10
133.145
20
-124.624
11
133.142
21
-124.628
0
LINE
8
BLACK
6
CONTINUOUS
10
133.142
20
-124.628
11
133.139
21
-124.632
0
LINE
8
BLACK
6
CONTINUOUS
10
133.139
20
-124.632
11
133.136
21
-124.636
0
LINE
8
BLACK
6
CONTINUOUS
10
133.136
20
-124.636
11
133.132
21
-124.639
0
LINE
8
BLACK
6
CONTINUOUS
10
133.132
20
-124.639
11
133.128
21
-124.642
0
LINE
8
BLACK
6
CONTINUOUS
10
133.128
20
-124.642
11
133.124
21
-124.645
0
LINE
8
BLACK
6
CONTINUOUS
10
133.124
20
-124.645
11
133.12
21
-124.647
0
LINE
8
BLACK
6
CONTINUOUS
10
133.12
20
-124.647
11
133.115
21
-124.649
0
LINE
8
BLACK
6
CONTINUOUS
10
133.115
20
-124.649
11
133.11
21
-124.65
0
LINE
8
BLACK
6
CONTINUOUS
10
133.11
20
-124.65
11
133.105
21
-124.651
0
LINE
8
BLACK
6
CONTINUOUS
10
133.105
20
-124.651
11
133.1
21
-124.651
0
LINE
8
BLACK
6
CONTINUOUS
10
133.1
20
-124.651
11
130.9
21
-124.651
0
LINE
8
BLACK
6
CONTINUOUS
10
130.9
20
-124.651
11
130.895
21
-124.651
0
LINE
8
BLACK
6
CONTINUOUS
10
130.895
20
-124.651
11
130.89
21
-124.65
0
LINE
8
BLACK
6
CONTINUOUS
10
130.89
20
-124.65
11
130.885
21
-124.649
0
LINE
8
BLACK
6
CONTINUOUS
10
130.885
20
-124.649
11
130.88
21
-124.647
0
LINE
8
BLACK
6
CONTINUOUS
10
130.88
20
-124.647
11
130.876
21
-124.645
0
LINE
8
BLACK
6
CONTINUOUS
10
130.876
20
-124.645
11
130.872
21
-124.642
0
LINE
8
BLACK
6
CONTINUOUS
10
130.872
20
-124.642
11
130.868
21
-124.639
0
LINE
8
BLACK
6
CONTINUOUS
10
130.868
20
-124.639
11
130.864
21
-124.636
0
LINE
8
BLACK
6
CONTINUOUS
10
130.864
20
-124.636
11
130.861
21
-124.632
0
LINE
8
BLACK
6
CONTINUOUS
10
130.861
20
-124.632
11
130.858
21
-124.628
0
LINE
8
BLACK
6
CONTINUOUS
10
130.858
20
-124.628
11
130.855
21
-124.624
0
LINE
8
BLACK
6
CONTINUOUS
10
130.855
20
-124.624
11
130.853
21
-124.62
0
LINE
8
BLACK
6
CONTINUOUS
10
130.853
20
-124.62
11
130.851
21
-124.615
0
LINE
8
BLACK
6
CONTINUOUS
10
130.851
20
-124.615
11
130.85
21
-124.61
0
LINE
8
BLACK
6
CONTINUOUS
10
130.85
20
-124.61
11
130.849
21
-124.605
0
LINE
8
BLACK
6
CONTINUOUS
10
130.849
20
-124.605
11
130.849
21
-124.6
0
LINE
8
BLACK
6
CONTINUOUS
10
130.849
20
-124.6
11
130.849
21
-123.4
0
LINE
8
BLACK
6
CONTINUOUS
10
130.849
20
-123.4
11
130.849
21
-123.395
0
LINE
8
BLACK
6
CONTINUOUS
10
130.849
20
-123.395
11
130.85
21
-123.39
0
LINE
8
BLACK
6
CONTINUOUS
10
130.85
20
-123.39
11
130.851
21
-123.385
0
LINE
8
BLACK
6
CONTINUOUS
10
130.851
20
-123.385
11
130.853
21
-123.38
0
LINE
8
BLACK
6
CONTINUOUS
10
130.853
20
-123.38
11
130.855
21
-123.376
0
LINE
8
BLACK
6
CONTINUOUS
10
130.855
20
-123.376
11
130.858
21
-123.372
0
LINE
8
BLACK
6
CONTINUOUS
10
130.858
20
-123.372
11
130.861
21
-123.368
0
LINE
8
BLACK
6
CONTINUOUS
10
130.861
20
-123.368
11
130.864
21
-123.364
0
LINE
8
BLACK
6
CONTINUOUS
10
130.864
20
-123.364
11
130.868
21
-123.361
0
LINE
8
BLACK
6
CONTINUOUS
10
130.868
20
-123.361
11
130.872
21
-123.358
0
LINE
8
BLACK
6
CONTINUOUS
10
130.872
20
-123.358
11
130.876
21
-123.355
0
LINE
8
BLACK
6
CONTINUOUS
10
130.876
20
-123.355
11
130.88
21
-123.353
0
LINE
8
BLACK
6
CONTINUOUS
10
130.88
20
-123.353
11
130.885
21
-123.351
0
LINE
8
BLACK
6
CONTINUOUS
10
130.885
20
-123.351
11
130.89
21
-123.35
0
LINE
8
BLACK
6
CONTINUOUS
10
130.89
20
-123.35
11
130.895
21
-123.349
0
LINE
8
BLACK
6
CONTINUOUS
10
130.895
20
-123.349
11
130.9
21
-123.349
0
LINE
8
BLACK
6
CONTINUOUS
10
130.9
20
-123.349
11
133.1
21
-123.349
0
LINE
8
BLACK
6
CONTINUOUS
10
133.1
20
-123.349
11
133.105
21
-123.349
0
LINE
8
BLACK
6
CONTINUOUS
10
149.105
20
-123.349
11
149.11
21
-123.35
0
LINE
8
BLACK
6
CONTINUOUS
10
149.11
20
-123.35
11
149.115
21
-123.351
0
LINE
8
BLACK
6
CONTINUOUS
10
149.115
20
-123.351
11
149.12
21
-123.353
0
LINE
8
BLACK
6
CONTINUOUS
10
149.12
20
-123.353
11
149.124
21
-123.355
0
LINE
8
BLACK
6
CONTINUOUS
10
149.124
20
-123.355
11
149.128
21
-123.358
0
LINE
8
BLACK
6
CONTINUOUS
10
149.128
20
-123.358
11
149.132
21
-123.361
0
LINE
8
BLACK
6
CONTINUOUS
10
149.132
20
-123.361
11
149.136
21
-123.364
0
LINE
8
BLACK
6
CONTINUOUS
10
149.136
20
-123.364
11
149.139
21
-123.368
0
LINE
8
BLACK
6
CONTINUOUS
10
149.139
20
-123.368
11
149.142
21
-123.372
0
LINE
8
BLACK
6
CONTINUOUS
10
149.142
20
-123.372
11
149.145
21
-123.376
0
LINE
8
BLACK
6
CONTINUOUS
10
149.145
20
-123.376
11
149.147
21
-123.38
0
LINE
8
BLACK
6
CONTINUOUS
10
149.147
20
-123.38
11
149.149
21
-123.385
0
LINE
8
BLACK
6
CONTINUOUS
10
149.149
20
-123.385
11
149.15
21
-123.39
0
LINE
8
BLACK
6
CONTINUOUS
10
149.15
20
-123.39
11
149.151
21
-123.395
0
LINE
8
BLACK
6
CONTINUOUS
10
149.151
20
-123.395
11
149.151
21
-123.4
0
LINE
8
BLACK
6
CONTINUOUS
10
149.151
20
-123.4
11
149.151
21
-124.6
0
LINE
8
BLACK
6
CONTINUOUS
10
149.151
20
-124.6
11
149.151
21
-124.605
0
LINE
8
BLACK
6
CONTINUOUS
10
149.151
20
-124.605
11
149.15
21
-124.61
0
LINE
8
BLACK
6
CONTINUOUS
10
149.15
20
-124.61
11
149.149
21
-124.615
0
LINE
8
BLACK
6
CONTINUOUS
10
149.149
20
-124.615
11
149.147
21
-124.62
0
LINE
8
BLACK
6
CONTINUOUS
10
149.147
20
-124.62
11
149.145
21
-124.624
0
LINE
8
BLACK
6
CONTINUOUS
10
149.145
20
-124.624
11
149.142
21
-124.628
0
LINE
8
BLACK
6
CONTINUOUS
10
149.142
20
-124.628
11
149.139
21
-124.632
0
LINE
8
BLACK
6
CONTINUOUS
10
149.139
20
-124.632
11
149.136
21
-124.636
0
LINE
8
BLACK
6
CONTINUOUS
10
149.136
20
-124.636
11
149.132
21
-124.639
0
LINE
8
BLACK
6
CONTINUOUS
10
149.132
20
-124.639
11
149.128
21
-124.642
0
LINE
8
BLACK
6
CONTINUOUS
10
149.128
20
-124.642
11
149.124
21
-124.645
0
LINE
8
BLACK
6
CONTINUOUS
10
149.124
20
-124.645
11
149.12
21
-124.647
0
LINE
8
BLACK
6
CONTINUOUS
10
149.12
20
-124.647
11
149.115
21
-124.649
0
LINE
8
BLACK
6
CONTINUOUS
10
149.115
20
-124.649
11
149.11
21
-124.65
0
LINE
8
BLACK
6
CONTINUOUS
10
149.11
20
-124.65
11
149.105
21
-124.651
0
LINE
8
BLACK
6
CONTINUOUS
10
149.105
20
-124.651
11
149.1
21
-124.651
0
LINE
8
BLACK
6
CONTINUOUS
10
149.1
20
-124.651
11
146.9
21
-124.651
0
LINE
8
BLACK
6
CONTINUOUS
10
146.9
20
-124.651
11
146.895
21
-124.651
0
LINE
8
BLACK
6
CONTINUOUS
10
146.895
20
-124.651
11
146.89
21
-124.65
0
LINE
8
BLACK
6
CONTINUOUS
10
146.89
20
-124.65
11
146.885
21
-124.649
0
LINE
8
BLACK
6
CONTINUOUS
10
146.885
20
-124.649
11
146.88
21
-124.647
0
LINE
8
BLACK
6
CONTINUOUS
10
146.88
20
-124.647
11
146.876
21
-124.645
0
LINE
8
BLACK
6
CONTINUOUS
10
146.876
20
-124.645
11
146.872
21
-124.642
0
LINE
8
BLACK
6
CONTINUOUS
10
146.872
20
-124.642
11
146.868
21
-124.639
0
LINE
8
BLACK
6
CONTINUOUS
10
146.868
20
-124.639
11
146.864
21
-124.636
0
LINE
8
BLACK
6
CONTINUOUS
10
146.864
20
-124.636
11
146.861
21
-124.632
0
LINE
8
BLACK
6
CONTINUOUS
10
146.861
20
-124.632
11
146.858
21
-124.628
0
LINE
8
BLACK
6
CONTINUOUS
10
146.858
20
-124.628
11
146.855
21
-124.624
0
LINE
8
BLACK
6
CONTINUOUS
10
146.855
20
-124.624
11
146.853
21
-124.62
0
LINE
8
BLACK
6
CONTINUOUS
10
146.853
20
-124.62
11
146.851
21
-124.615
0
LINE
8
BLACK
6
CONTINUOUS
10
146.851
20
-124.615
11
146.85
21
-124.61
0
LINE
8
BLACK
6
CONTINUOUS
10
146.85
20
-124.61
11
146.849
21
-124.605
0
LINE
8
BLACK
6
CONTINUOUS
10
146.849
20
-124.605
11
146.849
21
-124.6
0
LINE
8
BLACK
6
CONTINUOUS
10
146.849
20
-124.6
11
146.849
21
-123.4
0
LINE
8
BLACK
6
CONTINUOUS
10
146.849
20
-123.4
11
146.849
21
-123.395
0
LINE
8
BLACK
6
CONTINUOUS
10
146.849
20
-123.395
11
146.85
21
-123.39
0
LINE
8
BLACK
6
CONTINUOUS
10
146.85
20
-123.39
11
146.851
21
-123.385
0
LINE
8
BLACK
6
CONTINUOUS
10
146.851
20
-123.385
11
146.853
21
-123.38
0
LINE
8
BLACK
6
CONTINUOUS
10
146.853
20
-123.38
11
146.855
21
-123.376
0
LINE
8
BLACK
6
CONTINUOUS
10
146.855
20
-123.376
11
146.858
21
-123.372
0
LINE
8
BLACK
6
CONTINUOUS
10
146.858
20
-123.372
11
146.861
21
-123.368
0
LINE
8
BLACK
6
CONTINUOUS
10
146.861
20
-123.368
11
146.864
21
-123.364
0
LINE
8
BLACK
6
CONTINUOUS
10
146.864
20
-123.364
11
146.868
21
-123.361
0
LINE
8
BLACK
6
CONTINUOUS
10
146.868
20
-123.361
11
146.872
21
-123.358
0
LINE
8
BLACK
6
CONTINUOUS
10
146.872
20
-123.358
11
146.876
21
-123.355
0
LINE
8
BLACK
6
CONTINUOUS
10
146.876
20
-123.355
11
146.88
21
-123.353
0
LINE
8
BLACK
6
CONTINUOUS
10
146.88
20
-123.353
11
146.885
21
-123.351
0
LINE
8
BLACK
6
CONTINUOUS
10
146.885
20
-123.351
11
146.89
21
-123.35
0
LINE
8
BLACK
6
CONTINUOUS
10
146.89
20
-123.35
11
146.895
21
-123.349
0
LINE
8
BLACK
6
CONTINUOUS
10
146.895
20
-123.349
11
146.9
21
-123.349
0
LINE
8
BLACK
6
CONTINUOUS
10
146.9
20
-123.349
11
149.1
21
-123.349
0
LINE
8
BLACK
6
CONTINUOUS
10
149.1
20
-123.349
11
149.105
21
-123.349
0
LINE
8
BLACK
6
CONTINUOUS
10
133.105
20
-125.349
11
133.11
21
-125.35
0
LINE
8
BLACK
6
CONTINUOUS
10
133.11
20
-125.35
11
133.115
21
-125.351
0
LINE
8
BLACK
6
CONTINUOUS
10
133.115
20
-125.351
11
133.12
21
-125.353
0
LINE
8
BLACK
6
CONTINUOUS
10
133.12
20
-125.353
11
133.124
21
-125.355
0
LINE
8
BLACK
6
CONTINUOUS
10
133.124
20
-125.355
11
133.128
21
-125.358
0
LINE
8
BLACK
6
CONTINUOUS
10
133.128
20
-125.358
11
133.132
21
-125.361
0
LINE
8
BLACK
6
CONTINUOUS
10
133.132
20
-125.361
11
133.136
21
-125.364
0
LINE
8
BLACK
6
CONTINUOUS
10
133.136
20
-125.364
11
133.139
21
-125.368
0
LINE
8
BLACK
6
CONTINUOUS
10
133.139
20
-125.368
11
133.142
21
-125.372
0
LINE
8
BLACK
6
CONTINUOUS
10
133.142
20
-125.372
11
133.145
21
-125.376
0
LINE
8
BLACK
6
CONTINUOUS
10
133.145
20
-125.376
11
133.147
21
-125.38
0
LINE
8
BLACK
6
CONTINUOUS
10
133.147
20
-125.38
11
133.149
21
-125.385
0
LINE
8
BLACK
6
CONTINUOUS
10
133.149
20
-125.385
11
133.15
21
-125.39
0
LINE
8
BLACK
6
CONTINUOUS
10
133.15
20
-125.39
11
133.151
21
-125.395
0
LINE
8
BLACK
6
CONTINUOUS
10
133.151
20
-125.395
11
133.151
21
-125.4
0
LINE
8
BLACK
6
CONTINUOUS
10
133.151
20
-125.4
11
133.151
21
-126.6
0
LINE
8
BLACK
6
CONTINUOUS
10
133.151
20
-126.6
11
133.151
21
-126.605
0
LINE
8
BLACK
6
CONTINUOUS
10
133.151
20
-126.605
11
133.15
21
-126.61
0
LINE
8
BLACK
6
CONTINUOUS
10
133.15
20
-126.61
11
133.149
21
-126.615
0
LINE
8
BLACK
6
CONTINUOUS
10
133.149
20
-126.615
11
133.147
21
-126.62
0
LINE
8
BLACK
6
CONTINUOUS
10
133.147
20
-126.62
11
133.145
21
-126.624
0
LINE
8
BLACK
6
CONTINUOUS
10
133.145
20
-126.624
11
133.142
21
-126.628
0
LINE
8
BLACK
6
CONTINUOUS
10
133.142
20
-126.628
11
133.139
21
-126.632
0
LINE
8
BLACK
6
CONTINUOUS
10
133.139
20
-126.632
11
133.136
21
-126.636
0
LINE
8
BLACK
6
CONTINUOUS
10
133.136
20
-126.636
11
133.132
21
-126.639
0
LINE
8
BLACK
6
CONTINUOUS
10
133.132
20
-126.639
11
133.128
21
-126.642
0
LINE
8
BLACK
6
CONTINUOUS
10
133.128
20
-126.642
11
133.124
21
-126.645
0
LINE
8
BLACK
6
CONTINUOUS
10
133.124
20
-126.645
11
133.12
21
-126.647
0
LINE
8
BLACK
6
CONTINUOUS
10
133.12
20
-126.647
11
133.115
21
-126.649
0
LINE
8
BLACK
6
CONTINUOUS
10
133.115
20
-126.649
11
133.11
21
-126.65
0
LINE
8
BLACK
6
CONTINUOUS
10
133.11
20
-126.65
11
133.105
21
-126.651
0
LINE
8
BLACK
6
CONTINUOUS
10
133.105
20
-126.651
11
133.1
21
-126.651
0
LINE
8
BLACK
6
CONTINUOUS
10
133.1
20
-126.651
11
130.9
21
-126.651
0
LINE
8
BLACK
6
CONTINUOUS
10
130.9
20
-126.651
11
130.895
21
-126.651
0
LINE
8
BLACK
6
CONTINUOUS
10
130.895
20
-126.651
11
130.89
21
-126.65
0
LINE
8
BLACK
6
CONTINUOUS
10
130.89
20
-126.65
11
130.885
21
-126.649
0
LINE
8
BLACK
6
CONTINUOUS
10
130.885
20
-126.649
11
130.88
21
-126.647
0
LINE
8
BLACK
6
CONTINUOUS
10
130.88
20
-126.647
11
130.876
21
-126.645
0
LINE
8
BLACK
6
CONTINUOUS
10
130.876
20
-126.645
11
130.872
21
-126.642
0
LINE
8
BLACK
6
CONTINUOUS
10
130.872
20
-126.642
11
130.868
21
-126.639
0
LINE
8
BLACK
6
CONTINUOUS
10
130.868
20
-126.639
11
130.864
21
-126.636
0
LINE
8
BLACK
6
CONTINUOUS
10
130.864
20
-126.636
11
130.861
21
-126.632
0
LINE
8
BLACK
6
CONTINUOUS
10
130.861
20
-126.632
11
130.858
21
-126.628
0
LINE
8
BLACK
6
CONTINUOUS
10
130.858
20
-126.628
11
130.855
21
-126.624
0
LINE
8
BLACK
6
CONTINUOUS
10
130.855
20
-126.624
11
130.853
21
-126.62
0
LINE
8
BLACK
6
CONTINUOUS
10
130.853
20
-126.62
11
130.851
21
-126.615
0
LINE
8
BLACK
6
CONTINUOUS
10
130.851
20
-126.615
11
130.85
21
-126.61
0
LINE
8
BLACK
6
CONTINUOUS
10
130.85
20
-126.61
11
130.849
21
-126.605
0
LINE
8
BLACK
6
CONTINUOUS
10
130.849
20
-126.605
11
130.849
21
-126.6
0
LINE
8
BLACK
6
CONTINUOUS
10
130.849
20
-126.6
11
130.849
21
-125.4
0
LINE
8
BLACK
6
CONTINUOUS
10
130.849
20
-125.4
11
130.849
21
-125.395
0
LINE
8
BLACK
6
CONTINUOUS
10
130.849
20
-125.395
11
130.85
21
-125.39
0
LINE
8
BLACK
6
CONTINUOUS
10
130.85
20
-125.39
11
130.851
21
-125.385
0
LINE
8
BLACK
6
CONTINUOUS
10
130.851
20
-125.385
11
130.853
21
-125.38
0
LINE
8
BLACK
6
CONTINUOUS
10
130.853
20
-125.38
11
130.855
21
-125.376
0
LINE
8
BLACK
6
CONTINUOUS
10
130.855
20
-125.376
11
130.858
21
-125.372
0
LINE
8
BLACK
6
CONTINUOUS
10
130.858
20
-125.372
11
130.861
21
-125.368
0
LINE
8
BLACK
6
CONTINUOUS
10
130.861
20
-125.368
11
130.864
21
-125.364
0
LINE
8
BLACK
6
CONTINUOUS
10
130.864
20
-125.364
11
130.868
21
-125.361
0
LINE
8
BLACK
6
CONTINUOUS
10
130.868
20
-125.361
11
130.872
21
-125.358
0
LINE
8
BLACK
6
CONTINUOUS
10
130.872
20
-125.358
11
130.876
21
-125.355
0
LINE
8
BLACK
6
CONTINUOUS
10
130.876
20
-125.355
11
130.88
21
-125.353
0
LINE
8
BLACK
6
CONTINUOUS
10
130.88
20
-125.353
11
130.885
21
-125.351
0
LINE
8
BLACK
6
CONTINUOUS
10
130.885
20
-125.351
11
130.89
21
-125.35
0
LINE
8
BLACK
6
CONTINUOUS
10
130.89
20
-125.35
11
130.895
21
-125.349
0
LINE
8
BLACK
6
CONTINUOUS
10
130.895
20
-125.349
11
130.9
21
-125.349
0
LINE
8
BLACK
6
CONTINUOUS
10
130.9
20
-125.349
11
133.1
21
-125.349
0
LINE
8
BLACK
6
CONTINUOUS
10
133.1
20
-125.349
11
133.105
21
-125.349
0
LINE
8
BLACK
6
CONTINUOUS
10
149.105
20
-125.349
11
149.11
21
-125.35
0
LINE
8
BLACK
6
CONTINUOUS
10
149.11
20
-125.35
11
149.115
21
-125.351
0
LINE
8
BLACK
6
CONTINUOUS
10
149.115
20
-125.351
11
149.12
21
-125.353
0
LINE
8
BLACK
6
CONTINUOUS
10
149.12
20
-125.353
11
149.124
21
-125.355
0
LINE
8
BLACK
6
CONTINUOUS
10
149.124
20
-125.355
11
149.128
21
-125.358
0
LINE
8
BLACK
6
CONTINUOUS
10
149.128
20
-125.358
11
149.132
21
-125.361
0
LINE
8
BLACK
6
CONTINUOUS
10
149.132
20
-125.361
11
149.136
21
-125.364
0
LINE
8
BLACK
6
CONTINUOUS
10
149.136
20
-125.364
11
149.139
21
-125.368
0
LINE
8
BLACK
6
CONTINUOUS
10
149.139
20
-125.368
11
149.142
21
-125.372
0
LINE
8
BLACK
6
CONTINUOUS
10
149.142
20
-125.372
11
149.145
21
-125.376
0
LINE
8
BLACK
6
CONTINUOUS
10
149.145
20
-125.376
11
149.147
21
-125.38
0
LINE
8
BLACK
6
CONTINUOUS
10
149.147
20
-125.38
11
149.149
21
-125.385
0
LINE
8
BLACK
6
CONTINUOUS
10
149.149
20
-125.385
11
149.15
21
-125.39
0
LINE
8
BLACK
6
CONTINUOUS
10
149.15
20
-125.39
11
149.151
21
-125.395
0
LINE
8
BLACK
6
CONTINUOUS
10
149.151
20
-125.395
11
149.151
21
-125.4
0
LINE
8
BLACK
6
CONTINUOUS
10
149.151
20
-125.4
11
149.151
21
-126.6
0
LINE
8
BLACK
6
CONTINUOUS
10
149.151
20
-126.6
11
149.151
21
-126.605
0
LINE
8
BLACK
6
CONTINUOUS
10
149.151
20
-126.605
11
149.15
21
-126.61
0
LINE
8
BLACK
6
CONTINUOUS
10
149.15
20
-126.61
11
149.149
21
-126.615
0
LINE
8
BLACK
6
CONTINUOUS
10
149.149
20
-126.615
11
149.147
21
-126.62
0
LINE
8
BLACK
6
CONTINUOUS
10
149.147
20
-126.62
11
149.145
21
-126.624
0
LINE
8
BLACK
6
CONTINUOUS
10
149.145
20
-126.624
11
149.142
21
-126.628
0
LINE
8
BLACK
6
CONTINUOUS
10
149.142
20
-126.628
11
149.139
21
-126.632
0
LINE
8
BLACK
6
CONTINUOUS
10
149.139
20
-126.632
11
149.136
21
-126.636
0
LINE
8
BLACK
6
CONTINUOUS
10
149.136
20
-126.636
11
149.132
21
-126.639
0
LINE
8
BLACK
6
CONTINUOUS
10
149.132
20
-126.639
11
149.128
21
-126.642
0
LINE
8
BLACK
6
CONTINUOUS
10
149.128
20
-126.642
11
149.124
21
-126.645
0
LINE
8
BLACK
6
CONTINUOUS
10
149.124
20
-126.645
11
149.12
21
-126.647
0
LINE
8
BLACK
6
CONTINUOUS
10
149.12
20
-126.647
11
149.115
21
-126.649
0
LINE
8
BLACK
6
CONTINUOUS
10
149.115
20
-126.649
11
149.11
21
-126.65
0
LINE
8
BLACK
6
CONTINUOUS
10
149.11
20
-126.65
11
149.105
21
-126.651
0
LINE
8
BLACK
6
CONTINUOUS
10
149.105
20
-126.651
11
149.1
21
-126.651
0
LINE
8
BLACK
6
CONTINUOUS
10
149.1
20
-126.651
11
146.9
21
-126.651
0
LINE
8
BLACK
6
CONTINUOUS
10
146.9
20
-126.651
11
146.895
21
-126.651
0
LINE
8
BLACK
6
CONTINUOUS
10
146.895
20
-126.651
11
146.89
21
-126.65
0
LINE
8
BLACK
6
CONTINUOUS
10
146.89
20
-126.65
11
146.885
21
-126.649
0
LINE
8
BLACK
6
CONTINUOUS
10
146.885
20
-126.649
11
146.88
21
-126.647
0
LINE
8
BLACK
6
CONTINUOUS
10
146.88
20
-126.647
11
146.876
21
-126.645
0
LINE
8
BLACK
6
CONTINUOUS
10
146.876
20
-126.645
11
146.872
21
-126.642
0
LINE
8
BLACK
6
CONTINUOUS
10
146.872
20
-126.642
11
146.868
21
-126.639
0
LINE
8
BLACK
6
CONTINUOUS
10
146.868
20
-126.639
11
146.864
21
-126.636
0
LINE
8
BLACK
6
CONTINUOUS
10
146.864
20
-126.636
11
146.861
21
-126.632
0
LINE
8
BLACK
6
CONTINUOUS
10
146.861
20
-126.632
11
146.858
21
-126.628
0
LINE
8
BLACK
6
CONTINUOUS
10
146.858
20
-126.628
11
146.855
21
-126.624
0
LINE
8
BLACK
6
CONTINUOUS
10
146.855
20
-126.624
11
146.853
21
-126.62
0
LINE
8
BLACK
6
CONTINUOUS
10
146.853
20
-126.62
11
146.851
21
-126.615
0
LINE
8
BLACK
6
CONTINUOUS
10
146.851
20
-126.615
11
146.85
21
-126.61
0
LINE
8
BLACK
6
CONTINUOUS
10
146.85
20
-126.61
11
146.849
21
-126.605
0
LINE
8
BLACK
6
CONTINUOUS
10
146.849
20
-126.605
11
146.849
21
-126.6
0
LINE
8
BLACK
6
CONTINUOUS
10
146.849
20
-126.6
11
146.849
21
-125.4
0
LINE
8
BLACK
6
CONTINUOUS
10
146.849
20
-125.4
11
146.849
21
-125.395
0
LINE
8
BLACK
6
CONTINUOUS
10
146.849
20
-125.395
11
146.85
21
-125.39
0
LINE
8
BLACK
6
CONTINUOUS
10
146.85
20
-125.39
11
146.851
21
-125.385
0
LINE
8
BLACK
6
CONTINUOUS
10
146.851
20
-125.385
11
146.853
21
-125.38
0
LINE
8
BLACK
6
CONTINUOUS
10
146.853
20
-125.38
11
146.855
21
-125.376
0
LINE
8
BLACK
6
CONTINUOUS
10
146.855
20
-125.376
11
146.858
21
-125.372
0
LINE
8
BLACK
6
CONTINUOUS
10
146.858
20
-125.372
11
146.861
21
-125.368
0
LINE
8
BLACK
6
CONTINUOUS
10
146.861
20
-125.368
11
146.864
21
-125.364
0
LINE
8
BLACK
6
CONTINUOUS
10
146.864
20
-125.364
11
146.868
21
-125.361
0
LINE
8
BLACK
6
CONTINUOUS
10
146.868
20
-125.361
11
146.872
21
-125.358
0
LINE
8
BLACK
6
CONTINUOUS
10
146.872
20
-125.358
11
146.876
21
-125.355
0
LINE
8
BLACK
6
CONTINUOUS
10
146.876
20
-125.355
11
146.88
21
-125.353
0
LINE
8
BLACK
6
CONTINUOUS
10
146.88
20
-125.353
11
146.885
21
-125.351
0
LINE
8
BLACK
6
CONTINUOUS
10
146.885
20
-125.351
11
146.89
21
-125.35
0
LINE
8
BLACK
6
CONTINUOUS
10
146.89
20
-125.35
11
146.895
21
-125.349
0
LINE
8
BLACK
6
CONTINUOUS
10
146.895
20
-125.349
11
146.9
21
-125.349
0
LINE
8
BLACK
6
CONTINUOUS
10
146.9
20
-125.349
11
149.1
21
-125.349
0
LINE
8
BLACK
6
CONTINUOUS
10
149.1
20
-125.349
11
149.105
21
-125.349
0
ARC
8
BLACK
10
164.675
20
-84.4
40
0.901
50
270
51
450
0
ARC
8
BLACK
10
164.675
20
-84.4
40
0.901
50
90
51
270
0
ARC
8
BLACK
10
162.135
20
-84.4
40
0.901
50
270
51
450
0
ARC
8
BLACK
10
162.135
20
-84.4
40
0.901
50
90
51
270
0
ARC
8
BLACK
10
159.595
20
-84.4
40
0.901
50
270
51
450
0
ARC
8
BLACK
10
159.595
20
-84.4
40
0.901
50
90
51
270
0
LINE
8
BLACK
6
CONTINUOUS
10
157.91
20
-83.4992
11
157.915
21
-83.5
0
LINE
8
BLACK
6
CONTINUOUS
10
157.915
20
-83.5
11
157.92
21
-83.5012
0
LINE
8
BLACK
6
CONTINUOUS
10
157.92
20
-83.5012
11
157.925
21
-83.5029
0
LINE
8
BLACK
6
CONTINUOUS
10
157.925
20
-83.5029
11
157.929
21
-83.505
0
LINE
8
BLACK
6
CONTINUOUS
10
157.929
20
-83.505
11
157.933
21
-83.5076
0
LINE
8
BLACK
6
CONTINUOUS
10
157.933
20
-83.5076
11
157.937
21
-83.5106
0
LINE
8
BLACK
6
CONTINUOUS
10
157.937
20
-83.5106
11
157.941
21
-83.5139
0
LINE
8
BLACK
6
CONTINUOUS
10
157.941
20
-83.5139
11
157.944
21
-83.5176
0
LINE
8
BLACK
6
CONTINUOUS
10
157.944
20
-83.5176
11
157.947
21
-83.5217
0
LINE
8
BLACK
6
CONTINUOUS
10
157.947
20
-83.5217
11
157.95
21
-83.526
0
LINE
8
BLACK
6
CONTINUOUS
10
157.95
20
-83.526
11
157.952
21
-83.5305
0
LINE
8
BLACK
6
CONTINUOUS
10
157.952
20
-83.5305
11
157.954
21
-83.5352
0
LINE
8
BLACK
6
CONTINUOUS
10
157.954
20
-83.5352
11
157.955
21
-83.54
0
LINE
8
BLACK
6
CONTINUOUS
10
157.955
20
-83.54
11
157.956
21
-83.545
0
LINE
8
BLACK
6
CONTINUOUS
10
157.956
20
-83.545
11
157.956
21
-83.55
0
LINE
8
BLACK
6
CONTINUOUS
10
157.956
20
-83.55
11
157.956
21
-85.25
0
LINE
8
BLACK
6
CONTINUOUS
10
157.956
20
-85.25
11
157.956
21
-85.255
0
LINE
8
BLACK
6
CONTINUOUS
10
157.956
20
-85.255
11
157.955
21
-85.2599
0
LINE
8
BLACK
6
CONTINUOUS
10
157.955
20
-85.2599
11
157.954
21
-85.2648
0
LINE
8
BLACK
6
CONTINUOUS
10
157.954
20
-85.2648
11
157.952
21
-85.2695
0
LINE
8
BLACK
6
CONTINUOUS
10
157.952
20
-85.2695
11
157.95
21
-85.274
0
LINE
8
BLACK
6
CONTINUOUS
10
157.95
20
-85.274
11
157.947
21
-85.2783
0
LINE
8
BLACK
6
CONTINUOUS
10
157.947
20
-85.2783
11
157.944
21
-85.2824
0
LINE
8
BLACK
6
CONTINUOUS
10
157.944
20
-85.2824
11
157.941
21
-85.2861
0
LINE
8
BLACK
6
CONTINUOUS
10
157.941
20
-85.2861
11
157.937
21
-85.2894
0
LINE
8
BLACK
6
CONTINUOUS
10
157.937
20
-85.2894
11
157.933
21
-85.2924
0
LINE
8
BLACK
6
CONTINUOUS
10
157.933
20
-85.2924
11
157.929
21
-85.295
0
LINE
8
BLACK
6
CONTINUOUS
10
157.929
20
-85.295
11
157.925
21
-85.2971
0
LINE
8
BLACK
6
CONTINUOUS
10
157.925
20
-85.2971
11
157.92
21
-85.2988
0
LINE
8
BLACK
6
CONTINUOUS
10
157.92
20
-85.2988
11
157.915
21
-85.3
0
LINE
8
BLACK
6
CONTINUOUS
10
157.915
20
-85.3
11
157.91
21
-85.3008
0
LINE
8
BLACK
6
CONTINUOUS
10
157.91
20
-85.3008
11
157.905
21
-85.301
0
LINE
8
BLACK
6
CONTINUOUS
10
157.905
20
-85.301
11
156.205
21
-85.301
0
LINE
8
BLACK
6
CONTINUOUS
10
156.205
20
-85.301
11
156.2
21
-85.3008
0
LINE
8
BLACK
6
CONTINUOUS
10
156.2
20
-85.3008
11
156.195
21
-85.3
0
LINE
8
BLACK
6
CONTINUOUS
10
156.195
20
-85.3
11
156.19
21
-85.2988
0
LINE
8
BLACK
6
CONTINUOUS
10
156.19
20
-85.2988
11
156.185
21
-85.2971
0
LINE
8
BLACK
6
CONTINUOUS
10
156.185
20
-85.2971
11
156.181
21
-85.295
0
LINE
8
BLACK
6
CONTINUOUS
10
156.181
20
-85.295
11
156.177
21
-85.2924
0
LINE
8
BLACK
6
CONTINUOUS
10
156.177
20
-85.2924
11
156.173
21
-85.2894
0
LINE
8
BLACK
6
CONTINUOUS
10
156.173
20
-85.2894
11
156.169
21
-85.2861
0
LINE
8
BLACK
6
CONTINUOUS
10
156.169
20
-85.2861
11
156.166
21
-85.2824
0
LINE
8
BLACK
6
CONTINUOUS
10
156.166
20
-85.2824
11
156.163
21
-85.2783
0
LINE
8
BLACK
6
CONTINUOUS
10
156.163
20
-85.2783
11
156.16
21
-85.274
0
LINE
8
BLACK
6
CONTINUOUS
10
156.16
20
-85.274
11
156.158
21
-85.2695
0
LINE
8
BLACK
6
CONTINUOUS
10
156.158
20
-85.2695
11
156.156
21
-85.2648
0
LINE
8
BLACK
6
CONTINUOUS
10
156.156
20
-85.2648
11
156.155
21
-85.2599
0
LINE
8
BLACK
6
CONTINUOUS
10
156.155
20
-85.2599
11
156.154
21
-85.255
0
LINE
8
BLACK
6
CONTINUOUS
10
156.154
20
-85.255
11
156.154
21
-85.25
0
LINE
8
BLACK
6
CONTINUOUS
10
156.154
20
-85.25
11
156.154
21
-83.55
0
LINE
8
BLACK
6
CONTINUOUS
10
156.154
20
-83.55
11
156.154
21
-83.545
0
LINE
8
BLACK
6
CONTINUOUS
10
156.154
20
-83.545
11
156.155
21
-83.54
0
LINE
8
BLACK
6
CONTINUOUS
10
156.155
20
-83.54
11
156.156
21
-83.5352
0
LINE
8
BLACK
6
CONTINUOUS
10
156.156
20
-83.5352
11
156.158
21
-83.5305
0
LINE
8
BLACK
6
CONTINUOUS
10
156.158
20
-83.5305
11
156.16
21
-83.526
0
LINE
8
BLACK
6
CONTINUOUS
10
156.16
20
-83.526
11
156.163
21
-83.5217
0
LINE
8
BLACK
6
CONTINUOUS
10
156.163
20
-83.5217
11
156.166
21
-83.5176
0
LINE
8
BLACK
6
CONTINUOUS
10
156.166
20
-83.5176
11
156.169
21
-83.5139
0
LINE
8
BLACK
6
CONTINUOUS
10
156.169
20
-83.5139
11
156.173
21
-83.5106
0
LINE
8
BLACK
6
CONTINUOUS
10
156.173
20
-83.5106
11
156.177
21
-83.5076
0
LINE
8
BLACK
6
CONTINUOUS
10
156.177
20
-83.5076
11
156.181
21
-83.505
0
LINE
8
BLACK
6
CONTINUOUS
10
156.181
20
-83.505
11
156.185
21
-83.5029
0
LINE
8
BLACK
6
CONTINUOUS
10
156.185
20
-83.5029
11
156.19
21
-83.5012
0
LINE
8
BLACK
6
CONTINUOUS
10
156.19
20
-83.5012
11
156.195
21
-83.5
0
LINE
8
BLACK
6
CONTINUOUS
10
156.195
20
-83.5
11
156.2
21
-83.4992
0
LINE
8
BLACK
6
CONTINUOUS
10
156.2
20
-83.4992
11
156.205
21
-83.499
0
LINE
8
BLACK
6
CONTINUOUS
10
156.205
20
-83.499
11
157.905
21
-83.499
0
LINE
8
BLACK
6
CONTINUOUS
10
157.905
20
-83.499
11
157.91
21
-83.4992
0
LINE
8
BLACK
6
CONTINUOUS
10
180.455
20
-94.6992
11
180.46
21
-94.7
0
LINE
8
BLACK
6
CONTINUOUS
10
180.46
20
-94.7
11
180.465
21
-94.7012
0
LINE
8
BLACK
6
CONTINUOUS
10
180.465
20
-94.7012
11
180.47
21
-94.7029
0
LINE
8
BLACK
6
CONTINUOUS
10
180.47
20
-94.7029
11
180.474
21
-94.705
0
LINE
8
BLACK
6
CONTINUOUS
10
180.474
20
-94.705
11
180.478
21
-94.7076
0
LINE
8
BLACK
6
CONTINUOUS
10
180.478
20
-94.7076
11
180.482
21
-94.7106
0
LINE
8
BLACK
6
CONTINUOUS
10
180.482
20
-94.7106
11
180.486
21
-94.7139
0
LINE
8
BLACK
6
CONTINUOUS
10
180.486
20
-94.7139
11
180.489
21
-94.7176
0
LINE
8
BLACK
6
CONTINUOUS
10
180.489
20
-94.7176
11
180.492
21
-94.7217
0
LINE
8
BLACK
6
CONTINUOUS
10
180.492
20
-94.7217
11
180.495
21
-94.726
0
LINE
8
BLACK
6
CONTINUOUS
10
180.495
20
-94.726
11
180.497
21
-94.7305
0
LINE
8
BLACK
6
CONTINUOUS
10
180.497
20
-94.7305
11
180.499
21
-94.7352
0
LINE
8
BLACK
6
CONTINUOUS
10
180.499
20
-94.7352
11
180.5
21
-94.74
0
LINE
8
BLACK
6
CONTINUOUS
10
180.5
20
-94.74
11
180.501
21
-94.745
0
LINE
8
BLACK
6
CONTINUOUS
10
180.501
20
-94.745
11
180.501
21
-94.75
0
LINE
8
BLACK
6
CONTINUOUS
10
180.501
20
-94.75
11
180.501
21
-96.45
0
LINE
8
BLACK
6
CONTINUOUS
10
180.501
20
-96.45
11
180.501
21
-96.455
0
LINE
8
BLACK
6
CONTINUOUS
10
180.501
20
-96.455
11
180.5
21
-96.4599
0
LINE
8
BLACK
6
CONTINUOUS
10
180.5
20
-96.4599
11
180.499
21
-96.4648
0
LINE
8
BLACK
6
CONTINUOUS
10
180.499
20
-96.4648
11
180.497
21
-96.4695
0
LINE
8
BLACK
6
CONTINUOUS
10
180.497
20
-96.4695
11
180.495
21
-96.474
0
LINE
8
BLACK
6
CONTINUOUS
10
180.495
20
-96.474
11
180.492
21
-96.4783
0
LINE
8
BLACK
6
CONTINUOUS
10
180.492
20
-96.4783
11
180.489
21
-96.4824
0
LINE
8
BLACK
6
CONTINUOUS
10
180.489
20
-96.4824
11
180.486
21
-96.4861
0
LINE
8
BLACK
6
CONTINUOUS
10
180.486
20
-96.4861
11
180.482
21
-96.4894
0
LINE
8
BLACK
6
CONTINUOUS
10
180.482
20
-96.4894
11
180.478
21
-96.4924
0
LINE
8
BLACK
6
CONTINUOUS
10
180.478
20
-96.4924
11
180.474
21
-96.495
0
LINE
8
BLACK
6
CONTINUOUS
10
180.474
20
-96.495
11
180.47
21
-96.4971
0
LINE
8
BLACK
6
CONTINUOUS
10
180.47
20
-96.4971
11
180.465
21
-96.4988
0
LINE
8
BLACK
6
CONTINUOUS
10
180.465
20
-96.4988
11
180.46
21
-96.5
0
LINE
8
BLACK
6
CONTINUOUS
10
180.46
20
-96.5
11
180.455
21
-96.5008
0
LINE
8
BLACK
6
CONTINUOUS
10
180.455
20
-96.5008
11
180.45
21
-96.501
0
LINE
8
BLACK
6
CONTINUOUS
10
180.45
20
-96.501
11
178.75
21
-96.501
0
LINE
8
BLACK
6
CONTINUOUS
10
178.75
20
-96.501
11
178.745
21
-96.5008
0
LINE
8
BLACK
6
CONTINUOUS
10
178.745
20
-96.5008
11
178.74
21
-96.5
0
LINE
8
BLACK
6
CONTINUOUS
10
178.74
20
-96.5
11
178.735
21
-96.4988
0
LINE
8
BLACK
6
CONTINUOUS
10
178.735
20
-96.4988
11
178.73
21
-96.4971
0
LINE
8
BLACK
6
CONTINUOUS
10
178.73
20
-96.4971
11
178.726
21
-96.495
0
LINE
8
BLACK
6
CONTINUOUS
10
178.726
20
-96.495
11
178.722
21
-96.4924
0
LINE
8
BLACK
6
CONTINUOUS
10
178.722
20
-96.4924
11
178.718
21
-96.4894
0
LINE
8
BLACK
6
CONTINUOUS
10
178.718
20
-96.4894
11
178.714
21
-96.4861
0
LINE
8
BLACK
6
CONTINUOUS
10
178.714
20
-96.4861
11
178.711
21
-96.4824
0
LINE
8
BLACK
6
CONTINUOUS
10
178.711
20
-96.4824
11
178.708
21
-96.4783
0
LINE
8
BLACK
6
CONTINUOUS
10
178.708
20
-96.4783
11
178.705
21
-96.474
0
LINE
8
BLACK
6
CONTINUOUS
10
178.705
20
-96.474
11
178.703
21
-96.4695
0
LINE
8
BLACK
6
CONTINUOUS
10
178.703
20
-96.4695
11
178.701
21
-96.4648
0
LINE
8
BLACK
6
CONTINUOUS
10
178.701
20
-96.4648
11
178.7
21
-96.4599
0
LINE
8
BLACK
6
CONTINUOUS
10
178.7
20
-96.4599
11
178.699
21
-96.455
0
LINE
8
BLACK
6
CONTINUOUS
10
178.699
20
-96.455
11
178.699
21
-96.45
0
LINE
8
BLACK
6
CONTINUOUS
10
178.699
20
-96.45
11
178.699
21
-94.75
0
LINE
8
BLACK
6
CONTINUOUS
10
178.699
20
-94.75
11
178.699
21
-94.745
0
LINE
8
BLACK
6
CONTINUOUS
10
178.699
20
-94.745
11
178.7
21
-94.74
0
LINE
8
BLACK
6
CONTINUOUS
10
178.7
20
-94.74
11
178.701
21
-94.7352
0
LINE
8
BLACK
6
CONTINUOUS
10
178.701
20
-94.7352
11
178.703
21
-94.7305
0
LINE
8
BLACK
6
CONTINUOUS
10
178.703
20
-94.7305
11
178.705
21
-94.726
0
LINE
8
BLACK
6
CONTINUOUS
10
178.705
20
-94.726
11
178.708
21
-94.7217
0
LINE
8
BLACK
6
CONTINUOUS
10
178.708
20
-94.7217
11
178.711
21
-94.7176
0
LINE
8
BLACK
6
CONTINUOUS
10
178.711
20
-94.7176
11
178.714
21
-94.7139
0
LINE
8
BLACK
6
CONTINUOUS
10
178.714
20
-94.7139
11
178.718
21
-94.7106
0
LINE
8
BLACK
6
CONTINUOUS
10
178.718
20
-94.7106
11
178.722
21
-94.7076
0
LINE
8
BLACK
6
CONTINUOUS
10
178.722
20
-94.7076
11
178.726
21
-94.705
0
LINE
8
BLACK
6
CONTINUOUS
10
178.726
20
-94.705
11
178.73
21
-94.7029
0
LINE
8
BLACK
6
CONTINUOUS
10
178.73
20
-94.7029
11
178.735
21
-94.7012
0
LINE
8
BLACK
6
CONTINUOUS
10
178.735
20
-94.7012
11
178.74
21
-94.7
0
LINE
8
BLACK
6
CONTINUOUS
10
178.74
20
-94.7
11
178.745
21
-94.6992
0
LINE
8
BLACK
6
CONTINUOUS
10
178.745
20
-94.6992
11
178.75
21
-94.699
0
LINE
8
BLACK
6
CONTINUOUS
10
178.75
20
-94.699
11
180.45
21
-94.699
0
LINE
8
BLACK
6
CONTINUOUS
10
180.45
20
-94.699
11
180.455
21
-94.6992
0
ARC
8
BLACK
10
179.6
20
-98.14
40
0.901
50
180
51
360
0
ARC
8
BLACK
10
179.6
20
-98.14
40
0.901
50
0
51
180
0
ARC
8
BLACK
10
179.6
20
-100.68
40
0.901
50
180
51
360
0
ARC
8
BLACK
10
179.6
20
-100.68
40
0.901
50
0
51
180
0
ARC
8
BLACK
10
179.6
20
-103.22
40
0.901
50
180
51
360
0
ARC
8
BLACK
10
179.6
20
-103.22
40
0.901
50
0
51
180
0
LINE
8
BLACK
6
CONTINUOUS
10
138.725
20
-53.8292
11
138.73
21
-53.83
0
LINE
8
BLACK
6
CONTINUOUS
10
138.73
20
-53.83
11
138.735
21
-53.8312
0
LINE
8
BLACK
6
CONTINUOUS
10
138.735
20
-53.8312
11
138.74
21
-53.8329
0
LINE
8
BLACK
6
CONTINUOUS
10
138.74
20
-53.8329
11
138.744
21
-53.835
0
LINE
8
BLACK
6
CONTINUOUS
10
138.744
20
-53.835
11
138.748
21
-53.8376
0
LINE
8
BLACK
6
CONTINUOUS
10
138.748
20
-53.8376
11
138.752
21
-53.8406
0
LINE
8
BLACK
6
CONTINUOUS
10
138.752
20
-53.8406
11
138.756
21
-53.8439
0
LINE
8
BLACK
6
CONTINUOUS
10
138.756
20
-53.8439
11
138.759
21
-53.8476
0
LINE
8
BLACK
6
CONTINUOUS
10
138.759
20
-53.8476
11
138.762
21
-53.8517
0
LINE
8
BLACK
6
CONTINUOUS
10
138.762
20
-53.8517
11
138.765
21
-53.856
0
LINE
8
BLACK
6
CONTINUOUS
10
138.765
20
-53.856
11
138.767
21
-53.8605
0
LINE
8
BLACK
6
CONTINUOUS
10
138.767
20
-53.8605
11
138.769
21
-53.8652
0
LINE
8
BLACK
6
CONTINUOUS
10
138.769
20
-53.8652
11
138.77
21
-53.87
0
LINE
8
BLACK
6
CONTINUOUS
10
138.77
20
-53.87
11
138.771
21
-53.875
0
LINE
8
BLACK
6
CONTINUOUS
10
138.771
20
-53.875
11
138.771
21
-53.88
0
LINE
8
BLACK
6
CONTINUOUS
10
138.771
20
-53.88
11
138.771
21
-54.72
0
LINE
8
BLACK
6
CONTINUOUS
10
138.771
20
-54.72
11
138.771
21
-54.725
0
LINE
8
BLACK
6
CONTINUOUS
10
138.771
20
-54.725
11
138.77
21
-54.7299
0
LINE
8
BLACK
6
CONTINUOUS
10
138.77
20
-54.7299
11
138.769
21
-54.7348
0
LINE
8
BLACK
6
CONTINUOUS
10
138.769
20
-54.7348
11
138.767
21
-54.7395
0
LINE
8
BLACK
6
CONTINUOUS
10
138.767
20
-54.7395
11
138.765
21
-54.744
0
LINE
8
BLACK
6
CONTINUOUS
10
138.765
20
-54.744
11
138.762
21
-54.7483
0
LINE
8
BLACK
6
CONTINUOUS
10
138.762
20
-54.7483
11
138.759
21
-54.7524
0
LINE
8
BLACK
6
CONTINUOUS
10
138.759
20
-54.7524
11
138.756
21
-54.7561
0
LINE
8
BLACK
6
CONTINUOUS
10
138.756
20
-54.7561
11
138.752
21
-54.7594
0
LINE
8
BLACK
6
CONTINUOUS
10
138.752
20
-54.7594
11
138.748
21
-54.7624
0
LINE
8
BLACK
6
CONTINUOUS
10
138.748
20
-54.7624
11
138.744
21
-54.765
0
LINE
8
BLACK
6
CONTINUOUS
10
138.744
20
-54.765
11
138.74
21
-54.7671
0
LINE
8
BLACK
6
CONTINUOUS
10
138.74
20
-54.7671
11
138.735
21
-54.7688
0
LINE
8
BLACK
6
CONTINUOUS
10
138.735
20
-54.7688
11
138.73
21
-54.77
0
LINE
8
BLACK
6
CONTINUOUS
10
138.73
20
-54.77
11
138.725
21
-54.7708
0
LINE
8
BLACK
6
CONTINUOUS
10
138.725
20
-54.7708
11
138.72
21
-54.771
0
LINE
8
BLACK
6
CONTINUOUS
10
138.72
20
-54.771
11
137.88
21
-54.771
0
LINE
8
BLACK
6
CONTINUOUS
10
137.88
20
-54.771
11
137.875
21
-54.7708
0
LINE
8
BLACK
6
CONTINUOUS
10
137.875
20
-54.7708
11
137.87
21
-54.77
0
LINE
8
BLACK
6
CONTINUOUS
10
137.87
20
-54.77
11
137.865
21
-54.7688
0
LINE
8
BLACK
6
CONTINUOUS
10
137.865
20
-54.7688
11
137.86
21
-54.7671
0
LINE
8
BLACK
6
CONTINUOUS
10
137.86
20
-54.7671
11
137.856
21
-54.765
0
LINE
8
BLACK
6
CONTINUOUS
10
137.856
20
-54.765
11
137.852
21
-54.7624
0
LINE
8
BLACK
6
CONTINUOUS
10
137.852
20
-54.7624
11
137.848
21
-54.7594
0
LINE
8
BLACK
6
CONTINUOUS
10
137.848
20
-54.7594
11
137.844
21
-54.7561
0
LINE
8
BLACK
6
CONTINUOUS
10
137.844
20
-54.7561
11
137.841
21
-54.7524
0
LINE
8
BLACK
6
CONTINUOUS
10
137.841
20
-54.7524
11
137.838
21
-54.7483
0
LINE
8
BLACK
6
CONTINUOUS
10
137.838
20
-54.7483
11
137.835
21
-54.744
0
LINE
8
BLACK
6
CONTINUOUS
10
137.835
20
-54.744
11
137.833
21
-54.7395
0
LINE
8
BLACK
6
CONTINUOUS
10
137.833
20
-54.7395
11
137.831
21
-54.7348
0
LINE
8
BLACK
6
CONTINUOUS
10
137.831
20
-54.7348
11
137.83
21
-54.7299
0
LINE
8
BLACK
6
CONTINUOUS
10
137.83
20
-54.7299
11
137.829
21
-54.725
0
LINE
8
BLACK
6
CONTINUOUS
10
137.829
20
-54.725
11
137.829
21
-54.72
0
LINE
8
BLACK
6
CONTINUOUS
10
137.829
20
-54.72
11
137.829
21
-53.88
0
LINE
8
BLACK
6
CONTINUOUS
10
137.829
20
-53.88
11
137.829
21
-53.875
0
LINE
8
BLACK
6
CONTINUOUS
10
137.829
20
-53.875
11
137.83
21
-53.87
0
LINE
8
BLACK
6
CONTINUOUS
10
137.83
20
-53.87
11
137.831
21
-53.8652
0
LINE
8
BLACK
6
CONTINUOUS
10
137.831
20
-53.8652
11
137.833
21
-53.8605
0
LINE
8
BLACK
6
CONTINUOUS
10
137.833
20
-53.8605
11
137.835
21
-53.856
0
LINE
8
BLACK
6
CONTINUOUS
10
137.835
20
-53.856
11
137.838
21
-53.8517
0
LINE
8
BLACK
6
CONTINUOUS
10
137.838
20
-53.8517
11
137.841
21
-53.8476
0
LINE
8
BLACK
6
CONTINUOUS
10
137.841
20
-53.8476
11
137.844
21
-53.8439
0
LINE
8
BLACK
6
CONTINUOUS
10
137.844
20
-53.8439
11
137.848
21
-53.8406
0
LINE
8
BLACK
6
CONTINUOUS
10
137.848
20
-53.8406
11
137.852
21
-53.8376
0
LINE
8
BLACK
6
CONTINUOUS
10
137.852
20
-53.8376
11
137.856
21
-53.835
0
LINE
8
BLACK
6
CONTINUOUS
10
137.856
20
-53.835
11
137.86
21
-53.8329
0
LINE
8
BLACK
6
CONTINUOUS
10
137.86
20
-53.8329
11
137.865
21
-53.8312
0
LINE
8
BLACK
6
CONTINUOUS
10
137.865
20
-53.8312
11
137.87
21
-53.83
0
LINE
8
BLACK
6
CONTINUOUS
10
137.87
20
-53.83
11
137.875
21
-53.8292
0
LINE
8
BLACK
6
CONTINUOUS
10
137.875
20
-53.8292
11
137.88
21
-53.829
0
LINE
8
BLACK
6
CONTINUOUS
10
137.88
20
-53.829
11
138.72
21
-53.829
0
LINE
8
BLACK
6
CONTINUOUS
10
138.72
20
-53.829
11
138.725
21
-53.8292
0
CIRCLE
8
BLACK
10
138.95
20
-53.3
40
0.471
0
CIRCLE
8
BLACK
10
139.6
20
-54.3
40
0.471
0
CIRCLE
8
BLACK
10
140.25
20
-53.3
40
0.471
0
CIRCLE
8
BLACK
10
140.9
20
-54.3
40
0.471
0
LINE
8
BLACK
6
CONTINUOUS
10
135.549
20
-53.58
11
135.549
21
-54.58
0
LINE
8
BLACK
6
CONTINUOUS
10
136.501
20
-53.58
11
136.501
21
-54.58
0
ARC
8
BLACK
10
136.025
20
-54.58
40
0.476
50
180
51
360
0
ARC
8
BLACK
10
136.025
20
-53.58
40
0.476
50
0
51
180
0
LINE
8
BLACK
6
CONTINUOUS
10
142.699
20
-53.58
11
142.699
21
-54.58
0
LINE
8
BLACK
6
CONTINUOUS
10
143.651
20
-53.58
11
143.651
21
-54.58
0
ARC
8
BLACK
10
143.175
20
-54.58
40
0.476
50
180
51
360
0
ARC
8
BLACK
10
143.175
20
-53.58
40
0.476
50
0
51
180
0
LINE
8
BLACK
6
CONTINUOUS
10
180.455
20
-83.1992
11
180.46
21
-83.2
0
LINE
8
BLACK
6
CONTINUOUS
10
180.46
20
-83.2
11
180.465
21
-83.2012
0
LINE
8
BLACK
6
CONTINUOUS
10
180.465
20
-83.2012
11
180.47
21
-83.2029
0
LINE
8
BLACK
6
CONTINUOUS
10
180.47
20
-83.2029
11
180.474
21
-83.205
0
LINE
8
BLACK
6
CONTINUOUS
10
180.474
20
-83.205
11
180.478
21
-83.2076
0
LINE
8
BLACK
6
CONTINUOUS
10
180.478
20
-83.2076
11
180.482
21
-83.2106
0
LINE
8
BLACK
6
CONTINUOUS
10
180.482
20
-83.2106
11
180.486
21
-83.2139
0
LINE
8
BLACK
6
CONTINUOUS
10
180.486
20
-83.2139
11
180.489
21
-83.2176
0
LINE
8
BLACK
6
CONTINUOUS
10
180.489
20
-83.2176
11
180.492
21
-83.2217
0
LINE
8
BLACK
6
CONTINUOUS
10
180.492
20
-83.2217
11
180.495
21
-83.226
0
LINE
8
BLACK
6
CONTINUOUS
10
180.495
20
-83.226
11
180.497
21
-83.2305
0
LINE
8
BLACK
6
CONTINUOUS
10
180.497
20
-83.2305
11
180.499
21
-83.2352
0
LINE
8
BLACK
6
CONTINUOUS
10
180.499
20
-83.2352
11
180.5
21
-83.24
0
LINE
8
BLACK
6
CONTINUOUS
10
180.5
20
-83.24
11
180.501
21
-83.245
0
LINE
8
BLACK
6
CONTINUOUS
10
180.501
20
-83.245
11
180.501
21
-83.25
0
LINE
8
BLACK
6
CONTINUOUS
10
180.501
20
-83.25
11
180.501
21
-84.95
0
LINE
8
BLACK
6
CONTINUOUS
10
180.501
20
-84.95
11
180.501
21
-84.955
0
LINE
8
BLACK
6
CONTINUOUS
10
180.501
20
-84.955
11
180.5
21
-84.9599
0
LINE
8
BLACK
6
CONTINUOUS
10
180.5
20
-84.9599
11
180.499
21
-84.9648
0
LINE
8
BLACK
6
CONTINUOUS
10
180.499
20
-84.9648
11
180.497
21
-84.9695
0
LINE
8
BLACK
6
CONTINUOUS
10
180.497
20
-84.9695
11
180.495
21
-84.974
0
LINE
8
BLACK
6
CONTINUOUS
10
180.495
20
-84.974
11
180.492
21
-84.9783
0
LINE
8
BLACK
6
CONTINUOUS
10
180.492
20
-84.9783
11
180.489
21
-84.9824
0
LINE
8
BLACK
6
CONTINUOUS
10
180.489
20
-84.9824
11
180.486
21
-84.9861
0
LINE
8
BLACK
6
CONTINUOUS
10
180.486
20
-84.9861
11
180.482
21
-84.9894
0
LINE
8
BLACK
6
CONTINUOUS
10
180.482
20
-84.9894
11
180.478
21
-84.9924
0
LINE
8
BLACK
6
CONTINUOUS
10
180.478
20
-84.9924
11
180.474
21
-84.995
0
LINE
8
BLACK
6
CONTINUOUS
10
180.474
20
-84.995
11
180.47
21
-84.9971
0
LINE
8
BLACK
6
CONTINUOUS
10
180.47
20
-84.9971
11
180.465
21
-84.9988
0
LINE
8
BLACK
6
CONTINUOUS
10
180.465
20
-84.9988
11
180.46
21
-85
0
LINE
8
BLACK
6
CONTINUOUS
10
180.46
20
-85
11
180.455
21
-85.0008
0
LINE
8
BLACK
6
CONTINUOUS
10
180.455
20
-85.0008
11
180.45
21
-85.001
0
LINE
8
BLACK
6
CONTINUOUS
10
180.45
20
-85.001
11
178.75
21
-85.001
0
LINE
8
BLACK
6
CONTINUOUS
10
178.75
20
-85.001
11
178.745
21
-85.0008
0
LINE
8
BLACK
6
CONTINUOUS
10
178.745
20
-85.0008
11
178.74
21
-85
0
LINE
8
BLACK
6
CONTINUOUS
10
178.74
20
-85
11
178.735
21
-84.9988
0
LINE
8
BLACK
6
CONTINUOUS
10
178.735
20
-84.9988
11
178.73
21
-84.9971
0
LINE
8
BLACK
6
CONTINUOUS
10
178.73
20
-84.9971
11
178.726
21
-84.995
0
LINE
8
BLACK
6
CONTINUOUS
10
178.726
20
-84.995
11
178.722
21
-84.9924
0
LINE
8
BLACK
6
CONTINUOUS
10
178.722
20
-84.9924
11
178.718
21
-84.9894
0
LINE
8
BLACK
6
CONTINUOUS
10
178.718
20
-84.9894
11
178.714
21
-84.9861
0
LINE
8
BLACK
6
CONTINUOUS
10
178.714
20
-84.9861
11
178.711
21
-84.9824
0
LINE
8
BLACK
6
CONTINUOUS
10
178.711
20
-84.9824
11
178.708
21
-84.9783
0
LINE
8
BLACK
6
CONTINUOUS
10
178.708
20
-84.9783
11
178.705
21
-84.974
0
LINE
8
BLACK
6
CONTINUOUS
10
178.705
20
-84.974
11
178.703
21
-84.9695
0
LINE
8
BLACK
6
CONTINUOUS
10
178.703
20
-84.9695
11
178.701
21
-84.9648
0
LINE
8
BLACK
6
CONTINUOUS
10
178.701
20
-84.9648
11
178.7
21
-84.9599
0
LINE
8
BLACK
6
CONTINUOUS
10
178.7
20
-84.9599
11
178.699
21
-84.955
0
LINE
8
BLACK
6
CONTINUOUS
10
178.699
20
-84.955
11
178.699
21
-84.95
0
LINE
8
BLACK
6
CONTINUOUS
10
178.699
20
-84.95
11
178.699
21
-83.25
0
LINE
8
BLACK
6
CONTINUOUS
10
178.699
20
-83.25
11
178.699
21
-83.245
0
LINE
8
BLACK
6
CONTINUOUS
10
178.699
20
-83.245
11
178.7
21
-83.24
0
LINE
8
BLACK
6
CONTINUOUS
10
178.7
20
-83.24
11
178.701
21
-83.2352
0
LINE
8
BLACK
6
CONTINUOUS
10
178.701
20
-83.2352
11
178.703
21
-83.2305
0
LINE
8
BLACK
6
CONTINUOUS
10
178.703
20
-83.2305
11
178.705
21
-83.226
0
LINE
8
BLACK
6
CONTINUOUS
10
178.705
20
-83.226
11
178.708
21
-83.2217
0
LINE
8
BLACK
6
CONTINUOUS
10
178.708
20
-83.2217
11
178.711
21
-83.2176
0
LINE
8
BLACK
6
CONTINUOUS
10
178.711
20
-83.2176
11
178.714
21
-83.2139
0
LINE
8
BLACK
6
CONTINUOUS
10
178.714
20
-83.2139
11
178.718
21
-83.2106
0
LINE
8
BLACK
6
CONTINUOUS
10
178.718
20
-83.2106
11
178.722
21
-83.2076
0
LINE
8
BLACK
6
CONTINUOUS
10
178.722
20
-83.2076
11
178.726
21
-83.205
0
LINE
8
BLACK
6
CONTINUOUS
10
178.726
20
-83.205
11
178.73
21
-83.2029
0
LINE
8
BLACK
6
CONTINUOUS
10
178.73
20
-83.2029
11
178.735
21
-83.2012
0
LINE
8
BLACK
6
CONTINUOUS
10
178.735
20
-83.2012
11
178.74
21
-83.2
0
LINE
8
BLACK
6
CONTINUOUS
10
178.74
20
-83.2
11
178.745
21
-83.1992
0
LINE
8
BLACK
6
CONTINUOUS
10
178.745
20
-83.1992
11
178.75
21
-83.199
0
LINE
8
BLACK
6
CONTINUOUS
10
178.75
20
-83.199
11
180.45
21
-83.199
0
LINE
8
BLACK
6
CONTINUOUS
10
180.45
20
-83.199
11
180.455
21
-83.1992
0
ARC
8
BLACK
10
179.6
20
-81.56
40
0.901
50
360
51
540
0
ARC
8
BLACK
10
179.6
20
-81.56
40
0.901
50
180
51
360
0
LINE
8
BLACK
6
CONTINUOUS
10
166.655
20
-62.4992
11
166.66
21
-62.5
0
LINE
8
BLACK
6
CONTINUOUS
10
166.66
20
-62.5
11
166.665
21
-62.5012
0
LINE
8
BLACK
6
CONTINUOUS
10
166.665
20
-62.5012
11
166.67
21
-62.5029
0
LINE
8
BLACK
6
CONTINUOUS
10
166.67
20
-62.5029
11
166.674
21
-62.505
0
LINE
8
BLACK
6
CONTINUOUS
10
166.674
20
-62.505
11
166.678
21
-62.5076
0
LINE
8
BLACK
6
CONTINUOUS
10
166.678
20
-62.5076
11
166.682
21
-62.5106
0
LINE
8
BLACK
6
CONTINUOUS
10
166.682
20
-62.5106
11
166.686
21
-62.5139
0
LINE
8
BLACK
6
CONTINUOUS
10
166.686
20
-62.5139
11
166.689
21
-62.5176
0
LINE
8
BLACK
6
CONTINUOUS
10
166.689
20
-62.5176
11
166.692
21
-62.5217
0
LINE
8
BLACK
6
CONTINUOUS
10
166.692
20
-62.5217
11
166.695
21
-62.526
0
LINE
8
BLACK
6
CONTINUOUS
10
166.695
20
-62.526
11
166.697
21
-62.5305
0
LINE
8
BLACK
6
CONTINUOUS
10
166.697
20
-62.5305
11
166.699
21
-62.5352
0
LINE
8
BLACK
6
CONTINUOUS
10
166.699
20
-62.5352
11
166.7
21
-62.54
0
LINE
8
BLACK
6
CONTINUOUS
10
166.7
20
-62.54
11
166.701
21
-62.545
0
LINE
8
BLACK
6
CONTINUOUS
10
166.701
20
-62.545
11
166.701
21
-62.55
0
LINE
8
BLACK
6
CONTINUOUS
10
166.701
20
-62.55
11
166.701
21
-64.25
0
LINE
8
BLACK
6
CONTINUOUS
10
166.701
20
-64.25
11
166.701
21
-64.255
0
LINE
8
BLACK
6
CONTINUOUS
10
166.701
20
-64.255
11
166.7
21
-64.26
0
LINE
8
BLACK
6
CONTINUOUS
10
166.7
20
-64.26
11
166.699
21
-64.2648
0
LINE
8
BLACK
6
CONTINUOUS
10
166.699
20
-64.2648
11
166.697
21
-64.2695
0
LINE
8
BLACK
6
CONTINUOUS
10
166.697
20
-64.2695
11
166.695
21
-64.274
0
LINE
8
BLACK
6
CONTINUOUS
10
166.695
20
-64.274
11
166.692
21
-64.2783
0
LINE
8
BLACK
6
CONTINUOUS
10
166.692
20
-64.2783
11
166.689
21
-64.2824
0
LINE
8
BLACK
6
CONTINUOUS
10
166.689
20
-64.2824
11
166.686
21
-64.2861
0
LINE
8
BLACK
6
CONTINUOUS
10
166.686
20
-64.2861
11
166.682
21
-64.2894
0
LINE
8
BLACK
6
CONTINUOUS
10
166.682
20
-64.2894
11
166.678
21
-64.2924
0
LINE
8
BLACK
6
CONTINUOUS
10
166.678
20
-64.2924
11
166.674
21
-64.295
0
LINE
8
BLACK
6
CONTINUOUS
10
166.674
20
-64.295
11
166.67
21
-64.2971
0
LINE
8
BLACK
6
CONTINUOUS
10
166.67
20
-64.2971
11
166.665
21
-64.2988
0
LINE
8
BLACK
6
CONTINUOUS
10
166.665
20
-64.2988
11
166.66
21
-64.3
0
LINE
8
BLACK
6
CONTINUOUS
10
166.66
20
-64.3
11
166.655
21
-64.3008
0
LINE
8
BLACK
6
CONTINUOUS
10
166.655
20
-64.3008
11
166.65
21
-64.301
0
LINE
8
BLACK
6
CONTINUOUS
10
166.65
20
-64.301
11
164.95
21
-64.301
0
LINE
8
BLACK
6
CONTINUOUS
10
164.95
20
-64.301
11
164.945
21
-64.3008
0
LINE
8
BLACK
6
CONTINUOUS
10
164.945
20
-64.3008
11
164.94
21
-64.3
0
LINE
8
BLACK
6
CONTINUOUS
10
164.94
20
-64.3
11
164.935
21
-64.2988
0
LINE
8
BLACK
6
CONTINUOUS
10
164.935
20
-64.2988
11
164.93
21
-64.2971
0
LINE
8
BLACK
6
CONTINUOUS
10
164.93
20
-64.2971
11
164.926
21
-64.295
0
LINE
8
BLACK
6
CONTINUOUS
10
164.926
20
-64.295
11
164.922
21
-64.2924
0
LINE
8
BLACK
6
CONTINUOUS
10
164.922
20
-64.2924
11
164.918
21
-64.2894
0
LINE
8
BLACK
6
CONTINUOUS
10
164.918
20
-64.2894
11
164.914
21
-64.2861
0
LINE
8
BLACK
6
CONTINUOUS
10
164.914
20
-64.2861
11
164.911
21
-64.2824
0
LINE
8
BLACK
6
CONTINUOUS
10
164.911
20
-64.2824
11
164.908
21
-64.2783
0
LINE
8
BLACK
6
CONTINUOUS
10
164.908
20
-64.2783
11
164.905
21
-64.274
0
LINE
8
BLACK
6
CONTINUOUS
10
164.905
20
-64.274
11
164.903
21
-64.2695
0
LINE
8
BLACK
6
CONTINUOUS
10
164.903
20
-64.2695
11
164.901
21
-64.2648
0
LINE
8
BLACK
6
CONTINUOUS
10
164.901
20
-64.2648
11
164.9
21
-64.26
0
LINE
8
BLACK
6
CONTINUOUS
10
164.9
20
-64.26
11
164.899
21
-64.255
0
LINE
8
BLACK
6
CONTINUOUS
10
164.899
20
-64.255
11
164.899
21
-64.25
0
LINE
8
BLACK
6
CONTINUOUS
10
164.899
20
-64.25
11
164.899
21
-62.55
0
LINE
8
BLACK
6
CONTINUOUS
10
164.899
20
-62.55
11
164.899
21
-62.545
0
LINE
8
BLACK
6
CONTINUOUS
10
164.899
20
-62.545
11
164.9
21
-62.54
0
LINE
8
BLACK
6
CONTINUOUS
10
164.9
20
-62.54
11
164.901
21
-62.5352
0
LINE
8
BLACK
6
CONTINUOUS
10
164.901
20
-62.5352
11
164.903
21
-62.5305
0
LINE
8
BLACK
6
CONTINUOUS
10
164.903
20
-62.5305
11
164.905
21
-62.526
0
LINE
8
BLACK
6
CONTINUOUS
10
164.905
20
-62.526
11
164.908
21
-62.5217
0
LINE
8
BLACK
6
CONTINUOUS
10
164.908
20
-62.5217
11
164.911
21
-62.5176
0
LINE
8
BLACK
6
CONTINUOUS
10
164.911
20
-62.5176
11
164.914
21
-62.5139
0
LINE
8
BLACK
6
CONTINUOUS
10
164.914
20
-62.5139
11
164.918
21
-62.5106
0
LINE
8
BLACK
6
CONTINUOUS
10
164.918
20
-62.5106
11
164.922
21
-62.5076
0
LINE
8
BLACK
6
CONTINUOUS
10
164.922
20
-62.5076
11
164.926
21
-62.505
0
LINE
8
BLACK
6
CONTINUOUS
10
164.926
20
-62.505
11
164.93
21
-62.5029
0
LINE
8
BLACK
6
CONTINUOUS
10
164.93
20
-62.5029
11
164.935
21
-62.5012
0
LINE
8
BLACK
6
CONTINUOUS
10
164.935
20
-62.5012
11
164.94
21
-62.5
0
LINE
8
BLACK
6
CONTINUOUS
10
164.94
20
-62.5
11
164.945
21
-62.4992
0
LINE
8
BLACK
6
CONTINUOUS
10
164.945
20
-62.4992
11
164.95
21
-62.499
0
LINE
8
BLACK
6
CONTINUOUS
10
164.95
20
-62.499
11
166.65
21
-62.499
0
LINE
8
BLACK
6
CONTINUOUS
10
166.65
20
-62.499
11
166.655
21
-62.4992
0
LINE
8
BLACK
6
CONTINUOUS
10
134.805
20
-58.3992
11
134.81
21
-58.4
0
LINE
8
BLACK
6
CONTINUOUS
10
134.81
20
-58.4
11
134.815
21
-58.4012
0
LINE
8
BLACK
6
CONTINUOUS
10
134.815
20
-58.4012
11
134.82
21
-58.4029
0
LINE
8
BLACK
6
CONTINUOUS
10
134.82
20
-58.4029
11
134.824
21
-58.405
0
LINE
8
BLACK
6
CONTINUOUS
10
134.824
20
-58.405
11
134.828
21
-58.4076
0
LINE
8
BLACK
6
CONTINUOUS
10
134.828
20
-58.4076
11
134.832
21
-58.4106
0
LINE
8
BLACK
6
CONTINUOUS
10
134.832
20
-58.4106
11
134.836
21
-58.4139
0
LINE
8
BLACK
6
CONTINUOUS
10
134.836
20
-58.4139
11
134.839
21
-58.4176
0
LINE
8
BLACK
6
CONTINUOUS
10
134.839
20
-58.4176
11
134.842
21
-58.4217
0
LINE
8
BLACK
6
CONTINUOUS
10
134.842
20
-58.4217
11
134.845
21
-58.426
0
LINE
8
BLACK
6
CONTINUOUS
10
134.845
20
-58.426
11
134.847
21
-58.4305
0
LINE
8
BLACK
6
CONTINUOUS
10
134.847
20
-58.4305
11
134.849
21
-58.4352
0
LINE
8
BLACK
6
CONTINUOUS
10
134.849
20
-58.4352
11
134.85
21
-58.44
0
LINE
8
BLACK
6
CONTINUOUS
10
134.85
20
-58.44
11
134.851
21
-58.445
0
LINE
8
BLACK
6
CONTINUOUS
10
134.851
20
-58.445
11
134.851
21
-58.45
0
LINE
8
BLACK
6
CONTINUOUS
10
134.851
20
-58.45
11
134.851
21
-60.05
0
LINE
8
BLACK
6
CONTINUOUS
10
134.851
20
-60.05
11
134.851
21
-60.055
0
LINE
8
BLACK
6
CONTINUOUS
10
134.851
20
-60.055
11
134.85
21
-60.06
0
LINE
8
BLACK
6
CONTINUOUS
10
134.85
20
-60.06
11
134.849
21
-60.0648
0
LINE
8
BLACK
6
CONTINUOUS
10
134.849
20
-60.0648
11
134.847
21
-60.0695
0
LINE
8
BLACK
6
CONTINUOUS
10
134.847
20
-60.0695
11
134.845
21
-60.074
0
LINE
8
BLACK
6
CONTINUOUS
10
134.845
20
-60.074
11
134.842
21
-60.0783
0
LINE
8
BLACK
6
CONTINUOUS
10
134.842
20
-60.0783
11
134.839
21
-60.0824
0
LINE
8
BLACK
6
CONTINUOUS
10
134.839
20
-60.0824
11
134.836
21
-60.0861
0
LINE
8
BLACK
6
CONTINUOUS
10
134.836
20
-60.0861
11
134.832
21
-60.0894
0
LINE
8
BLACK
6
CONTINUOUS
10
134.832
20
-60.0894
11
134.828
21
-60.0924
0
LINE
8
BLACK
6
CONTINUOUS
10
134.828
20
-60.0924
11
134.824
21
-60.095
0
LINE
8
BLACK
6
CONTINUOUS
10
134.824
20
-60.095
11
134.82
21
-60.0971
0
LINE
8
BLACK
6
CONTINUOUS
10
134.82
20
-60.0971
11
134.815
21
-60.0988
0
LINE
8
BLACK
6
CONTINUOUS
10
134.815
20
-60.0988
11
134.81
21
-60.1
0
LINE
8
BLACK
6
CONTINUOUS
10
134.81
20
-60.1
11
134.805
21
-60.1008
0
LINE
8
BLACK
6
CONTINUOUS
10
134.805
20
-60.1008
11
134.8
21
-60.101
0
LINE
8
BLACK
6
CONTINUOUS
10
134.8
20
-60.101
11
133.2
21
-60.101
0
LINE
8
BLACK
6
CONTINUOUS
10
133.2
20
-60.101
11
133.195
21
-60.1008
0
LINE
8
BLACK
6
CONTINUOUS
10
133.195
20
-60.1008
11
133.19
21
-60.1
0
LINE
8
BLACK
6
CONTINUOUS
10
133.19
20
-60.1
11
133.185
21
-60.0988
0
LINE
8
BLACK
6
CONTINUOUS
10
133.185
20
-60.0988
11
133.18
21
-60.0971
0
LINE
8
BLACK
6
CONTINUOUS
10
133.18
20
-60.0971
11
133.176
21
-60.095
0
LINE
8
BLACK
6
CONTINUOUS
10
133.176
20
-60.095
11
133.172
21
-60.0924
0
LINE
8
BLACK
6
CONTINUOUS
10
133.172
20
-60.0924
11
133.168
21
-60.0894
0
LINE
8
BLACK
6
CONTINUOUS
10
133.168
20
-60.0894
11
133.164
21
-60.0861
0
LINE
8
BLACK
6
CONTINUOUS
10
133.164
20
-60.0861
11
133.161
21
-60.0824
0
LINE
8
BLACK
6
CONTINUOUS
10
133.161
20
-60.0824
11
133.158
21
-60.0783
0
LINE
8
BLACK
6
CONTINUOUS
10
133.158
20
-60.0783
11
133.155
21
-60.074
0
LINE
8
BLACK
6
CONTINUOUS
10
133.155
20
-60.074
11
133.153
21
-60.0695
0
LINE
8
BLACK
6
CONTINUOUS
10
133.153
20
-60.0695
11
133.151
21
-60.0648
0
LINE
8
BLACK
6
CONTINUOUS
10
133.151
20
-60.0648
11
133.15
21
-60.06
0
LINE
8
BLACK
6
CONTINUOUS
10
133.15
20
-60.06
11
133.149
21
-60.055
0
LINE
8
BLACK
6
CONTINUOUS
10
133.149
20
-60.055
11
133.149
21
-60.05
0
LINE
8
BLACK
6
CONTINUOUS
10
133.149
20
-60.05
11
133.149
21
-58.45
0
LINE
8
BLACK
6
CONTINUOUS
10
133.149
20
-58.45
11
133.149
21
-58.445
0
LINE
8
BLACK
6
CONTINUOUS
10
133.149
20
-58.445
11
133.15
21
-58.44
0
LINE
8
BLACK
6
CONTINUOUS
10
133.15
20
-58.44
11
133.151
21
-58.4352
0
LINE
8
BLACK
6
CONTINUOUS
10
133.151
20
-58.4352
11
133.153
21
-58.4305
0
LINE
8
BLACK
6
CONTINUOUS
10
133.153
20
-58.4305
11
133.155
21
-58.426
0
LINE
8
BLACK
6
CONTINUOUS
10
133.155
20
-58.426
11
133.158
21
-58.4217
0
LINE
8
BLACK
6
CONTINUOUS
10
133.158
20
-58.4217
11
133.161
21
-58.4176
0
LINE
8
BLACK
6
CONTINUOUS
10
133.161
20
-58.4176
11
133.164
21
-58.4139
0
LINE
8
BLACK
6
CONTINUOUS
10
133.164
20
-58.4139
11
133.168
21
-58.4106
0
LINE
8
BLACK
6
CONTINUOUS
10
133.168
20
-58.4106
11
133.172
21
-58.4076
0
LINE
8
BLACK
6
CONTINUOUS
10
133.172
20
-58.4076
11
133.176
21
-58.405
0
LINE
8
BLACK
6
CONTINUOUS
10
133.176
20
-58.405
11
133.18
21
-58.4029
0
LINE
8
BLACK
6
CONTINUOUS
10
133.18
20
-58.4029
11
133.185
21
-58.4012
0
LINE
8
BLACK
6
CONTINUOUS
10
133.185
20
-58.4012
11
133.19
21
-58.4
0
LINE
8
BLACK
6
CONTINUOUS
10
133.19
20
-58.4
11
133.195
21
-58.3992
0
LINE
8
BLACK
6
CONTINUOUS
10
133.195
20
-58.3992
11
133.2
21
-58.399
0
LINE
8
BLACK
6
CONTINUOUS
10
133.2
20
-58.399
11
134.8
21
-58.399
0
LINE
8
BLACK
6
CONTINUOUS
10
134.8
20
-58.399
11
134.805
21
-58.3992
0
CIRCLE
8
BLACK
10
134
20
-61.75
40
0.851
0
CIRCLE
8
BLACK
10
150.8
20
-79.2
40
0.551
0
CIRCLE
8
BLACK
10
176.8
20
-104.3
40
0.551
0
CIRCLE
8
BLACK
10
176.8
20
-102.2
40
0.551
0
CIRCLE
8
BLACK
10
176.8
20
-100.1
40
0.551
0
CIRCLE
8
BLACK
10
176.8
20
-98
40
0.551
0
CIRCLE
8
BLACK
10
179.6
20
-90.9
40
0.551
0
CIRCLE
8
BLACK
10
150.8
20
-74.3
40
0.551
0
CIRCLE
8
BLACK
10
176.8
20
-95.9
40
0.551
0
LINE
8
BLACK
6
CONTINUOUS
10
127.628
20
-107.4
11
127.654
21
-107.404
0
LINE
8
BLACK
6
CONTINUOUS
10
127.654
20
-107.404
11
127.68
21
-107.411
0
LINE
8
BLACK
6
CONTINUOUS
10
127.68
20
-107.411
11
127.706
21
-107.42
0
LINE
8
BLACK
6
CONTINUOUS
10
127.706
20
-107.42
11
127.73
21
-107.432
0
LINE
8
BLACK
6
CONTINUOUS
10
127.73
20
-107.432
11
127.754
21
-107.445
0
LINE
8
BLACK
6
CONTINUOUS
10
127.754
20
-107.445
11
127.775
21
-107.462
0
LINE
8
BLACK
6
CONTINUOUS
10
127.775
20
-107.462
11
127.795
21
-107.48
0
LINE
8
BLACK
6
CONTINUOUS
10
127.795
20
-107.48
11
127.813
21
-107.5
0
LINE
8
BLACK
6
CONTINUOUS
10
127.813
20
-107.5
11
127.83
21
-107.521
0
LINE
8
BLACK
6
CONTINUOUS
10
127.83
20
-107.521
11
127.843
21
-107.545
0
LINE
8
BLACK
6
CONTINUOUS
10
127.843
20
-107.545
11
127.855
21
-107.569
0
LINE
8
BLACK
6
CONTINUOUS
10
127.855
20
-107.569
11
127.864
21
-107.595
0
LINE
8
BLACK
6
CONTINUOUS
10
127.864
20
-107.595
11
127.871
21
-107.621
0
LINE
8
BLACK
6
CONTINUOUS
10
127.871
20
-107.621
11
127.875
21
-107.647
0
LINE
8
BLACK
6
CONTINUOUS
10
127.875
20
-107.647
11
127.876
21
-107.674
0
LINE
8
BLACK
6
CONTINUOUS
10
127.876
20
-107.674
11
127.876
21
-108.225
0
LINE
8
BLACK
6
CONTINUOUS
10
127.876
20
-108.225
11
127.875
21
-108.253
0
LINE
8
BLACK
6
CONTINUOUS
10
127.875
20
-108.253
11
127.871
21
-108.279
0
LINE
8
BLACK
6
CONTINUOUS
10
127.871
20
-108.279
11
127.864
21
-108.305
0
LINE
8
BLACK
6
CONTINUOUS
10
127.864
20
-108.305
11
127.855
21
-108.331
0
LINE
8
BLACK
6
CONTINUOUS
10
127.855
20
-108.331
11
127.843
21
-108.355
0
LINE
8
BLACK
6
CONTINUOUS
10
127.843
20
-108.355
11
127.83
21
-108.379
0
LINE
8
BLACK
6
CONTINUOUS
10
127.83
20
-108.379
11
127.813
21
-108.4
0
LINE
8
BLACK
6
CONTINUOUS
10
127.813
20
-108.4
11
127.795
21
-108.42
0
LINE
8
BLACK
6
CONTINUOUS
10
127.795
20
-108.42
11
127.775
21
-108.438
0
LINE
8
BLACK
6
CONTINUOUS
10
127.775
20
-108.438
11
127.754
21
-108.455
0
LINE
8
BLACK
6
CONTINUOUS
10
127.754
20
-108.455
11
127.73
21
-108.468
0
LINE
8
BLACK
6
CONTINUOUS
10
127.73
20
-108.468
11
127.706
21
-108.48
0
LINE
8
BLACK
6
CONTINUOUS
10
127.706
20
-108.48
11
127.68
21
-108.489
0
LINE
8
BLACK
6
CONTINUOUS
10
127.68
20
-108.489
11
127.654
21
-108.496
0
LINE
8
BLACK
6
CONTINUOUS
10
127.654
20
-108.496
11
127.628
21
-108.5
0
LINE
8
BLACK
6
CONTINUOUS
10
127.628
20
-108.5
11
127.6
21
-108.501
0
LINE
8
BLACK
6
CONTINUOUS
10
127.6
20
-108.501
11
126.599
21
-108.501
0
LINE
8
BLACK
6
CONTINUOUS
10
126.599
20
-108.501
11
126.572
21
-108.5
0
LINE
8
BLACK
6
CONTINUOUS
10
126.572
20
-108.5
11
126.546
21
-108.496
0
LINE
8
BLACK
6
CONTINUOUS
10
126.546
20
-108.496
11
126.52
21
-108.489
0
LINE
8
BLACK
6
CONTINUOUS
10
126.52
20
-108.489
11
126.494
21
-108.48
0
LINE
8
BLACK
6
CONTINUOUS
10
126.494
20
-108.48
11
126.47
21
-108.468
0
LINE
8
BLACK
6
CONTINUOUS
10
126.47
20
-108.468
11
126.446
21
-108.455
0
LINE
8
BLACK
6
CONTINUOUS
10
126.446
20
-108.455
11
126.425
21
-108.438
0
LINE
8
BLACK
6
CONTINUOUS
10
126.425
20
-108.438
11
126.405
21
-108.42
0
LINE
8
BLACK
6
CONTINUOUS
10
126.405
20
-108.42
11
126.387
21
-108.4
0
LINE
8
BLACK
6
CONTINUOUS
10
126.387
20
-108.4
11
126.37
21
-108.379
0
LINE
8
BLACK
6
CONTINUOUS
10
126.37
20
-108.379
11
126.357
21
-108.355
0
LINE
8
BLACK
6
CONTINUOUS
10
126.357
20
-108.355
11
126.345
21
-108.331
0
LINE
8
BLACK
6
CONTINUOUS
10
126.345
20
-108.331
11
126.336
21
-108.305
0
LINE
8
BLACK
6
CONTINUOUS
10
126.336
20
-108.305
11
126.329
21
-108.279
0
LINE
8
BLACK
6
CONTINUOUS
10
126.329
20
-108.279
11
126.325
21
-108.253
0
LINE
8
BLACK
6
CONTINUOUS
10
126.325
20
-108.253
11
126.324
21
-108.225
0
LINE
8
BLACK
6
CONTINUOUS
10
126.324
20
-108.225
11
126.324
21
-107.674
0
LINE
8
BLACK
6
CONTINUOUS
10
126.324
20
-107.674
11
126.325
21
-107.647
0
LINE
8
BLACK
6
CONTINUOUS
10
126.325
20
-107.647
11
126.329
21
-107.621
0
LINE
8
BLACK
6
CONTINUOUS
10
126.329
20
-107.621
11
126.336
21
-107.595
0
LINE
8
BLACK
6
CONTINUOUS
10
126.336
20
-107.595
11
126.345
21
-107.569
0
LINE
8
BLACK
6
CONTINUOUS
10
126.345
20
-107.569
11
126.357
21
-107.545
0
LINE
8
BLACK
6
CONTINUOUS
10
126.357
20
-107.545
11
126.37
21
-107.521
0
LINE
8
BLACK
6
CONTINUOUS
10
126.37
20
-107.521
11
126.387
21
-107.5
0
LINE
8
BLACK
6
CONTINUOUS
10
126.387
20
-107.5
11
126.405
21
-107.48
0
LINE
8
BLACK
6
CONTINUOUS
10
126.405
20
-107.48
11
126.425
21
-107.462
0
LINE
8
BLACK
6
CONTINUOUS
10
126.425
20
-107.462
11
126.446
21
-107.445
0
LINE
8
BLACK
6
CONTINUOUS
10
126.446
20
-107.445
11
126.47
21
-107.432
0
LINE
8
BLACK
6
CONTINUOUS
10
126.47
20
-107.432
11
126.494
21
-107.42
0
LINE
8
BLACK
6
CONTINUOUS
10
126.494
20
-107.42
11
126.52
21
-107.411
0
LINE
8
BLACK
6
CONTINUOUS
10
126.52
20
-107.411
11
126.546
21
-107.404
0
LINE
8
BLACK
6
CONTINUOUS
10
126.546
20
-107.404
11
126.572
21
-107.4
0
LINE
8
BLACK
6
CONTINUOUS
10
126.572
20
-107.4
11
126.599
21
-107.399
0
LINE
8
BLACK
6
CONTINUOUS
10
126.599
20
-107.399
11
127.6
21
-107.399
0
LINE
8
BLACK
6
CONTINUOUS
10
127.6
20
-107.399
11
127.628
21
-107.4
0
LINE
8
BLACK
6
CONTINUOUS
10
127.628
20
-109.3
11
127.654
21
-109.304
0
LINE
8
BLACK
6
CONTINUOUS
10
127.654
20
-109.304
11
127.68
21
-109.311
0
LINE
8
BLACK
6
CONTINUOUS
10
127.68
20
-109.311
11
127.706
21
-109.32
0
LINE
8
BLACK
6
CONTINUOUS
10
127.706
20
-109.32
11
127.73
21
-109.332
0
LINE
8
BLACK
6
CONTINUOUS
10
127.73
20
-109.332
11
127.754
21
-109.345
0
LINE
8
BLACK
6
CONTINUOUS
10
127.754
20
-109.345
11
127.775
21
-109.362
0
LINE
8
BLACK
6
CONTINUOUS
10
127.775
20
-109.362
11
127.795
21
-109.38
0
LINE
8
BLACK
6
CONTINUOUS
10
127.795
20
-109.38
11
127.813
21
-109.4
0
LINE
8
BLACK
6
CONTINUOUS
10
127.813
20
-109.4
11
127.83
21
-109.421
0
LINE
8
BLACK
6
CONTINUOUS
10
127.83
20
-109.421
11
127.843
21
-109.445
0
LINE
8
BLACK
6
CONTINUOUS
10
127.843
20
-109.445
11
127.855
21
-109.469
0
LINE
8
BLACK
6
CONTINUOUS
10
127.855
20
-109.469
11
127.864
21
-109.495
0
LINE
8
BLACK
6
CONTINUOUS
10
127.864
20
-109.495
11
127.871
21
-109.521
0
LINE
8
BLACK
6
CONTINUOUS
10
127.871
20
-109.521
11
127.875
21
-109.547
0
LINE
8
BLACK
6
CONTINUOUS
10
127.875
20
-109.547
11
127.876
21
-109.575
0
LINE
8
BLACK
6
CONTINUOUS
10
127.876
20
-109.575
11
127.876
21
-110.125
0
LINE
8
BLACK
6
CONTINUOUS
10
127.876
20
-110.125
11
127.875
21
-110.153
0
LINE
8
BLACK
6
CONTINUOUS
10
127.875
20
-110.153
11
127.871
21
-110.179
0
LINE
8
BLACK
6
CONTINUOUS
10
127.871
20
-110.179
11
127.864
21
-110.205
0
LINE
8
BLACK
6
CONTINUOUS
10
127.864
20
-110.205
11
127.855
21
-110.231
0
LINE
8
BLACK
6
CONTINUOUS
10
127.855
20
-110.231
11
127.843
21
-110.255
0
LINE
8
BLACK
6
CONTINUOUS
10
127.843
20
-110.255
11
127.83
21
-110.279
0
LINE
8
BLACK
6
CONTINUOUS
10
127.83
20
-110.279
11
127.813
21
-110.3
0
LINE
8
BLACK
6
CONTINUOUS
10
127.813
20
-110.3
11
127.795
21
-110.32
0
LINE
8
BLACK
6
CONTINUOUS
10
127.795
20
-110.32
11
127.775
21
-110.338
0
LINE
8
BLACK
6
CONTINUOUS
10
127.775
20
-110.338
11
127.754
21
-110.355
0
LINE
8
BLACK
6
CONTINUOUS
10
127.754
20
-110.355
11
127.73
21
-110.368
0
LINE
8
BLACK
6
CONTINUOUS
10
127.73
20
-110.368
11
127.706
21
-110.38
0
LINE
8
BLACK
6
CONTINUOUS
10
127.706
20
-110.38
11
127.68
21
-110.389
0
LINE
8
BLACK
6
CONTINUOUS
10
127.68
20
-110.389
11
127.654
21
-110.396
0
LINE
8
BLACK
6
CONTINUOUS
10
127.654
20
-110.396
11
127.628
21
-110.4
0
LINE
8
BLACK
6
CONTINUOUS
10
127.628
20
-110.4
11
127.6
21
-110.401
0
LINE
8
BLACK
6
CONTINUOUS
10
127.6
20
-110.401
11
126.599
21
-110.401
0
LINE
8
BLACK
6
CONTINUOUS
10
126.599
20
-110.401
11
126.572
21
-110.4
0
LINE
8
BLACK
6
CONTINUOUS
10
126.572
20
-110.4
11
126.546
21
-110.396
0
LINE
8
BLACK
6
CONTINUOUS
10
126.546
20
-110.396
11
126.52
21
-110.389
0
LINE
8
BLACK
6
CONTINUOUS
10
126.52
20
-110.389
11
126.494
21
-110.38
0
LINE
8
BLACK
6
CONTINUOUS
10
126.494
20
-110.38
11
126.47
21
-110.368
0
LINE
8
BLACK
6
CONTINUOUS
10
126.47
20
-110.368
11
126.446
21
-110.355
0
LINE
8
BLACK
6
CONTINUOUS
10
126.446
20
-110.355
11
126.425
21
-110.338
0
LINE
8
BLACK
6
CONTINUOUS
10
126.425
20
-110.338
11
126.405
21
-110.32
0
LINE
8
BLACK
6
CONTINUOUS
10
126.405
20
-110.32
11
126.387
21
-110.3
0
LINE
8
BLACK
6
CONTINUOUS
10
126.387
20
-110.3
11
126.37
21
-110.279
0
LINE
8
BLACK
6
CONTINUOUS
10
126.37
20
-110.279
11
126.357
21
-110.255
0
LINE
8
BLACK
6
CONTINUOUS
10
126.357
20
-110.255
11
126.345
21
-110.231
0
LINE
8
BLACK
6
CONTINUOUS
10
126.345
20
-110.231
11
126.336
21
-110.205
0
LINE
8
BLACK
6
CONTINUOUS
10
126.336
20
-110.205
11
126.329
21
-110.179
0
LINE
8
BLACK
6
CONTINUOUS
10
126.329
20
-110.179
11
126.325
21
-110.153
0
LINE
8
BLACK
6
CONTINUOUS
10
126.325
20
-110.153
11
126.324
21
-110.125
0
LINE
8
BLACK
6
CONTINUOUS
10
126.324
20
-110.125
11
126.324
21
-109.575
0
LINE
8
BLACK
6
CONTINUOUS
10
126.324
20
-109.575
11
126.325
21
-109.547
0
LINE
8
BLACK
6
CONTINUOUS
10
126.325
20
-109.547
11
126.329
21
-109.521
0
LINE
8
BLACK
6
CONTINUOUS
10
126.329
20
-109.521
11
126.336
21
-109.495
0
LINE
8
BLACK
6
CONTINUOUS
10
126.336
20
-109.495
11
126.345
21
-109.469
0
LINE
8
BLACK
6
CONTINUOUS
10
126.345
20
-109.469
11
126.357
21
-109.445
0
LINE
8
BLACK
6
CONTINUOUS
10
126.357
20
-109.445
11
126.37
21
-109.421
0
LINE
8
BLACK
6
CONTINUOUS
10
126.37
20
-109.421
11
126.387
21
-109.4
0
LINE
8
BLACK
6
CONTINUOUS
10
126.387
20
-109.4
11
126.405
21
-109.38
0
LINE
8
BLACK
6
CONTINUOUS
10
126.405
20
-109.38
11
126.425
21
-109.362
0
LINE
8
BLACK
6
CONTINUOUS
10
126.425
20
-109.362
11
126.446
21
-109.345
0
LINE
8
BLACK
6
CONTINUOUS
10
126.446
20
-109.345
11
126.47
21
-109.332
0
LINE
8
BLACK
6
CONTINUOUS
10
126.47
20
-109.332
11
126.494
21
-109.32
0
LINE
8
BLACK
6
CONTINUOUS
10
126.494
20
-109.32
11
126.52
21
-109.311
0
LINE
8
BLACK
6
CONTINUOUS
10
126.52
20
-109.311
11
126.546
21
-109.304
0
LINE
8
BLACK
6
CONTINUOUS
10
126.546
20
-109.304
11
126.572
21
-109.3
0
LINE
8
BLACK
6
CONTINUOUS
10
126.572
20
-109.3
11
126.599
21
-109.299
0
LINE
8
BLACK
6
CONTINUOUS
10
126.599
20
-109.299
11
127.6
21
-109.299
0
LINE
8
BLACK
6
CONTINUOUS
10
127.6
20
-109.299
11
127.628
21
-109.3
0
LINE
8
BLACK
6
CONTINUOUS
10
126.915
20
-123.154
11
126.92
21
-123.155
0
LINE
8
BLACK
6
CONTINUOUS
10
126.92
20
-123.155
11
126.925
21
-123.156
0
LINE
8
BLACK
6
CONTINUOUS
10
126.925
20
-123.156
11
126.93
21
-123.158
0
LINE
8
BLACK
6
CONTINUOUS
10
126.93
20
-123.158
11
126.934
21
-123.16
0
LINE
8
BLACK
6
CONTINUOUS
10
126.934
20
-123.16
11
126.938
21
-123.163
0
LINE
8
BLACK
6
CONTINUOUS
10
126.938
20
-123.163
11
126.942
21
-123.166
0
LINE
8
BLACK
6
CONTINUOUS
10
126.942
20
-123.166
11
126.946
21
-123.169
0
LINE
8
BLACK
6
CONTINUOUS
10
126.946
20
-123.169
11
126.949
21
-123.173
0
LINE
8
BLACK
6
CONTINUOUS
10
126.949
20
-123.173
11
126.952
21
-123.177
0
LINE
8
BLACK
6
CONTINUOUS
10
126.952
20
-123.177
11
126.955
21
-123.181
0
LINE
8
BLACK
6
CONTINUOUS
10
126.955
20
-123.181
11
126.957
21
-123.185
0
LINE
8
BLACK
6
CONTINUOUS
10
126.957
20
-123.185
11
126.959
21
-123.19
0
LINE
8
BLACK
6
CONTINUOUS
10
126.959
20
-123.19
11
126.96
21
-123.195
0
LINE
8
BLACK
6
CONTINUOUS
10
126.96
20
-123.195
11
126.961
21
-123.2
0
LINE
8
BLACK
6
CONTINUOUS
10
126.961
20
-123.2
11
126.961
21
-123.205
0
LINE
8
BLACK
6
CONTINUOUS
10
126.961
20
-123.205
11
126.961
21
-125.405
0
LINE
8
BLACK
6
CONTINUOUS
10
126.961
20
-125.405
11
126.961
21
-125.41
0
LINE
8
BLACK
6
CONTINUOUS
10
126.961
20
-125.41
11
126.96
21
-125.415
0
LINE
8
BLACK
6
CONTINUOUS
10
126.96
20
-125.415
11
126.959
21
-125.42
0
LINE
8
BLACK
6
CONTINUOUS
10
126.959
20
-125.42
11
126.957
21
-125.425
0
LINE
8
BLACK
6
CONTINUOUS
10
126.957
20
-125.425
11
126.955
21
-125.429
0
LINE
8
BLACK
6
CONTINUOUS
10
126.955
20
-125.429
11
126.952
21
-125.433
0
LINE
8
BLACK
6
CONTINUOUS
10
126.952
20
-125.433
11
126.949
21
-125.437
0
LINE
8
BLACK
6
CONTINUOUS
10
126.949
20
-125.437
11
126.946
21
-125.441
0
LINE
8
BLACK
6
CONTINUOUS
10
126.946
20
-125.441
11
126.942
21
-125.444
0
LINE
8
BLACK
6
CONTINUOUS
10
126.942
20
-125.444
11
126.938
21
-125.447
0
LINE
8
BLACK
6
CONTINUOUS
10
126.938
20
-125.447
11
126.934
21
-125.45
0
LINE
8
BLACK
6
CONTINUOUS
10
126.934
20
-125.45
11
126.93
21
-125.452
0
LINE
8
BLACK
6
CONTINUOUS
10
126.93
20
-125.452
11
126.925
21
-125.454
0
LINE
8
BLACK
6
CONTINUOUS
10
126.925
20
-125.454
11
126.92
21
-125.455
0
LINE
8
BLACK
6
CONTINUOUS
10
126.92
20
-125.455
11
126.915
21
-125.456
0
LINE
8
BLACK
6
CONTINUOUS
10
126.915
20
-125.456
11
126.91
21
-125.456
0
LINE
8
BLACK
6
CONTINUOUS
10
126.91
20
-125.456
11
125.86
21
-125.456
0
LINE
8
BLACK
6
CONTINUOUS
10
125.86
20
-125.456
11
125.855
21
-125.456
0
LINE
8
BLACK
6
CONTINUOUS
10
125.855
20
-125.456
11
125.85
21
-125.455
0
LINE
8
BLACK
6
CONTINUOUS
10
125.85
20
-125.455
11
125.845
21
-125.454
0
LINE
8
BLACK
6
CONTINUOUS
10
125.845
20
-125.454
11
125.84
21
-125.452
0
LINE
8
BLACK
6
CONTINUOUS
10
125.84
20
-125.452
11
125.836
21
-125.45
0
LINE
8
BLACK
6
CONTINUOUS
10
125.836
20
-125.45
11
125.832
21
-125.447
0
LINE
8
BLACK
6
CONTINUOUS
10
125.832
20
-125.447
11
125.828
21
-125.444
0
LINE
8
BLACK
6
CONTINUOUS
10
125.828
20
-125.444
11
125.824
21
-125.441
0
LINE
8
BLACK
6
CONTINUOUS
10
125.824
20
-125.441
11
125.821
21
-125.437
0
LINE
8
BLACK
6
CONTINUOUS
10
125.821
20
-125.437
11
125.818
21
-125.433
0
LINE
8
BLACK
6
CONTINUOUS
10
125.818
20
-125.433
11
125.815
21
-125.429
0
LINE
8
BLACK
6
CONTINUOUS
10
125.815
20
-125.429
11
125.813
21
-125.425
0
LINE
8
BLACK
6
CONTINUOUS
10
125.813
20
-125.425
11
125.811
21
-125.42
0
LINE
8
BLACK
6
CONTINUOUS
10
125.811
20
-125.42
11
125.81
21
-125.415
0
LINE
8
BLACK
6
CONTINUOUS
10
125.81
20
-125.415
11
125.809
21
-125.41
0
LINE
8
BLACK
6
CONTINUOUS
10
125.809
20
-125.41
11
125.809
21
-125.405
0
LINE
8
BLACK
6
CONTINUOUS
10
125.809
20
-125.405
11
125.809
21
-123.205
0
LINE
8
BLACK
6
CONTINUOUS
10
125.809
20
-123.205
11
125.809
21
-123.2
0
LINE
8
BLACK
6
CONTINUOUS
10
125.809
20
-123.2
11
125.81
21
-123.195
0
LINE
8
BLACK
6
CONTINUOUS
10
125.81
20
-123.195
11
125.811
21
-123.19
0
LINE
8
BLACK
6
CONTINUOUS
10
125.811
20
-123.19
11
125.813
21
-123.185
0
LINE
8
BLACK
6
CONTINUOUS
10
125.813
20
-123.185
11
125.815
21
-123.181
0
LINE
8
BLACK
6
CONTINUOUS
10
125.815
20
-123.181
11
125.818
21
-123.177
0
LINE
8
BLACK
6
CONTINUOUS
10
125.818
20
-123.177
11
125.821
21
-123.173
0
LINE
8
BLACK
6
CONTINUOUS
10
125.821
20
-123.173
11
125.824
21
-123.169
0
LINE
8
BLACK
6
CONTINUOUS
10
125.824
20
-123.169
11
125.828
21
-123.166
0
LINE
8
BLACK
6
CONTINUOUS
10
125.828
20
-123.166
11
125.832
21
-123.163
0
LINE
8
BLACK
6
CONTINUOUS
10
125.832
20
-123.163
11
125.836
21
-123.16
0
LINE
8
BLACK
6
CONTINUOUS
10
125.836
20
-123.16
11
125.84
21
-123.158
0
LINE
8
BLACK
6
CONTINUOUS
10
125.84
20
-123.158
11
125.845
21
-123.156
0
LINE
8
BLACK
6
CONTINUOUS
10
125.845
20
-123.156
11
125.85
21
-123.155
0
LINE
8
BLACK
6
CONTINUOUS
10
125.85
20
-123.155
11
125.855
21
-123.154
0
LINE
8
BLACK
6
CONTINUOUS
10
125.855
20
-123.154
11
125.86
21
-123.154
0
LINE
8
BLACK
6
CONTINUOUS
10
125.86
20
-123.154
11
126.91
21
-123.154
0
LINE
8
BLACK
6
CONTINUOUS
10
126.91
20
-123.154
11
126.915
21
-123.154
0
LINE
8
BLACK
6
CONTINUOUS
10
128.365
20
-125.254
11
128.37
21
-125.255
0
LINE
8
BLACK
6
CONTINUOUS
10
128.37
20
-125.255
11
128.375
21
-125.256
0
LINE
8
BLACK
6
CONTINUOUS
10
128.375
20
-125.256
11
128.38
21
-125.258
0
LINE
8
BLACK
6
CONTINUOUS
10
128.38
20
-125.258
11
128.384
21
-125.26
0
LINE
8
BLACK
6
CONTINUOUS
10
128.384
20
-125.26
11
128.388
21
-125.263
0
LINE
8
BLACK
6
CONTINUOUS
10
128.388
20
-125.263
11
128.392
21
-125.266
0
LINE
8
BLACK
6
CONTINUOUS
10
128.392
20
-125.266
11
128.396
21
-125.269
0
LINE
8
BLACK
6
CONTINUOUS
10
128.396
20
-125.269
11
128.399
21
-125.273
0
LINE
8
BLACK
6
CONTINUOUS
10
128.399
20
-125.273
11
128.402
21
-125.277
0
LINE
8
BLACK
6
CONTINUOUS
10
128.402
20
-125.277
11
128.405
21
-125.281
0
LINE
8
BLACK
6
CONTINUOUS
10
128.405
20
-125.281
11
128.407
21
-125.285
0
LINE
8
BLACK
6
CONTINUOUS
10
128.407
20
-125.285
11
128.409
21
-125.29
0
LINE
8
BLACK
6
CONTINUOUS
10
128.409
20
-125.29
11
128.41
21
-125.295
0
LINE
8
BLACK
6
CONTINUOUS
10
128.41
20
-125.295
11
128.411
21
-125.3
0
LINE
8
BLACK
6
CONTINUOUS
10
128.411
20
-125.3
11
128.411
21
-125.305
0
LINE
8
BLACK
6
CONTINUOUS
10
128.411
20
-125.305
11
128.411
21
-126.355
0
LINE
8
BLACK
6
CONTINUOUS
10
128.411
20
-126.355
11
128.411
21
-126.36
0
LINE
8
BLACK
6
CONTINUOUS
10
128.411
20
-126.36
11
128.41
21
-126.365
0
LINE
8
BLACK
6
CONTINUOUS
10
128.41
20
-126.365
11
128.409
21
-126.37
0
LINE
8
BLACK
6
CONTINUOUS
10
128.409
20
-126.37
11
128.407
21
-126.375
0
LINE
8
BLACK
6
CONTINUOUS
10
128.407
20
-126.375
11
128.405
21
-126.379
0
LINE
8
BLACK
6
CONTINUOUS
10
128.405
20
-126.379
11
128.402
21
-126.383
0
LINE
8
BLACK
6
CONTINUOUS
10
128.402
20
-126.383
11
128.399
21
-126.387
0
LINE
8
BLACK
6
CONTINUOUS
10
128.399
20
-126.387
11
128.396
21
-126.391
0
LINE
8
BLACK
6
CONTINUOUS
10
128.396
20
-126.391
11
128.392
21
-126.394
0
LINE
8
BLACK
6
CONTINUOUS
10
128.392
20
-126.394
11
128.388
21
-126.397
0
LINE
8
BLACK
6
CONTINUOUS
10
128.388
20
-126.397
11
128.384
21
-126.4
0
LINE
8
BLACK
6
CONTINUOUS
10
128.384
20
-126.4
11
128.38
21
-126.402
0
LINE
8
BLACK
6
CONTINUOUS
10
128.38
20
-126.402
11
128.375
21
-126.404
0
LINE
8
BLACK
6
CONTINUOUS
10
128.375
20
-126.404
11
128.37
21
-126.405
0
LINE
8
BLACK
6
CONTINUOUS
10
128.37
20
-126.405
11
128.365
21
-126.406
0
LINE
8
BLACK
6
CONTINUOUS
10
128.365
20
-126.406
11
128.36
21
-126.406
0
LINE
8
BLACK
6
CONTINUOUS
10
128.36
20
-126.406
11
127.36
21
-126.406
0
LINE
8
BLACK
6
CONTINUOUS
10
127.36
20
-126.406
11
127.355
21
-126.406
0
LINE
8
BLACK
6
CONTINUOUS
10
127.355
20
-126.406
11
127.35
21
-126.405
0
LINE
8
BLACK
6
CONTINUOUS
10
127.35
20
-126.405
11
127.345
21
-126.404
0
LINE
8
BLACK
6
CONTINUOUS
10
127.345
20
-126.404
11
127.34
21
-126.402
0
LINE
8
BLACK
6
CONTINUOUS
10
127.34
20
-126.402
11
127.336
21
-126.4
0
LINE
8
BLACK
6
CONTINUOUS
10
127.336
20
-126.4
11
127.332
21
-126.397
0
LINE
8
BLACK
6
CONTINUOUS
10
127.332
20
-126.397
11
127.328
21
-126.394
0
LINE
8
BLACK
6
CONTINUOUS
10
127.328
20
-126.394
11
127.324
21
-126.391
0
LINE
8
BLACK
6
CONTINUOUS
10
127.324
20
-126.391
11
127.321
21
-126.387
0
LINE
8
BLACK
6
CONTINUOUS
10
127.321
20
-126.387
11
127.318
21
-126.383
0
LINE
8
BLACK
6
CONTINUOUS
10
127.318
20
-126.383
11
127.315
21
-126.379
0
LINE
8
BLACK
6
CONTINUOUS
10
127.315
20
-126.379
11
127.313
21
-126.375
0
LINE
8
BLACK
6
CONTINUOUS
10
127.313
20
-126.375
11
127.311
21
-126.37
0
LINE
8
BLACK
6
CONTINUOUS
10
127.311
20
-126.37
11
127.31
21
-126.365
0
LINE
8
BLACK
6
CONTINUOUS
10
127.31
20
-126.365
11
127.309
21
-126.36
0
LINE
8
BLACK
6
CONTINUOUS
10
127.309
20
-126.36
11
127.309
21
-126.355
0
LINE
8
BLACK
6
CONTINUOUS
10
127.309
20
-126.355
11
127.309
21
-125.305
0
LINE
8
BLACK
6
CONTINUOUS
10
127.309
20
-125.305
11
127.309
21
-125.3
0
LINE
8
BLACK
6
CONTINUOUS
10
127.309
20
-125.3
11
127.31
21
-125.295
0
LINE
8
BLACK
6
CONTINUOUS
10
127.31
20
-125.295
11
127.311
21
-125.29
0
LINE
8
BLACK
6
CONTINUOUS
10
127.311
20
-125.29
11
127.313
21
-125.285
0
LINE
8
BLACK
6
CONTINUOUS
10
127.313
20
-125.285
11
127.315
21
-125.281
0
LINE
8
BLACK
6
CONTINUOUS
10
127.315
20
-125.281
11
127.318
21
-125.277
0
LINE
8
BLACK
6
CONTINUOUS
10
127.318
20
-125.277
11
127.321
21
-125.273
0
LINE
8
BLACK
6
CONTINUOUS
10
127.321
20
-125.273
11
127.324
21
-125.269
0
LINE
8
BLACK
6
CONTINUOUS
10
127.324
20
-125.269
11
127.328
21
-125.266
0
LINE
8
BLACK
6
CONTINUOUS
10
127.328
20
-125.266
11
127.332
21
-125.263
0
LINE
8
BLACK
6
CONTINUOUS
10
127.332
20
-125.263
11
127.336
21
-125.26
0
LINE
8
BLACK
6
CONTINUOUS
10
127.336
20
-125.26
11
127.34
21
-125.258
0
LINE
8
BLACK
6
CONTINUOUS
10
127.34
20
-125.258
11
127.345
21
-125.256
0
LINE
8
BLACK
6
CONTINUOUS
10
127.345
20
-125.256
11
127.35
21
-125.255
0
LINE
8
BLACK
6
CONTINUOUS
10
127.35
20
-125.255
11
127.355
21
-125.254
0
LINE
8
BLACK
6
CONTINUOUS
10
127.355
20
-125.254
11
127.36
21
-125.254
0
LINE
8
BLACK
6
CONTINUOUS
10
127.36
20
-125.254
11
128.36
21
-125.254
0
LINE
8
BLACK
6
CONTINUOUS
10
128.36
20
-125.254
11
128.365
21
-125.254
0
LINE
8
BLACK
6
CONTINUOUS
10
129.865
20
-123.154
11
129.87
21
-123.155
0
LINE
8
BLACK
6
CONTINUOUS
10
129.87
20
-123.155
11
129.875
21
-123.156
0
LINE
8
BLACK
6
CONTINUOUS
10
129.875
20
-123.156
11
129.88
21
-123.158
0
LINE
8
BLACK
6
CONTINUOUS
10
129.88
20
-123.158
11
129.884
21
-123.16
0
LINE
8
BLACK
6
CONTINUOUS
10
129.884
20
-123.16
11
129.888
21
-123.163
0
LINE
8
BLACK
6
CONTINUOUS
10
129.888
20
-123.163
11
129.892
21
-123.166
0
LINE
8
BLACK
6
CONTINUOUS
10
129.892
20
-123.166
11
129.896
21
-123.169
0
LINE
8
BLACK
6
CONTINUOUS
10
129.896
20
-123.169
11
129.899
21
-123.173
0
LINE
8
BLACK
6
CONTINUOUS
10
129.899
20
-123.173
11
129.902
21
-123.177
0
LINE
8
BLACK
6
CONTINUOUS
10
129.902
20
-123.177
11
129.905
21
-123.181
0
LINE
8
BLACK
6
CONTINUOUS
10
129.905
20
-123.181
11
129.907
21
-123.185
0
LINE
8
BLACK
6
CONTINUOUS
10
129.907
20
-123.185
11
129.909
21
-123.19
0
LINE
8
BLACK
6
CONTINUOUS
10
129.909
20
-123.19
11
129.91
21
-123.195
0
LINE
8
BLACK
6
CONTINUOUS
10
129.91
20
-123.195
11
129.911
21
-123.2
0
LINE
8
BLACK
6
CONTINUOUS
10
129.911
20
-123.2
11
129.911
21
-123.205
0
LINE
8
BLACK
6
CONTINUOUS
10
129.911
20
-123.205
11
129.911
21
-125.405
0
LINE
8
BLACK
6
CONTINUOUS
10
129.911
20
-125.405
11
129.911
21
-125.41
0
LINE
8
BLACK
6
CONTINUOUS
10
129.911
20
-125.41
11
129.91
21
-125.415
0
LINE
8
BLACK
6
CONTINUOUS
10
129.91
20
-125.415
11
129.909
21
-125.42
0
LINE
8
BLACK
6
CONTINUOUS
10
129.909
20
-125.42
11
129.907
21
-125.425
0
LINE
8
BLACK
6
CONTINUOUS
10
129.907
20
-125.425
11
129.905
21
-125.429
0
LINE
8
BLACK
6
CONTINUOUS
10
129.905
20
-125.429
11
129.902
21
-125.433
0
LINE
8
BLACK
6
CONTINUOUS
10
129.902
20
-125.433
11
129.899
21
-125.437
0
LINE
8
BLACK
6
CONTINUOUS
10
129.899
20
-125.437
11
129.896
21
-125.441
0
LINE
8
BLACK
6
CONTINUOUS
10
129.896
20
-125.441
11
129.892
21
-125.444
0
LINE
8
BLACK
6
CONTINUOUS
10
129.892
20
-125.444
11
129.888
21
-125.447
0
LINE
8
BLACK
6
CONTINUOUS
10
129.888
20
-125.447
11
129.884
21
-125.45
0
LINE
8
BLACK
6
CONTINUOUS
10
129.884
20
-125.45
11
129.88
21
-125.452
0
LINE
8
BLACK
6
CONTINUOUS
10
129.88
20
-125.452
11
129.875
21
-125.454
0
LINE
8
BLACK
6
CONTINUOUS
10
129.875
20
-125.454
11
129.87
21
-125.455
0
LINE
8
BLACK
6
CONTINUOUS
10
129.87
20
-125.455
11
129.865
21
-125.456
0
LINE
8
BLACK
6
CONTINUOUS
10
129.865
20
-125.456
11
129.86
21
-125.456
0
LINE
8
BLACK
6
CONTINUOUS
10
129.86
20
-125.456
11
128.81
21
-125.456
0
LINE
8
BLACK
6
CONTINUOUS
10
128.81
20
-125.456
11
128.805
21
-125.456
0
LINE
8
BLACK
6
CONTINUOUS
10
128.805
20
-125.456
11
128.8
21
-125.455
0
LINE
8
BLACK
6
CONTINUOUS
10
128.8
20
-125.455
11
128.795
21
-125.454
0
LINE
8
BLACK
6
CONTINUOUS
10
128.795
20
-125.454
11
128.79
21
-125.452
0
LINE
8
BLACK
6
CONTINUOUS
10
128.79
20
-125.452
11
128.786
21
-125.45
0
LINE
8
BLACK
6
CONTINUOUS
10
128.786
20
-125.45
11
128.782
21
-125.447
0
LINE
8
BLACK
6
CONTINUOUS
10
128.782
20
-125.447
11
128.778
21
-125.444
0
LINE
8
BLACK
6
CONTINUOUS
10
128.778
20
-125.444
11
128.774
21
-125.441
0
LINE
8
BLACK
6
CONTINUOUS
10
128.774
20
-125.441
11
128.771
21
-125.437
0
LINE
8
BLACK
6
CONTINUOUS
10
128.771
20
-125.437
11
128.768
21
-125.433
0
LINE
8
BLACK
6
CONTINUOUS
10
128.768
20
-125.433
11
128.765
21
-125.429
0
LINE
8
BLACK
6
CONTINUOUS
10
128.765
20
-125.429
11
128.763
21
-125.425
0
LINE
8
BLACK
6
CONTINUOUS
10
128.763
20
-125.425
11
128.761
21
-125.42
0
LINE
8
BLACK
6
CONTINUOUS
10
128.761
20
-125.42
11
128.76
21
-125.415
0
LINE
8
BLACK
6
CONTINUOUS
10
128.76
20
-125.415
11
128.759
21
-125.41
0
LINE
8
BLACK
6
CONTINUOUS
10
128.759
20
-125.41
11
128.759
21
-125.405
0
LINE
8
BLACK
6
CONTINUOUS
10
128.759
20
-125.405
11
128.759
21
-123.205
0
LINE
8
BLACK
6
CONTINUOUS
10
128.759
20
-123.205
11
128.759
21
-123.2
0
LINE
8
BLACK
6
CONTINUOUS
10
128.759
20
-123.2
11
128.76
21
-123.195
0
LINE
8
BLACK
6
CONTINUOUS
10
128.76
20
-123.195
11
128.761
21
-123.19
0
LINE
8
BLACK
6
CONTINUOUS
10
128.761
20
-123.19
11
128.763
21
-123.185
0
LINE
8
BLACK
6
CONTINUOUS
10
128.763
20
-123.185
11
128.765
21
-123.181
0
LINE
8
BLACK
6
CONTINUOUS
10
128.765
20
-123.181
11
128.768
21
-123.177
0
LINE
8
BLACK
6
CONTINUOUS
10
128.768
20
-123.177
11
128.771
21
-123.173
0
LINE
8
BLACK
6
CONTINUOUS
10
128.771
20
-123.173
11
128.774
21
-123.169
0
LINE
8
BLACK
6
CONTINUOUS
10
128.774
20
-123.169
11
128.778
21
-123.166
0
LINE
8
BLACK
6
CONTINUOUS
10
128.778
20
-123.166
11
128.782
21
-123.163
0
LINE
8
BLACK
6
CONTINUOUS
10
128.782
20
-123.163
11
128.786
21
-123.16
0
LINE
8
BLACK
6
CONTINUOUS
10
128.786
20
-123.16
11
128.79
21
-123.158
0
LINE
8
BLACK
6
CONTINUOUS
10
128.79
20
-123.158
11
128.795
21
-123.156
0
LINE
8
BLACK
6
CONTINUOUS
10
128.795
20
-123.156
11
128.8
21
-123.155
0
LINE
8
BLACK
6
CONTINUOUS
10
128.8
20
-123.155
11
128.805
21
-123.154
0
LINE
8
BLACK
6
CONTINUOUS
10
128.805
20
-123.154
11
128.81
21
-123.154
0
LINE
8
BLACK
6
CONTINUOUS
10
128.81
20
-123.154
11
129.86
21
-123.154
0
LINE
8
BLACK
6
CONTINUOUS
10
129.86
20
-123.154
11
129.865
21
-123.154
0
CIRCLE
8
BLACK
10
170.41
20
-89.45
40
0.551
0
CIRCLE
8
BLACK
10
176.8
20
-106.39
40
0.551
0
CIRCLE
8
BLACK
10
128.1
20
-56.27
40
0.751
0
ARC
8
BLACK
10
128.1
20
-63.89
40
0.751
50
450
51
630
0
ARC
8
BLACK
10
128.1
20
-63.89
40
0.751
50
270
51
450
0
CIRCLE
8
BLACK
10
154.45
20
-122.5
40
0.551
0
CIRCLE
8
BLACK
10
149.475
20
-105.95
40
0.551
0
CIRCLE
8
BLACK
10
170.25
20
-110.75
40
0.551
0
CIRCLE
8
BLACK
10
149.4
20
-88.5
40
0.551
0
LINE
8
BLACK
6
CONTINUOUS
10
138.609
20
-53.6189
11
138.652
21
-53.6625
0
LINE
8
BLACK
6
CONTINUOUS
10
138.652
20
-53.6625
11
138.729
21
-53.7136
0
LINE
8
BLACK
6
CONTINUOUS
10
138.729
20
-53.7136
11
138.814
21
-53.7488
0
LINE
8
BLACK
6
CONTINUOUS
10
138.814
20
-53.7488
11
138.901
21
-53.7662
0
LINE
8
BLACK
6
CONTINUOUS
10
138.901
20
-53.7662
11
138.903
21
-53.7675
0
LINE
8
BLACK
6
CONTINUOUS
10
138.903
20
-53.7675
11
138.902
21
-53.7694
0
LINE
8
BLACK
6
CONTINUOUS
10
138.902
20
-53.7694
11
138.901
21
-53.7701
0
LINE
8
BLACK
6
CONTINUOUS
10
138.901
20
-53.7701
11
138.896
21
-53.7701
0
LINE
8
BLACK
6
CONTINUOUS
10
138.896
20
-53.7701
11
138.872
21
-53.7725
0
LINE
8
BLACK
6
CONTINUOUS
10
138.872
20
-53.7725
11
138.849
21
-53.7795
0
LINE
8
BLACK
6
CONTINUOUS
10
138.849
20
-53.7795
11
138.828
21
-53.7909
0
LINE
8
BLACK
6
CONTINUOUS
10
138.828
20
-53.7909
11
138.809
21
-53.8062
0
LINE
8
BLACK
6
CONTINUOUS
10
138.809
20
-53.8062
11
138.794
21
-53.8248
0
LINE
8
BLACK
6
CONTINUOUS
10
138.794
20
-53.8248
11
138.782
21
-53.8461
0
LINE
8
BLACK
6
CONTINUOUS
10
138.782
20
-53.8461
11
138.775
21
-53.8691
0
LINE
8
BLACK
6
CONTINUOUS
10
138.775
20
-53.8691
11
138.773
21
-53.8933
0
LINE
8
BLACK
6
CONTINUOUS
10
138.773
20
-53.8933
11
138.772
21
-53.895
0
LINE
8
BLACK
6
CONTINUOUS
10
138.772
20
-53.895
11
138.77
21
-53.8948
0
LINE
8
BLACK
6
CONTINUOUS
10
138.77
20
-53.8948
11
138.769
21
-53.8931
0
LINE
8
BLACK
6
CONTINUOUS
10
138.769
20
-53.8931
11
138.769
21
-53.831
0
LINE
8
BLACK
6
CONTINUOUS
10
138.769
20
-53.831
11
138.515
21
-53.831
0
LINE
8
BLACK
6
CONTINUOUS
10
138.515
20
-53.831
11
138.513
21
-53.83
0
LINE
8
BLACK
6
CONTINUOUS
10
138.513
20
-53.83
11
138.513
21
-53.828
0
LINE
8
BLACK
6
CONTINUOUS
10
138.513
20
-53.828
11
138.515
21
-53.827
0
LINE
8
BLACK
6
CONTINUOUS
10
138.515
20
-53.827
11
138.539
21
-53.8246
0
LINE
8
BLACK
6
CONTINUOUS
10
138.539
20
-53.8246
11
138.562
21
-53.8176
0
LINE
8
BLACK
6
CONTINUOUS
10
138.562
20
-53.8176
11
138.584
21
-53.8063
0
LINE
8
BLACK
6
CONTINUOUS
10
138.584
20
-53.8063
11
138.602
21
-53.791
0
LINE
8
BLACK
6
CONTINUOUS
10
138.602
20
-53.791
11
138.617
21
-53.7723
0
LINE
8
BLACK
6
CONTINUOUS
10
138.617
20
-53.7723
11
138.629
21
-53.7511
0
LINE
8
BLACK
6
CONTINUOUS
10
138.629
20
-53.7511
11
138.636
21
-53.728
0
LINE
8
BLACK
6
CONTINUOUS
10
138.636
20
-53.728
11
138.638
21
-53.704
0
LINE
8
BLACK
6
CONTINUOUS
10
138.638
20
-53.704
11
138.636
21
-53.68
0
LINE
8
BLACK
6
CONTINUOUS
10
138.636
20
-53.68
11
138.629
21
-53.6569
0
LINE
8
BLACK
6
CONTINUOUS
10
138.629
20
-53.6569
11
138.617
21
-53.6357
0
LINE
8
BLACK
6
CONTINUOUS
10
138.617
20
-53.6357
11
138.606
21
-53.6216
0
LINE
8
BLACK
6
CONTINUOUS
10
138.606
20
-53.6216
11
138.606
21
-53.6197
0
LINE
8
BLACK
6
CONTINUOUS
10
138.606
20
-53.6197
11
138.607
21
-53.6184
0
LINE
8
BLACK
6
CONTINUOUS
10
138.607
20
-53.6184
11
138.609
21
-53.6189
  0
ENDSEC
  0
EOF
