  0
SECTION
  2
HEADER
  9
$ANGBASE
  50
0.0
  9
$ANGDIR
  70
1
  9
$MEASUREMENT
  70
1
  0
ENDSEC
  0
SECTION
  2
TABLES
  0
TABLE
  2
LTYPE
  70
4
  0
LTYPE
  5
40F
  2
CONTINUOUS
  70
0
  3
Solid line
  72
65
  73
0
  40
0.0
  0
LTYPE
  5
410
  2
DASHDOT
 70
0
  3
Dash Dot ____ _ ____ _
 72
65
 73
4
 40
2.0
 49
1.25
 49
-0.25
 49
0.25
 49
-0.25
  0
LTYPE
  5
411
  2
DASHED
 70
0
  3
Dashed __ __ __ __ __
 72
65
 73
2
 40
0.75
 49
0.5
 49
-0.25
  0
LTYPE
  5
43B
  2
DOTTED
 70
0
  3
Dotted .  .  .  .
 72
65
 73
2
 40
0.2
 49
0.0
 49
-0.2
  0
ENDTAB
  0
TABLE
  2
STYLE
  70
4
  0
STYLE
  2
KICAD
  70
0
  40
0
  41
1
  42
1
  50
0
  71
0
  3
isocp.shx
  0
STYLE
  2
KICADB
  70
0
  40
0
  41
1
  42
1
  50
0
  71
0
  3
isocp.shx
  0
STYLE
  2
KICADI
  70
0
  40
0
  41
1
  42
1
  50
15
  71
0
  3
isocp.shx
  0
STYLE
  2
KICADBI
  70
0
  40
0
  41
1
  42
1
  50
15
  71
0
  3
isocp.shx
  0
ENDTAB
  0
TABLE
  2
LAYER
  70
1
  0
LAYER
  2
BLACK
  70
0
  62
7
  6
CONTINUOUS
  0
ENDTAB
  0
ENDSEC
  0
SECTION
  2
ENTITIES
0
LINE
8
BLACK
6
CONTINUOUS
10
95.2772
20
-89.6219
11
95.6789
21
-86.9569
0
LINE
8
BLACK
6
CONTINUOUS
10
95.6789
20
-86.9569
11
96.2392
21
-84.3207
0
LINE
8
BLACK
6
CONTINUOUS
10
96.2392
20
-84.3207
11
96.9562
21
-81.7228
0
LINE
8
BLACK
6
CONTINUOUS
10
96.9562
20
-81.7228
11
97.8273
21
-79.1723
0
LINE
8
BLACK
6
CONTINUOUS
10
97.8273
20
-79.1723
11
98.8493
21
-76.6785
0
LINE
8
BLACK
6
CONTINUOUS
10
98.8493
20
-76.6785
11
100.019
21
-74.2504
0
LINE
8
BLACK
6
CONTINUOUS
10
100.019
20
-74.2504
11
101.331
21
-71.8965
0
LINE
8
BLACK
6
CONTINUOUS
10
101.331
20
-71.8965
11
102.782
21
-69.6252
0
LINE
8
BLACK
6
CONTINUOUS
10
102.782
20
-69.6252
11
104.366
21
-67.4449
0
LINE
8
BLACK
6
CONTINUOUS
10
104.366
20
-67.4449
11
106.078
21
-65.3631
0
LINE
8
BLACK
6
CONTINUOUS
10
106.078
20
-65.3631
11
107.911
21
-63.3875
0
LINE
8
BLACK
6
CONTINUOUS
10
107.911
20
-63.3875
11
109.859
21
-61.525
0
LINE
8
BLACK
6
CONTINUOUS
10
109.859
20
-61.525
11
111.915
21
-59.7824
0
LINE
8
BLACK
6
CONTINUOUS
10
111.915
20
-59.7824
11
114.071
21
-58.1658
0
LINE
8
BLACK
6
CONTINUOUS
10
114.071
20
-58.1658
11
116.321
21
-56.6811
0
LINE
8
BLACK
6
CONTINUOUS
10
116.321
20
-56.6811
11
118.655
21
-55.3336
0
LINE
8
BLACK
6
CONTINUOUS
10
118.655
20
-55.3336
11
121.065
21
-54.128
0
LINE
8
BLACK
6
CONTINUOUS
10
121.065
20
-54.128
11
123.543
21
-53.0688
0
LINE
8
BLACK
6
CONTINUOUS
10
123.543
20
-53.0688
11
126.08
21
-52.1597
0
LINE
8
BLACK
6
CONTINUOUS
10
126.08
20
-52.1597
11
128.667
21
-51.4039
0
LINE
8
BLACK
6
CONTINUOUS
10
128.667
20
-51.4039
11
131.295
21
-50.8042
0
LINE
8
BLACK
6
CONTINUOUS
10
131.295
20
-50.8042
11
133.953
21
-50.3627
0
LINE
8
BLACK
6
CONTINUOUS
10
133.953
20
-50.3627
11
136.634
21
-50.081
0
LINE
8
BLACK
6
CONTINUOUS
10
136.634
20
-50.081
11
139.326
21
-49.96
0
LINE
8
BLACK
6
CONTINUOUS
10
139.326
20
-49.96
11
142.021
21
-50.0004
0
LINE
8
BLACK
6
CONTINUOUS
10
142.021
20
-50.0004
11
144.708
21
-50.2018
0
LINE
8
BLACK
6
CONTINUOUS
10
144.708
20
-50.2018
11
147.379
21
-50.5635
0
LINE
8
BLACK
6
CONTINUOUS
10
147.379
20
-50.5635
11
150.023
21
-51.0844
0
LINE
8
BLACK
6
CONTINUOUS
10
150.023
20
-51.0844
11
152.632
21
-51.7624
0
LINE
8
BLACK
6
CONTINUOUS
10
152.632
20
-51.7624
11
155.195
21
-52.5952
0
LINE
8
BLACK
6
CONTINUOUS
10
155.195
20
-52.5952
11
157.704
21
-53.5799
0
LINE
8
BLACK
6
CONTINUOUS
10
157.704
20
-53.5799
11
160.149
21
-54.7128
0
LINE
8
BLACK
6
CONTINUOUS
10
160.149
20
-54.7128
11
162.522
21
-55.9899
0
LINE
8
BLACK
6
CONTINUOUS
10
162.522
20
-55.9899
11
164.815
21
-57.4066
0
LINE
8
BLACK
6
CONTINUOUS
10
164.815
20
-57.4066
11
167.019
21
-58.958
0
LINE
8
BLACK
6
CONTINUOUS
10
167.019
20
-58.958
11
169.126
21
-60.6383
0
LINE
8
BLACK
6
CONTINUOUS
10
169.126
20
-60.6383
11
171.129
21
-62.4417
0
LINE
8
BLACK
6
CONTINUOUS
10
171.129
20
-62.4417
11
173.02
21
-64.3616
0
LINE
8
BLACK
6
CONTINUOUS
10
173.02
20
-64.3616
11
174.794
21
-66.3912
0
LINE
8
BLACK
6
CONTINUOUS
10
174.794
20
-66.3912
11
176.442
21
-68.5232
0
LINE
8
BLACK
6
CONTINUOUS
10
176.442
20
-68.5232
11
177.96
21
-70.75
0
LINE
8
BLACK
6
CONTINUOUS
10
177.96
20
-70.75
11
179.343
21
-73.0636
0
LINE
8
BLACK
6
CONTINUOUS
10
179.343
20
-73.0636
11
180.584
21
-75.4557
0
LINE
8
BLACK
6
CONTINUOUS
10
180.584
20
-75.4557
11
181.68
21
-77.9178
0
LINE
8
BLACK
6
CONTINUOUS
10
181.68
20
-77.9178
11
182.627
21
-80.441
0
LINE
8
BLACK
6
CONTINUOUS
10
182.627
20
-80.441
11
183.422
21
-83.0164
0
LINE
8
BLACK
6
CONTINUOUS
10
183.422
20
-83.0164
11
184.061
21
-85.6346
0
LINE
8
BLACK
6
CONTINUOUS
10
184.061
20
-85.6346
11
184.542
21
-88.2864
0
LINE
8
BLACK
6
CONTINUOUS
10
184.542
20
-88.2864
11
184.864
21
-90.9622
0
LINE
8
BLACK
6
CONTINUOUS
10
184.864
20
-90.9622
11
185.025
21
-93.6525
0
LINE
8
BLACK
6
CONTINUOUS
10
185.025
20
-93.6525
11
185.025
21
-96.3475
0
LINE
8
BLACK
6
CONTINUOUS
10
185.025
20
-96.3475
11
184.864
21
-99.0378
0
LINE
8
BLACK
6
CONTINUOUS
10
184.864
20
-99.0378
11
184.542
21
-101.714
0
LINE
8
BLACK
6
CONTINUOUS
10
184.542
20
-101.714
11
184.061
21
-104.365
0
LINE
8
BLACK
6
CONTINUOUS
10
184.061
20
-104.365
11
183.422
21
-106.984
0
LINE
8
BLACK
6
CONTINUOUS
10
183.422
20
-106.984
11
182.627
21
-109.559
0
LINE
8
BLACK
6
CONTINUOUS
10
182.627
20
-109.559
11
181.68
21
-112.082
0
LINE
8
BLACK
6
CONTINUOUS
10
181.68
20
-112.082
11
180.584
21
-114.544
0
LINE
8
BLACK
6
CONTINUOUS
10
180.584
20
-114.544
11
179.343
21
-116.936
0
LINE
8
BLACK
6
CONTINUOUS
10
179.343
20
-116.936
11
177.96
21
-119.25
0
LINE
8
BLACK
6
CONTINUOUS
10
177.96
20
-119.25
11
176.442
21
-121.477
0
LINE
8
BLACK
6
CONTINUOUS
10
176.442
20
-121.477
11
174.794
21
-123.609
0
LINE
8
BLACK
6
CONTINUOUS
10
174.794
20
-123.609
11
173.02
21
-125.638
0
LINE
8
BLACK
6
CONTINUOUS
10
173.02
20
-125.638
11
171.129
21
-127.558
0
LINE
8
BLACK
6
CONTINUOUS
10
171.129
20
-127.558
11
169.126
21
-129.362
0
LINE
8
BLACK
6
CONTINUOUS
10
169.126
20
-129.362
11
167.019
21
-131.042
0
LINE
8
BLACK
6
CONTINUOUS
10
167.019
20
-131.042
11
164.815
21
-132.593
0
LINE
8
BLACK
6
CONTINUOUS
10
164.815
20
-132.593
11
162.522
21
-134.01
0
LINE
8
BLACK
6
CONTINUOUS
10
162.522
20
-134.01
11
160.149
21
-135.287
0
LINE
8
BLACK
6
CONTINUOUS
10
160.149
20
-135.287
11
157.704
21
-136.42
0
LINE
8
BLACK
6
CONTINUOUS
10
157.704
20
-136.42
11
155.195
21
-137.405
0
LINE
8
BLACK
6
CONTINUOUS
10
155.195
20
-137.405
11
152.632
21
-138.238
0
LINE
8
BLACK
6
CONTINUOUS
10
152.632
20
-138.238
11
150.023
21
-138.916
0
LINE
8
BLACK
6
CONTINUOUS
10
150.023
20
-138.916
11
147.379
21
-139.436
0
LINE
8
BLACK
6
CONTINUOUS
10
147.379
20
-139.436
11
144.708
21
-139.798
0
LINE
8
BLACK
6
CONTINUOUS
10
144.708
20
-139.798
11
142.021
21
-140
0
LINE
8
BLACK
6
CONTINUOUS
10
142.021
20
-140
11
139.326
21
-140.04
0
LINE
8
BLACK
6
CONTINUOUS
10
139.326
20
-140.04
11
136.634
21
-139.919
0
LINE
8
BLACK
6
CONTINUOUS
10
136.634
20
-139.919
11
133.953
21
-139.637
0
LINE
8
BLACK
6
CONTINUOUS
10
133.953
20
-139.637
11
131.295
21
-139.196
0
LINE
8
BLACK
6
CONTINUOUS
10
131.295
20
-139.196
11
128.667
21
-138.596
0
LINE
8
BLACK
6
CONTINUOUS
10
128.667
20
-138.596
11
126.08
21
-137.84
0
LINE
8
BLACK
6
CONTINUOUS
10
126.08
20
-137.84
11
123.543
21
-136.931
0
LINE
8
BLACK
6
CONTINUOUS
10
123.543
20
-136.931
11
121.065
21
-135.872
0
LINE
8
BLACK
6
CONTINUOUS
10
121.065
20
-135.872
11
118.655
21
-134.666
0
LINE
8
BLACK
6
CONTINUOUS
10
118.655
20
-134.666
11
116.321
21
-133.319
0
LINE
8
BLACK
6
CONTINUOUS
10
116.321
20
-133.319
11
114.071
21
-131.834
0
LINE
8
BLACK
6
CONTINUOUS
10
114.071
20
-131.834
11
111.915
21
-130.218
0
LINE
8
BLACK
6
CONTINUOUS
10
111.915
20
-130.218
11
109.859
21
-128.475
0
LINE
8
BLACK
6
CONTINUOUS
10
109.859
20
-128.475
11
107.911
21
-126.612
0
LINE
8
BLACK
6
CONTINUOUS
10
107.911
20
-126.612
11
106.078
21
-124.637
0
LINE
8
BLACK
6
CONTINUOUS
10
106.078
20
-124.637
11
104.366
21
-122.555
0
LINE
8
BLACK
6
CONTINUOUS
10
104.366
20
-122.555
11
102.782
21
-120.375
0
LINE
8
BLACK
6
CONTINUOUS
10
102.782
20
-120.375
11
101.331
21
-118.104
0
LINE
8
BLACK
6
CONTINUOUS
10
101.331
20
-118.104
11
100.019
21
-115.75
0
LINE
8
BLACK
6
CONTINUOUS
10
100.019
20
-115.75
11
98.8493
21
-113.321
0
LINE
8
BLACK
6
CONTINUOUS
10
98.8493
20
-113.321
11
97.8273
21
-110.828
0
LINE
8
BLACK
6
CONTINUOUS
10
97.8273
20
-110.828
11
96.9562
21
-108.277
0
LINE
8
BLACK
6
CONTINUOUS
10
96.9562
20
-108.277
11
96.2392
21
-105.679
0
LINE
8
BLACK
6
CONTINUOUS
10
96.2392
20
-105.679
11
95.6789
21
-103.043
0
LINE
8
BLACK
6
CONTINUOUS
10
95.6789
20
-103.043
11
95.2772
21
-100.378
0
LINE
8
BLACK
6
CONTINUOUS
10
95.2772
20
-100.378
11
95.0356
21
-97.6939
0
LINE
8
BLACK
6
CONTINUOUS
10
95.0356
20
-97.6939
11
94.955
21
-95
0
LINE
8
BLACK
6
CONTINUOUS
10
94.955
20
-95
11
95.0356
21
-92.3061
0
LINE
8
BLACK
6
CONTINUOUS
10
95.0356
20
-92.3061
11
95.2772
21
-89.6219
0
LINE
8
BLACK
6
CONTINUOUS
10
95.3467
20
-100.37
11
95.7478
21
-103.031
0
LINE
8
BLACK
6
CONTINUOUS
10
95.7478
20
-103.031
11
96.3072
21
-105.663
0
LINE
8
BLACK
6
CONTINUOUS
10
96.3072
20
-105.663
11
97.0231
21
-108.257
0
LINE
8
BLACK
6
CONTINUOUS
10
97.0231
20
-108.257
11
97.8928
21
-110.803
0
LINE
8
BLACK
6
CONTINUOUS
10
97.8928
20
-110.803
11
98.9133
21
-113.293
0
LINE
8
BLACK
6
CONTINUOUS
10
98.9133
20
-113.293
11
100.081
21
-115.717
0
LINE
8
BLACK
6
CONTINUOUS
10
100.081
20
-115.717
11
101.391
21
-118.068
0
LINE
8
BLACK
6
CONTINUOUS
10
101.391
20
-118.068
11
102.84
21
-120.335
0
LINE
8
BLACK
6
CONTINUOUS
10
102.84
20
-120.335
11
104.422
21
-122.512
0
LINE
8
BLACK
6
CONTINUOUS
10
104.422
20
-122.512
11
106.131
21
-124.591
0
LINE
8
BLACK
6
CONTINUOUS
10
106.131
20
-124.591
11
107.961
21
-126.563
0
LINE
8
BLACK
6
CONTINUOUS
10
107.961
20
-126.563
11
109.906
21
-128.423
0
LINE
8
BLACK
6
CONTINUOUS
10
109.906
20
-128.423
11
111.959
21
-130.163
0
LINE
8
BLACK
6
CONTINUOUS
10
111.959
20
-130.163
11
114.112
21
-131.777
0
LINE
8
BLACK
6
CONTINUOUS
10
114.112
20
-131.777
11
116.357
21
-133.259
0
LINE
8
BLACK
6
CONTINUOUS
10
116.357
20
-133.259
11
118.688
21
-134.605
0
LINE
8
BLACK
6
CONTINUOUS
10
118.688
20
-134.605
11
121.094
21
-135.808
0
LINE
8
BLACK
6
CONTINUOUS
10
121.094
20
-135.808
11
123.569
21
-136.866
0
LINE
8
BLACK
6
CONTINUOUS
10
123.569
20
-136.866
11
126.102
21
-137.774
0
LINE
8
BLACK
6
CONTINUOUS
10
126.102
20
-137.774
11
128.685
21
-138.528
0
LINE
8
BLACK
6
CONTINUOUS
10
128.685
20
-138.528
11
131.308
21
-139.127
0
LINE
8
BLACK
6
CONTINUOUS
10
131.308
20
-139.127
11
133.963
21
-139.568
0
LINE
8
BLACK
6
CONTINUOUS
10
133.963
20
-139.568
11
136.639
21
-139.849
0
LINE
8
BLACK
6
CONTINUOUS
10
136.639
20
-139.849
11
139.327
21
-139.97
0
LINE
8
BLACK
6
CONTINUOUS
10
139.327
20
-139.97
11
142.018
21
-139.93
0
LINE
8
BLACK
6
CONTINUOUS
10
142.018
20
-139.93
11
144.701
21
-139.729
0
LINE
8
BLACK
6
CONTINUOUS
10
144.701
20
-139.729
11
147.368
21
-139.367
0
LINE
8
BLACK
6
CONTINUOUS
10
147.368
20
-139.367
11
150.008
21
-138.847
0
LINE
8
BLACK
6
CONTINUOUS
10
150.008
20
-138.847
11
152.612
21
-138.17
0
LINE
8
BLACK
6
CONTINUOUS
10
152.612
20
-138.17
11
155.171
21
-137.339
0
LINE
8
BLACK
6
CONTINUOUS
10
155.171
20
-137.339
11
157.676
21
-136.356
0
LINE
8
BLACK
6
CONTINUOUS
10
157.676
20
-136.356
11
160.118
21
-135.225
0
LINE
8
BLACK
6
CONTINUOUS
10
160.118
20
-135.225
11
162.487
21
-133.949
0
LINE
8
BLACK
6
CONTINUOUS
10
162.487
20
-133.949
11
164.777
21
-132.535
0
LINE
8
BLACK
6
CONTINUOUS
10
164.777
20
-132.535
11
166.977
21
-130.986
0
LINE
8
BLACK
6
CONTINUOUS
10
166.977
20
-130.986
11
169.081
21
-129.308
0
LINE
8
BLACK
6
CONTINUOUS
10
169.081
20
-129.308
11
171.081
21
-127.508
0
LINE
8
BLACK
6
CONTINUOUS
10
171.081
20
-127.508
11
172.969
21
-125.591
0
LINE
8
BLACK
6
CONTINUOUS
10
172.969
20
-125.591
11
174.739
21
-123.564
0
LINE
8
BLACK
6
CONTINUOUS
10
174.739
20
-123.564
11
176.386
21
-121.436
0
LINE
8
BLACK
6
CONTINUOUS
10
176.386
20
-121.436
11
177.901
21
-119.212
0
LINE
8
BLACK
6
CONTINUOUS
10
177.901
20
-119.212
11
179.282
21
-116.902
0
LINE
8
BLACK
6
CONTINUOUS
10
179.282
20
-116.902
11
180.521
21
-114.514
0
LINE
8
BLACK
6
CONTINUOUS
10
180.521
20
-114.514
11
181.616
21
-112.056
0
LINE
8
BLACK
6
CONTINUOUS
10
181.616
20
-112.056
11
182.561
21
-109.536
0
LINE
8
BLACK
6
CONTINUOUS
10
182.561
20
-109.536
11
183.354
21
-106.965
0
LINE
8
BLACK
6
CONTINUOUS
10
183.354
20
-106.965
11
183.992
21
-104.351
0
LINE
8
BLACK
6
CONTINUOUS
10
183.992
20
-104.351
11
184.473
21
-101.703
0
LINE
8
BLACK
6
CONTINUOUS
10
184.473
20
-101.703
11
184.794
21
-99.0315
0
LINE
8
BLACK
6
CONTINUOUS
10
184.794
20
-99.0315
11
184.955
21
-96.3454
0
LINE
8
BLACK
6
CONTINUOUS
10
184.955
20
-96.3454
11
184.955
21
-93.6546
0
LINE
8
BLACK
6
CONTINUOUS
10
184.955
20
-93.6546
11
184.794
21
-90.9685
0
LINE
8
BLACK
6
CONTINUOUS
10
184.794
20
-90.9685
11
184.473
21
-88.2968
0
LINE
8
BLACK
6
CONTINUOUS
10
184.473
20
-88.2968
11
183.992
21
-85.6492
0
LINE
8
BLACK
6
CONTINUOUS
10
183.992
20
-85.6492
11
183.354
21
-83.035
0
LINE
8
BLACK
6
CONTINUOUS
10
183.354
20
-83.035
11
182.561
21
-80.4636
0
LINE
8
BLACK
6
CONTINUOUS
10
182.561
20
-80.4636
11
181.616
21
-77.9443
0
LINE
8
BLACK
6
CONTINUOUS
10
181.616
20
-77.9443
11
180.521
21
-75.4861
0
LINE
8
BLACK
6
CONTINUOUS
10
180.521
20
-75.4861
11
179.282
21
-73.0977
0
LINE
8
BLACK
6
CONTINUOUS
10
179.282
20
-73.0977
11
177.901
21
-70.7877
0
LINE
8
BLACK
6
CONTINUOUS
10
177.901
20
-70.7877
11
176.386
21
-68.5644
0
LINE
8
BLACK
6
CONTINUOUS
10
176.386
20
-68.5644
11
174.739
21
-66.4357
0
LINE
8
BLACK
6
CONTINUOUS
10
174.739
20
-66.4357
11
172.969
21
-64.4092
0
LINE
8
BLACK
6
CONTINUOUS
10
172.969
20
-64.4092
11
171.081
21
-62.4923
0
LINE
8
BLACK
6
CONTINUOUS
10
171.081
20
-62.4923
11
169.081
21
-60.6917
0
LINE
8
BLACK
6
CONTINUOUS
10
169.081
20
-60.6917
11
166.977
21
-59.014
0
LINE
8
BLACK
6
CONTINUOUS
10
166.977
20
-59.014
11
164.777
21
-57.4651
0
LINE
8
BLACK
6
CONTINUOUS
10
164.777
20
-57.4651
11
162.487
21
-56.0505
0
LINE
8
BLACK
6
CONTINUOUS
10
162.487
20
-56.0505
11
160.118
21
-54.7754
0
LINE
8
BLACK
6
CONTINUOUS
10
160.118
20
-54.7754
11
157.676
21
-53.6442
0
LINE
8
BLACK
6
CONTINUOUS
10
157.676
20
-53.6442
11
155.171
21
-52.6611
0
LINE
8
BLACK
6
CONTINUOUS
10
155.171
20
-52.6611
11
152.612
21
-51.8296
0
LINE
8
BLACK
6
CONTINUOUS
10
152.612
20
-51.8296
11
150.008
21
-51.1526
0
LINE
8
BLACK
6
CONTINUOUS
10
150.008
20
-51.1526
11
147.368
21
-50.6326
0
LINE
8
BLACK
6
CONTINUOUS
10
147.368
20
-50.6326
11
144.701
21
-50.2714
0
LINE
8
BLACK
6
CONTINUOUS
10
144.701
20
-50.2714
11
142.018
21
-50.0703
0
LINE
8
BLACK
6
CONTINUOUS
10
142.018
20
-50.0703
11
139.327
21
-50.03
0
LINE
8
BLACK
6
CONTINUOUS
10
139.327
20
-50.03
11
136.639
21
-50.1508
0
LINE
8
BLACK
6
CONTINUOUS
10
136.639
20
-50.1508
11
133.963
21
-50.432
0
LINE
8
BLACK
6
CONTINUOUS
10
133.963
20
-50.432
11
131.308
21
-50.8729
0
LINE
8
BLACK
6
CONTINUOUS
10
131.308
20
-50.8729
11
128.685
21
-51.4716
0
LINE
8
BLACK
6
CONTINUOUS
10
128.685
20
-51.4716
11
126.102
21
-52.2262
0
LINE
8
BLACK
6
CONTINUOUS
10
126.102
20
-52.2262
11
123.569
21
-53.134
0
LINE
8
BLACK
6
CONTINUOUS
10
123.569
20
-53.134
11
121.094
21
-54.1915
0
LINE
8
BLACK
6
CONTINUOUS
10
121.094
20
-54.1915
11
118.688
21
-55.3952
0
LINE
8
BLACK
6
CONTINUOUS
10
118.688
20
-55.3952
11
116.357
21
-56.7407
0
LINE
8
BLACK
6
CONTINUOUS
10
116.357
20
-56.7407
11
114.112
21
-58.2231
0
LINE
8
BLACK
6
CONTINUOUS
10
114.112
20
-58.2231
11
111.959
21
-59.8371
0
LINE
8
BLACK
6
CONTINUOUS
10
111.959
20
-59.8371
11
109.906
21
-61.5771
0
LINE
8
BLACK
6
CONTINUOUS
10
109.906
20
-61.5771
11
107.961
21
-63.4366
0
LINE
8
BLACK
6
CONTINUOUS
10
107.961
20
-63.4366
11
106.131
21
-65.4092
0
LINE
8
BLACK
6
CONTINUOUS
10
106.131
20
-65.4092
11
104.422
21
-67.4877
0
LINE
8
BLACK
6
CONTINUOUS
10
104.422
20
-67.4877
11
102.84
21
-69.6647
0
LINE
8
BLACK
6
CONTINUOUS
10
102.84
20
-69.6647
11
101.391
21
-71.9324
0
LINE
8
BLACK
6
CONTINUOUS
10
101.391
20
-71.9324
11
100.081
21
-74.2826
0
LINE
8
BLACK
6
CONTINUOUS
10
100.081
20
-74.2826
11
98.9133
21
-76.707
0
LINE
8
BLACK
6
CONTINUOUS
10
98.9133
20
-76.707
11
97.8928
21
-79.1969
0
LINE
8
BLACK
6
CONTINUOUS
10
97.8928
20
-79.1969
11
97.0231
21
-81.7434
0
LINE
8
BLACK
6
CONTINUOUS
10
97.0231
20
-81.7434
11
96.3072
21
-84.3373
0
LINE
8
BLACK
6
CONTINUOUS
10
96.3072
20
-84.3373
11
95.7478
21
-86.9694
0
LINE
8
BLACK
6
CONTINUOUS
10
95.7478
20
-86.9694
11
95.3467
21
-89.6302
0
LINE
8
BLACK
6
CONTINUOUS
10
95.3467
20
-89.6302
11
95.1055
21
-92.3103
0
LINE
8
BLACK
6
CONTINUOUS
10
95.1055
20
-92.3103
11
95.025
21
-95
0
LINE
8
BLACK
6
CONTINUOUS
10
95.025
20
-95
11
95.1055
21
-97.6897
0
LINE
8
BLACK
6
CONTINUOUS
10
95.1055
20
-97.6897
11
95.3467
21
-100.37
0
LINE
8
BLACK
6
CONTINUOUS
10
171.16
20
-108.247
11
171.238
21
-108.057
0
LINE
8
BLACK
6
CONTINUOUS
10
171.238
20
-108.057
11
171.352
21
-107.887
0
LINE
8
BLACK
6
CONTINUOUS
10
171.352
20
-107.887
11
171.497
21
-107.742
0
LINE
8
BLACK
6
CONTINUOUS
10
171.497
20
-107.742
11
171.667
21
-107.628
0
LINE
8
BLACK
6
CONTINUOUS
10
171.667
20
-107.628
11
171.857
21
-107.55
0
LINE
8
BLACK
6
CONTINUOUS
10
171.857
20
-107.55
11
172.058
21
-107.51
0
LINE
8
BLACK
6
CONTINUOUS
10
172.058
20
-107.51
11
172.262
21
-107.51
0
LINE
8
BLACK
6
CONTINUOUS
10
172.262
20
-107.51
11
172.463
21
-107.55
0
LINE
8
BLACK
6
CONTINUOUS
10
172.463
20
-107.55
11
172.653
21
-107.628
0
LINE
8
BLACK
6
CONTINUOUS
10
172.653
20
-107.628
11
172.823
21
-107.742
0
LINE
8
BLACK
6
CONTINUOUS
10
172.823
20
-107.742
11
172.968
21
-107.887
0
LINE
8
BLACK
6
CONTINUOUS
10
172.968
20
-107.887
11
173.082
21
-108.057
0
LINE
8
BLACK
6
CONTINUOUS
10
173.082
20
-108.057
11
173.16
21
-108.247
0
LINE
8
BLACK
6
CONTINUOUS
10
173.16
20
-108.247
11
173.2
21
-108.448
0
LINE
8
BLACK
6
CONTINUOUS
10
173.2
20
-108.448
11
173.2
21
-108.652
0
LINE
8
BLACK
6
CONTINUOUS
10
173.2
20
-108.652
11
173.16
21
-108.853
0
LINE
8
BLACK
6
CONTINUOUS
10
173.16
20
-108.853
11
173.082
21
-109.043
0
LINE
8
BLACK
6
CONTINUOUS
10
173.082
20
-109.043
11
172.968
21
-109.213
0
LINE
8
BLACK
6
CONTINUOUS
10
172.968
20
-109.213
11
172.823
21
-109.358
0
LINE
8
BLACK
6
CONTINUOUS
10
172.823
20
-109.358
11
172.653
21
-109.472
0
LINE
8
BLACK
6
CONTINUOUS
10
172.653
20
-109.472
11
172.463
21
-109.55
0
LINE
8
BLACK
6
CONTINUOUS
10
172.463
20
-109.55
11
172.262
21
-109.59
0
LINE
8
BLACK
6
CONTINUOUS
10
172.262
20
-109.59
11
172.058
21
-109.59
0
LINE
8
BLACK
6
CONTINUOUS
10
172.058
20
-109.59
11
171.857
21
-109.55
0
LINE
8
BLACK
6
CONTINUOUS
10
171.857
20
-109.55
11
171.667
21
-109.472
0
LINE
8
BLACK
6
CONTINUOUS
10
171.667
20
-109.472
11
171.497
21
-109.358
0
LINE
8
BLACK
6
CONTINUOUS
10
171.497
20
-109.358
11
171.352
21
-109.213
0
LINE
8
BLACK
6
CONTINUOUS
10
171.352
20
-109.213
11
171.238
21
-109.043
0
LINE
8
BLACK
6
CONTINUOUS
10
171.238
20
-109.043
11
171.16
21
-108.853
0
LINE
8
BLACK
6
CONTINUOUS
10
171.16
20
-108.853
11
171.12
21
-108.652
0
LINE
8
BLACK
6
CONTINUOUS
10
171.12
20
-108.652
11
171.12
21
-108.448
0
LINE
8
BLACK
6
CONTINUOUS
10
171.12
20
-108.448
11
171.16
21
-108.247
0
LINE
8
BLACK
6
CONTINUOUS
10
171.227
20
-108.833
11
171.3
21
-109.01
0
LINE
8
BLACK
6
CONTINUOUS
10
171.3
20
-109.01
11
171.406
21
-109.169
0
LINE
8
BLACK
6
CONTINUOUS
10
171.406
20
-109.169
11
171.541
21
-109.304
0
LINE
8
BLACK
6
CONTINUOUS
10
171.541
20
-109.304
11
171.7
21
-109.41
0
LINE
8
BLACK
6
CONTINUOUS
10
171.7
20
-109.41
11
171.877
21
-109.483
0
LINE
8
BLACK
6
CONTINUOUS
10
171.877
20
-109.483
11
172.064
21
-109.52
0
LINE
8
BLACK
6
CONTINUOUS
10
172.064
20
-109.52
11
172.256
21
-109.52
0
LINE
8
BLACK
6
CONTINUOUS
10
172.256
20
-109.52
11
172.443
21
-109.483
0
LINE
8
BLACK
6
CONTINUOUS
10
172.443
20
-109.483
11
172.62
21
-109.41
0
LINE
8
BLACK
6
CONTINUOUS
10
172.62
20
-109.41
11
172.779
21
-109.304
0
LINE
8
BLACK
6
CONTINUOUS
10
172.779
20
-109.304
11
172.914
21
-109.169
0
LINE
8
BLACK
6
CONTINUOUS
10
172.914
20
-109.169
11
173.02
21
-109.01
0
LINE
8
BLACK
6
CONTINUOUS
10
173.02
20
-109.01
11
173.093
21
-108.833
0
LINE
8
BLACK
6
CONTINUOUS
10
173.093
20
-108.833
11
173.13
21
-108.646
0
LINE
8
BLACK
6
CONTINUOUS
10
173.13
20
-108.646
11
173.13
21
-108.454
0
LINE
8
BLACK
6
CONTINUOUS
10
173.13
20
-108.454
11
173.093
21
-108.267
0
LINE
8
BLACK
6
CONTINUOUS
10
173.093
20
-108.267
11
173.02
21
-108.09
0
LINE
8
BLACK
6
CONTINUOUS
10
173.02
20
-108.09
11
172.914
21
-107.931
0
LINE
8
BLACK
6
CONTINUOUS
10
172.914
20
-107.931
11
172.779
21
-107.796
0
LINE
8
BLACK
6
CONTINUOUS
10
172.779
20
-107.796
11
172.62
21
-107.69
0
LINE
8
BLACK
6
CONTINUOUS
10
172.62
20
-107.69
11
172.443
21
-107.617
0
LINE
8
BLACK
6
CONTINUOUS
10
172.443
20
-107.617
11
172.256
21
-107.58
0
LINE
8
BLACK
6
CONTINUOUS
10
172.256
20
-107.58
11
172.064
21
-107.58
0
LINE
8
BLACK
6
CONTINUOUS
10
172.064
20
-107.58
11
171.877
21
-107.617
0
LINE
8
BLACK
6
CONTINUOUS
10
171.877
20
-107.617
11
171.7
21
-107.69
0
LINE
8
BLACK
6
CONTINUOUS
10
171.7
20
-107.69
11
171.541
21
-107.796
0
LINE
8
BLACK
6
CONTINUOUS
10
171.541
20
-107.796
11
171.406
21
-107.931
0
LINE
8
BLACK
6
CONTINUOUS
10
171.406
20
-107.931
11
171.3
21
-108.09
0
LINE
8
BLACK
6
CONTINUOUS
10
171.3
20
-108.09
11
171.227
21
-108.267
0
LINE
8
BLACK
6
CONTINUOUS
10
171.227
20
-108.267
11
171.19
21
-108.454
0
LINE
8
BLACK
6
CONTINUOUS
10
171.19
20
-108.454
11
171.19
21
-108.646
0
LINE
8
BLACK
6
CONTINUOUS
10
171.19
20
-108.646
11
171.227
21
-108.833
0
LINE
8
BLACK
6
CONTINUOUS
10
135.23
20
-93.2097
11
135.626
21
-92.3868
0
LINE
8
BLACK
6
CONTINUOUS
10
135.626
20
-92.3868
11
136.163
21
-91.6478
0
LINE
8
BLACK
6
CONTINUOUS
10
136.163
20
-91.6478
11
136.823
21
-91.0166
0
LINE
8
BLACK
6
CONTINUOUS
10
136.823
20
-91.0166
11
137.586
21
-90.5134
0
LINE
8
BLACK
6
CONTINUOUS
10
137.586
20
-90.5134
11
138.426
21
-90.1544
0
LINE
8
BLACK
6
CONTINUOUS
10
138.426
20
-90.1544
11
139.316
21
-89.9511
0
LINE
8
BLACK
6
CONTINUOUS
10
139.316
20
-89.9511
11
140.229
21
-89.9101
0
LINE
8
BLACK
6
CONTINUOUS
10
140.229
20
-89.9101
11
141.134
21
-90.0327
0
LINE
8
BLACK
6
CONTINUOUS
10
141.134
20
-90.0327
11
142.002
21
-90.315
0
LINE
8
BLACK
6
CONTINUOUS
10
142.002
20
-90.315
11
142.807
21
-90.7478
0
LINE
8
BLACK
6
CONTINUOUS
10
142.807
20
-90.7478
11
143.521
21
-91.3174
0
LINE
8
BLACK
6
CONTINUOUS
10
143.521
20
-91.3174
11
144.122
21
-92.0052
0
LINE
8
BLACK
6
CONTINUOUS
10
144.122
20
-92.0052
11
144.59
21
-92.7894
0
LINE
8
BLACK
6
CONTINUOUS
10
144.59
20
-92.7894
11
144.911
21
-93.6445
0
LINE
8
BLACK
6
CONTINUOUS
10
144.911
20
-93.6445
11
145.074
21
-94.5433
0
LINE
8
BLACK
6
CONTINUOUS
10
145.074
20
-94.5433
11
145.074
21
-95.4567
0
LINE
8
BLACK
6
CONTINUOUS
10
145.074
20
-95.4567
11
144.911
21
-96.3555
0
LINE
8
BLACK
6
CONTINUOUS
10
144.911
20
-96.3555
11
144.59
21
-97.2106
0
LINE
8
BLACK
6
CONTINUOUS
10
144.59
20
-97.2106
11
144.122
21
-97.9948
0
LINE
8
BLACK
6
CONTINUOUS
10
144.122
20
-97.9948
11
143.521
21
-98.6826
0
LINE
8
BLACK
6
CONTINUOUS
10
143.521
20
-98.6826
11
142.807
21
-99.2522
0
LINE
8
BLACK
6
CONTINUOUS
10
142.807
20
-99.2522
11
142.002
21
-99.685
0
LINE
8
BLACK
6
CONTINUOUS
10
142.002
20
-99.685
11
141.134
21
-99.9673
0
LINE
8
BLACK
6
CONTINUOUS
10
141.134
20
-99.9673
11
140.229
21
-100.09
0
LINE
8
BLACK
6
CONTINUOUS
10
140.229
20
-100.09
11
139.316
21
-100.049
0
LINE
8
BLACK
6
CONTINUOUS
10
139.316
20
-100.049
11
138.426
21
-99.8456
0
LINE
8
BLACK
6
CONTINUOUS
10
138.426
20
-99.8456
11
137.586
21
-99.4866
0
LINE
8
BLACK
6
CONTINUOUS
10
137.586
20
-99.4866
11
136.823
21
-98.9834
0
LINE
8
BLACK
6
CONTINUOUS
10
136.823
20
-98.9834
11
136.163
21
-98.3522
0
LINE
8
BLACK
6
CONTINUOUS
10
136.163
20
-98.3522
11
135.626
21
-97.6132
0
LINE
8
BLACK
6
CONTINUOUS
10
135.626
20
-97.6132
11
135.23
21
-96.7903
0
LINE
8
BLACK
6
CONTINUOUS
10
135.23
20
-96.7903
11
134.987
21
-95.9097
0
LINE
8
BLACK
6
CONTINUOUS
10
134.987
20
-95.9097
11
134.905
21
-95
0
LINE
8
BLACK
6
CONTINUOUS
10
134.905
20
-95
11
134.987
21
-94.0903
0
LINE
8
BLACK
6
CONTINUOUS
10
134.987
20
-94.0903
11
135.23
21
-93.2097
0
LINE
8
BLACK
6
CONTINUOUS
10
135.295
20
-96.7657
11
135.686
21
-97.5773
0
LINE
8
BLACK
6
CONTINUOUS
10
135.686
20
-97.5773
11
136.216
21
-98.3061
0
LINE
8
BLACK
6
CONTINUOUS
10
136.216
20
-98.3061
11
136.867
21
-98.9287
0
LINE
8
BLACK
6
CONTINUOUS
10
136.867
20
-98.9287
11
137.619
21
-99.425
0
LINE
8
BLACK
6
CONTINUOUS
10
137.619
20
-99.425
11
138.447
21
-99.7791
0
LINE
8
BLACK
6
CONTINUOUS
10
138.447
20
-99.7791
11
139.325
21
-99.9795
0
LINE
8
BLACK
6
CONTINUOUS
10
139.325
20
-99.9795
11
140.225
21
-100.02
0
LINE
8
BLACK
6
CONTINUOUS
10
140.225
20
-100.02
11
141.118
21
-99.899
0
LINE
8
BLACK
6
CONTINUOUS
10
141.118
20
-99.899
11
141.975
21
-99.6206
0
LINE
8
BLACK
6
CONTINUOUS
10
141.975
20
-99.6206
11
142.768
21
-99.1937
0
LINE
8
BLACK
6
CONTINUOUS
10
142.768
20
-99.1937
11
143.473
21
-98.632
0
LINE
8
BLACK
6
CONTINUOUS
10
143.473
20
-98.632
11
144.065
21
-97.9536
0
LINE
8
BLACK
6
CONTINUOUS
10
144.065
20
-97.9536
11
144.527
21
-97.1803
0
LINE
8
BLACK
6
CONTINUOUS
10
144.527
20
-97.1803
11
144.844
21
-96.3368
0
LINE
8
BLACK
6
CONTINUOUS
10
144.844
20
-96.3368
11
145.005
21
-95.4504
0
LINE
8
BLACK
6
CONTINUOUS
10
145.005
20
-95.4504
11
145.005
21
-94.5496
0
LINE
8
BLACK
6
CONTINUOUS
10
145.005
20
-94.5496
11
144.844
21
-93.6632
0
LINE
8
BLACK
6
CONTINUOUS
10
144.844
20
-93.6632
11
144.527
21
-92.8197
0
LINE
8
BLACK
6
CONTINUOUS
10
144.527
20
-92.8197
11
144.065
21
-92.0464
0
LINE
8
BLACK
6
CONTINUOUS
10
144.065
20
-92.0464
11
143.473
21
-91.368
0
LINE
8
BLACK
6
CONTINUOUS
10
143.473
20
-91.368
11
142.768
21
-90.8063
0
LINE
8
BLACK
6
CONTINUOUS
10
142.768
20
-90.8063
11
141.975
21
-90.3794
0
LINE
8
BLACK
6
CONTINUOUS
10
141.975
20
-90.3794
11
141.118
21
-90.101
0
LINE
8
BLACK
6
CONTINUOUS
10
141.118
20
-90.101
11
140.225
21
-89.9801
0
LINE
8
BLACK
6
CONTINUOUS
10
140.225
20
-89.9801
11
139.325
21
-90.0205
0
LINE
8
BLACK
6
CONTINUOUS
10
139.325
20
-90.0205
11
138.447
21
-90.2209
0
LINE
8
BLACK
6
CONTINUOUS
10
138.447
20
-90.2209
11
137.619
21
-90.575
0
LINE
8
BLACK
6
CONTINUOUS
10
137.619
20
-90.575
11
136.867
21
-91.0713
0
LINE
8
BLACK
6
CONTINUOUS
10
136.867
20
-91.0713
11
136.216
21
-91.6939
0
LINE
8
BLACK
6
CONTINUOUS
10
136.216
20
-91.6939
11
135.686
21
-92.4227
0
LINE
8
BLACK
6
CONTINUOUS
10
135.686
20
-92.4227
11
135.295
21
-93.2343
0
LINE
8
BLACK
6
CONTINUOUS
10
135.295
20
-93.2343
11
135.056
21
-94.1028
0
LINE
8
BLACK
6
CONTINUOUS
10
135.056
20
-94.1028
11
134.975
21
-95
0
LINE
8
BLACK
6
CONTINUOUS
10
134.975
20
-95
11
135.056
21
-95.8972
0
LINE
8
BLACK
6
CONTINUOUS
10
135.056
20
-95.8972
11
135.295
21
-96.7657
0
LINE
8
BLACK
6
CONTINUOUS
10
115.574
20
-93.9608
11
115.843
21
-93.3124
0
LINE
8
BLACK
6
CONTINUOUS
10
115.843
20
-93.3124
11
116.233
21
-92.7289
0
LINE
8
BLACK
6
CONTINUOUS
10
116.233
20
-92.7289
11
116.729
21
-92.2326
0
LINE
8
BLACK
6
CONTINUOUS
10
116.729
20
-92.2326
11
117.312
21
-91.8427
0
LINE
8
BLACK
6
CONTINUOUS
10
117.312
20
-91.8427
11
117.961
21
-91.5742
0
LINE
8
BLACK
6
CONTINUOUS
10
117.961
20
-91.5742
11
118.649
21
-91.4372
0
LINE
8
BLACK
6
CONTINUOUS
10
118.649
20
-91.4372
11
119.351
21
-91.4372
0
LINE
8
BLACK
6
CONTINUOUS
10
119.351
20
-91.4372
11
120.039
21
-91.5742
0
LINE
8
BLACK
6
CONTINUOUS
10
120.039
20
-91.5742
11
120.688
21
-91.8427
0
LINE
8
BLACK
6
CONTINUOUS
10
120.688
20
-91.8427
11
121.271
21
-92.2326
0
LINE
8
BLACK
6
CONTINUOUS
10
121.271
20
-92.2326
11
121.767
21
-92.7289
0
LINE
8
BLACK
6
CONTINUOUS
10
121.767
20
-92.7289
11
122.157
21
-93.3124
0
LINE
8
BLACK
6
CONTINUOUS
10
122.157
20
-93.3124
11
122.426
21
-93.9608
0
LINE
8
BLACK
6
CONTINUOUS
10
122.426
20
-93.9608
11
122.563
21
-94.6491
0
LINE
8
BLACK
6
CONTINUOUS
10
122.563
20
-94.6491
11
122.563
21
-95.3509
0
LINE
8
BLACK
6
CONTINUOUS
10
122.563
20
-95.3509
11
122.426
21
-96.0392
0
LINE
8
BLACK
6
CONTINUOUS
10
122.426
20
-96.0392
11
122.157
21
-96.6876
0
LINE
8
BLACK
6
CONTINUOUS
10
122.157
20
-96.6876
11
121.767
21
-97.2711
0
LINE
8
BLACK
6
CONTINUOUS
10
121.767
20
-97.2711
11
121.271
21
-97.7674
0
LINE
8
BLACK
6
CONTINUOUS
10
121.271
20
-97.7674
11
120.688
21
-98.1573
0
LINE
8
BLACK
6
CONTINUOUS
10
120.688
20
-98.1573
11
120.039
21
-98.4258
0
LINE
8
BLACK
6
CONTINUOUS
10
120.039
20
-98.4258
11
119.351
21
-98.5628
0
LINE
8
BLACK
6
CONTINUOUS
10
119.351
20
-98.5628
11
118.649
21
-98.5628
0
LINE
8
BLACK
6
CONTINUOUS
10
118.649
20
-98.5628
11
117.961
21
-98.4258
0
LINE
8
BLACK
6
CONTINUOUS
10
117.961
20
-98.4258
11
117.312
21
-98.1573
0
LINE
8
BLACK
6
CONTINUOUS
10
117.312
20
-98.1573
11
116.729
21
-97.7674
0
LINE
8
BLACK
6
CONTINUOUS
10
116.729
20
-97.7674
11
116.233
21
-97.2711
0
LINE
8
BLACK
6
CONTINUOUS
10
116.233
20
-97.2711
11
115.843
21
-96.6876
0
LINE
8
BLACK
6
CONTINUOUS
10
115.843
20
-96.6876
11
115.574
21
-96.0392
0
LINE
8
BLACK
6
CONTINUOUS
10
115.574
20
-96.0392
11
115.437
21
-95.3509
0
LINE
8
BLACK
6
CONTINUOUS
10
115.437
20
-95.3509
11
115.437
21
-94.6491
0
LINE
8
BLACK
6
CONTINUOUS
10
115.437
20
-94.6491
11
115.574
21
-93.9608
0
LINE
8
BLACK
6
CONTINUOUS
10
115.708
20
-95.9986
11
115.966
21
-96.6216
0
LINE
8
BLACK
6
CONTINUOUS
10
115.966
20
-96.6216
11
116.341
21
-97.1823
0
LINE
8
BLACK
6
CONTINUOUS
10
116.341
20
-97.1823
11
116.818
21
-97.6592
0
LINE
8
BLACK
6
CONTINUOUS
10
116.818
20
-97.6592
11
117.378
21
-98.0338
0
LINE
8
BLACK
6
CONTINUOUS
10
117.378
20
-98.0338
11
118.001
21
-98.2919
0
LINE
8
BLACK
6
CONTINUOUS
10
118.001
20
-98.2919
11
118.663
21
-98.4234
0
LINE
8
BLACK
6
CONTINUOUS
10
118.663
20
-98.4234
11
119.337
21
-98.4234
0
LINE
8
BLACK
6
CONTINUOUS
10
119.337
20
-98.4234
11
119.999
21
-98.2919
0
LINE
8
BLACK
6
CONTINUOUS
10
119.999
20
-98.2919
11
120.622
21
-98.0338
0
LINE
8
BLACK
6
CONTINUOUS
10
120.622
20
-98.0338
11
121.182
21
-97.6592
0
LINE
8
BLACK
6
CONTINUOUS
10
121.182
20
-97.6592
11
121.659
21
-97.1823
0
LINE
8
BLACK
6
CONTINUOUS
10
121.659
20
-97.1823
11
122.034
21
-96.6216
0
LINE
8
BLACK
6
CONTINUOUS
10
122.034
20
-96.6216
11
122.292
21
-95.9986
0
LINE
8
BLACK
6
CONTINUOUS
10
122.292
20
-95.9986
11
122.423
21
-95.3372
0
LINE
8
BLACK
6
CONTINUOUS
10
122.423
20
-95.3372
11
122.423
21
-94.6628
0
LINE
8
BLACK
6
CONTINUOUS
10
122.423
20
-94.6628
11
122.292
21
-94.0014
0
LINE
8
BLACK
6
CONTINUOUS
10
122.292
20
-94.0014
11
122.034
21
-93.3784
0
LINE
8
BLACK
6
CONTINUOUS
10
122.034
20
-93.3784
11
121.659
21
-92.8177
0
LINE
8
BLACK
6
CONTINUOUS
10
121.659
20
-92.8177
11
121.182
21
-92.3408
0
LINE
8
BLACK
6
CONTINUOUS
10
121.182
20
-92.3408
11
120.622
21
-91.9662
0
LINE
8
BLACK
6
CONTINUOUS
10
120.622
20
-91.9662
11
119.999
21
-91.7081
0
LINE
8
BLACK
6
CONTINUOUS
10
119.999
20
-91.7081
11
119.337
21
-91.5766
0
LINE
8
BLACK
6
CONTINUOUS
10
119.337
20
-91.5766
11
118.663
21
-91.5766
0
LINE
8
BLACK
6
CONTINUOUS
10
118.663
20
-91.5766
11
118.001
21
-91.7081
0
LINE
8
BLACK
6
CONTINUOUS
10
118.001
20
-91.7081
11
117.378
21
-91.9662
0
LINE
8
BLACK
6
CONTINUOUS
10
117.378
20
-91.9662
11
116.818
21
-92.3408
0
LINE
8
BLACK
6
CONTINUOUS
10
116.818
20
-92.3408
11
116.341
21
-92.8177
0
LINE
8
BLACK
6
CONTINUOUS
10
116.341
20
-92.8177
11
115.966
21
-93.3784
0
LINE
8
BLACK
6
CONTINUOUS
10
115.966
20
-93.3784
11
115.708
21
-94.0014
0
LINE
8
BLACK
6
CONTINUOUS
10
115.708
20
-94.0014
11
115.577
21
-94.6628
0
LINE
8
BLACK
6
CONTINUOUS
10
115.577
20
-94.6628
11
115.577
21
-95.3372
0
LINE
8
BLACK
6
CONTINUOUS
10
115.577
20
-95.3372
11
115.708
21
-95.9986
0
LINE
8
BLACK
6
CONTINUOUS
10
171.21
20
-84.3967
11
171.288
21
-84.2074
0
LINE
8
BLACK
6
CONTINUOUS
10
171.288
20
-84.2074
11
171.402
21
-84.0371
0
LINE
8
BLACK
6
CONTINUOUS
10
171.402
20
-84.0371
11
171.547
21
-83.8922
0
LINE
8
BLACK
6
CONTINUOUS
10
171.547
20
-83.8922
11
171.717
21
-83.7784
0
LINE
8
BLACK
6
CONTINUOUS
10
171.717
20
-83.7784
11
171.907
21
-83.7
0
LINE
8
BLACK
6
CONTINUOUS
10
171.907
20
-83.7
11
172.108
21
-83.66
0
LINE
8
BLACK
6
CONTINUOUS
10
172.108
20
-83.66
11
172.312
21
-83.66
0
LINE
8
BLACK
6
CONTINUOUS
10
172.312
20
-83.66
11
172.513
21
-83.7
0
LINE
8
BLACK
6
CONTINUOUS
10
172.513
20
-83.7
11
172.703
21
-83.7784
0
LINE
8
BLACK
6
CONTINUOUS
10
172.703
20
-83.7784
11
172.873
21
-83.8922
0
LINE
8
BLACK
6
CONTINUOUS
10
172.873
20
-83.8922
11
173.018
21
-84.0371
0
LINE
8
BLACK
6
CONTINUOUS
10
173.018
20
-84.0371
11
173.132
21
-84.2074
0
LINE
8
BLACK
6
CONTINUOUS
10
173.132
20
-84.2074
11
173.21
21
-84.3967
0
LINE
8
BLACK
6
CONTINUOUS
10
173.21
20
-84.3967
11
173.25
21
-84.5976
0
LINE
8
BLACK
6
CONTINUOUS
10
173.25
20
-84.5976
11
173.25
21
-84.8024
0
LINE
8
BLACK
6
CONTINUOUS
10
173.25
20
-84.8024
11
173.21
21
-85.0033
0
LINE
8
BLACK
6
CONTINUOUS
10
173.21
20
-85.0033
11
173.132
21
-85.1926
0
LINE
8
BLACK
6
CONTINUOUS
10
173.132
20
-85.1926
11
173.018
21
-85.3629
0
LINE
8
BLACK
6
CONTINUOUS
10
173.018
20
-85.3629
11
172.873
21
-85.5078
0
LINE
8
BLACK
6
CONTINUOUS
10
172.873
20
-85.5078
11
172.703
21
-85.6216
0
LINE
8
BLACK
6
CONTINUOUS
10
172.703
20
-85.6216
11
172.513
21
-85.7
0
LINE
8
BLACK
6
CONTINUOUS
10
172.513
20
-85.7
11
172.312
21
-85.74
0
LINE
8
BLACK
6
CONTINUOUS
10
172.312
20
-85.74
11
172.108
21
-85.74
0
LINE
8
BLACK
6
CONTINUOUS
10
172.108
20
-85.74
11
171.907
21
-85.7
0
LINE
8
BLACK
6
CONTINUOUS
10
171.907
20
-85.7
11
171.717
21
-85.6216
0
LINE
8
BLACK
6
CONTINUOUS
10
171.717
20
-85.6216
11
171.547
21
-85.5078
0
LINE
8
BLACK
6
CONTINUOUS
10
171.547
20
-85.5078
11
171.402
21
-85.3629
0
LINE
8
BLACK
6
CONTINUOUS
10
171.402
20
-85.3629
11
171.288
21
-85.1926
0
LINE
8
BLACK
6
CONTINUOUS
10
171.288
20
-85.1926
11
171.21
21
-85.0033
0
LINE
8
BLACK
6
CONTINUOUS
10
171.21
20
-85.0033
11
171.17
21
-84.8024
0
LINE
8
BLACK
6
CONTINUOUS
10
171.17
20
-84.8024
11
171.17
21
-84.5976
0
LINE
8
BLACK
6
CONTINUOUS
10
171.17
20
-84.5976
11
171.21
21
-84.3967
0
LINE
8
BLACK
6
CONTINUOUS
10
171.277
20
-84.983
11
171.35
21
-85.1596
0
LINE
8
BLACK
6
CONTINUOUS
10
171.35
20
-85.1596
11
171.456
21
-85.3185
0
LINE
8
BLACK
6
CONTINUOUS
10
171.456
20
-85.3185
11
171.591
21
-85.4537
0
LINE
8
BLACK
6
CONTINUOUS
10
171.591
20
-85.4537
11
171.75
21
-85.5599
0
LINE
8
BLACK
6
CONTINUOUS
10
171.75
20
-85.5599
11
171.927
21
-85.633
0
LINE
8
BLACK
6
CONTINUOUS
10
171.927
20
-85.633
11
172.114
21
-85.6703
0
LINE
8
BLACK
6
CONTINUOUS
10
172.114
20
-85.6703
11
172.306
21
-85.6703
0
LINE
8
BLACK
6
CONTINUOUS
10
172.306
20
-85.6703
11
172.493
21
-85.633
0
LINE
8
BLACK
6
CONTINUOUS
10
172.493
20
-85.633
11
172.67
21
-85.5599
0
LINE
8
BLACK
6
CONTINUOUS
10
172.67
20
-85.5599
11
172.829
21
-85.4537
0
LINE
8
BLACK
6
CONTINUOUS
10
172.829
20
-85.4537
11
172.964
21
-85.3185
0
LINE
8
BLACK
6
CONTINUOUS
10
172.964
20
-85.3185
11
173.07
21
-85.1596
0
LINE
8
BLACK
6
CONTINUOUS
10
173.07
20
-85.1596
11
173.143
21
-84.983
0
LINE
8
BLACK
6
CONTINUOUS
10
173.143
20
-84.983
11
173.18
21
-84.7956
0
LINE
8
BLACK
6
CONTINUOUS
10
173.18
20
-84.7956
11
173.18
21
-84.6044
0
LINE
8
BLACK
6
CONTINUOUS
10
173.18
20
-84.6044
11
173.143
21
-84.417
0
LINE
8
BLACK
6
CONTINUOUS
10
173.143
20
-84.417
11
173.07
21
-84.2404
0
LINE
8
BLACK
6
CONTINUOUS
10
173.07
20
-84.2404
11
172.964
21
-84.0815
0
LINE
8
BLACK
6
CONTINUOUS
10
172.964
20
-84.0815
11
172.829
21
-83.9463
0
LINE
8
BLACK
6
CONTINUOUS
10
172.829
20
-83.9463
11
172.67
21
-83.8401
0
LINE
8
BLACK
6
CONTINUOUS
10
172.67
20
-83.8401
11
172.493
21
-83.767
0
LINE
8
BLACK
6
CONTINUOUS
10
172.493
20
-83.767
11
172.306
21
-83.7297
0
LINE
8
BLACK
6
CONTINUOUS
10
172.306
20
-83.7297
11
172.114
21
-83.7297
0
LINE
8
BLACK
6
CONTINUOUS
10
172.114
20
-83.7297
11
171.927
21
-83.767
0
LINE
8
BLACK
6
CONTINUOUS
10
171.927
20
-83.767
11
171.75
21
-83.8401
0
LINE
8
BLACK
6
CONTINUOUS
10
171.75
20
-83.8401
11
171.591
21
-83.9463
0
LINE
8
BLACK
6
CONTINUOUS
10
171.591
20
-83.9463
11
171.456
21
-84.0815
0
LINE
8
BLACK
6
CONTINUOUS
10
171.456
20
-84.0815
11
171.35
21
-84.2404
0
LINE
8
BLACK
6
CONTINUOUS
10
171.35
20
-84.2404
11
171.277
21
-84.417
0
LINE
8
BLACK
6
CONTINUOUS
10
171.277
20
-84.417
11
171.24
21
-84.6044
0
LINE
8
BLACK
6
CONTINUOUS
10
171.24
20
-84.6044
11
171.24
21
-84.7956
0
LINE
8
BLACK
6
CONTINUOUS
10
171.24
20
-84.7956
11
171.277
21
-84.983
0
LINE
8
BLACK
6
CONTINUOUS
10
114.608
20
-61.9709
11
114.874
21
-61.3289
0
LINE
8
BLACK
6
CONTINUOUS
10
114.874
20
-61.3289
11
115.26
21
-60.7511
0
LINE
8
BLACK
6
CONTINUOUS
10
115.26
20
-60.7511
11
115.751
21
-60.2597
0
LINE
8
BLACK
6
CONTINUOUS
10
115.751
20
-60.2597
11
116.329
21
-59.8736
0
LINE
8
BLACK
6
CONTINUOUS
10
116.329
20
-59.8736
11
116.971
21
-59.6076
0
LINE
8
BLACK
6
CONTINUOUS
10
116.971
20
-59.6076
11
117.653
21
-59.4721
0
LINE
8
BLACK
6
CONTINUOUS
10
117.653
20
-59.4721
11
118.347
21
-59.4721
0
LINE
8
BLACK
6
CONTINUOUS
10
118.347
20
-59.4721
11
119.029
21
-59.6076
0
LINE
8
BLACK
6
CONTINUOUS
10
119.029
20
-59.6076
11
119.671
21
-59.8736
0
LINE
8
BLACK
6
CONTINUOUS
10
119.671
20
-59.8736
11
120.249
21
-60.2597
0
LINE
8
BLACK
6
CONTINUOUS
10
120.249
20
-60.2597
11
120.74
21
-60.7511
0
LINE
8
BLACK
6
CONTINUOUS
10
120.74
20
-60.7511
11
121.126
21
-61.3289
0
LINE
8
BLACK
6
CONTINUOUS
10
121.126
20
-61.3289
11
121.392
21
-61.9709
0
LINE
8
BLACK
6
CONTINUOUS
10
121.392
20
-61.9709
11
121.528
21
-62.6525
0
LINE
8
BLACK
6
CONTINUOUS
10
121.528
20
-62.6525
11
121.528
21
-63.3475
0
LINE
8
BLACK
6
CONTINUOUS
10
121.528
20
-63.3475
11
121.392
21
-64.0291
0
LINE
8
BLACK
6
CONTINUOUS
10
121.392
20
-64.0291
11
121.126
21
-64.6711
0
LINE
8
BLACK
6
CONTINUOUS
10
121.126
20
-64.6711
11
120.74
21
-65.2489
0
LINE
8
BLACK
6
CONTINUOUS
10
120.74
20
-65.2489
11
120.249
21
-65.7403
0
LINE
8
BLACK
6
CONTINUOUS
10
120.249
20
-65.7403
11
119.671
21
-66.1264
0
LINE
8
BLACK
6
CONTINUOUS
10
119.671
20
-66.1264
11
119.029
21
-66.3924
0
LINE
8
BLACK
6
CONTINUOUS
10
119.029
20
-66.3924
11
118.347
21
-66.5279
0
LINE
8
BLACK
6
CONTINUOUS
10
118.347
20
-66.5279
11
117.653
21
-66.5279
0
LINE
8
BLACK
6
CONTINUOUS
10
117.653
20
-66.5279
11
116.971
21
-66.3924
0
LINE
8
BLACK
6
CONTINUOUS
10
116.971
20
-66.3924
11
116.329
21
-66.1264
0
LINE
8
BLACK
6
CONTINUOUS
10
116.329
20
-66.1264
11
115.751
21
-65.7403
0
LINE
8
BLACK
6
CONTINUOUS
10
115.751
20
-65.7403
11
115.26
21
-65.2489
0
LINE
8
BLACK
6
CONTINUOUS
10
115.26
20
-65.2489
11
114.874
21
-64.6711
0
LINE
8
BLACK
6
CONTINUOUS
10
114.874
20
-64.6711
11
114.608
21
-64.0291
0
LINE
8
BLACK
6
CONTINUOUS
10
114.608
20
-64.0291
11
114.472
21
-63.3475
0
LINE
8
BLACK
6
CONTINUOUS
10
114.472
20
-63.3475
11
114.472
21
-62.6525
0
LINE
8
BLACK
6
CONTINUOUS
10
114.472
20
-62.6525
11
114.608
21
-61.9709
0
LINE
8
BLACK
6
CONTINUOUS
10
114.675
20
-64.0087
11
114.935
21
-64.6381
0
LINE
8
BLACK
6
CONTINUOUS
10
114.935
20
-64.6381
11
115.314
21
-65.2045
0
LINE
8
BLACK
6
CONTINUOUS
10
115.314
20
-65.2045
11
115.795
21
-65.6862
0
LINE
8
BLACK
6
CONTINUOUS
10
115.795
20
-65.6862
11
116.362
21
-66.0647
0
LINE
8
BLACK
6
CONTINUOUS
10
116.362
20
-66.0647
11
116.991
21
-66.3254
0
LINE
8
BLACK
6
CONTINUOUS
10
116.991
20
-66.3254
11
117.659
21
-66.4583
0
LINE
8
BLACK
6
CONTINUOUS
10
117.659
20
-66.4583
11
118.341
21
-66.4583
0
LINE
8
BLACK
6
CONTINUOUS
10
118.341
20
-66.4583
11
119.009
21
-66.3254
0
LINE
8
BLACK
6
CONTINUOUS
10
119.009
20
-66.3254
11
119.638
21
-66.0647
0
LINE
8
BLACK
6
CONTINUOUS
10
119.638
20
-66.0647
11
120.205
21
-65.6862
0
LINE
8
BLACK
6
CONTINUOUS
10
120.205
20
-65.6862
11
120.686
21
-65.2045
0
LINE
8
BLACK
6
CONTINUOUS
10
120.686
20
-65.2045
11
121.065
21
-64.6381
0
LINE
8
BLACK
6
CONTINUOUS
10
121.065
20
-64.6381
11
121.325
21
-64.0087
0
LINE
8
BLACK
6
CONTINUOUS
10
121.325
20
-64.0087
11
121.458
21
-63.3406
0
LINE
8
BLACK
6
CONTINUOUS
10
121.458
20
-63.3406
11
121.458
21
-62.6594
0
LINE
8
BLACK
6
CONTINUOUS
10
121.458
20
-62.6594
11
121.325
21
-61.9913
0
LINE
8
BLACK
6
CONTINUOUS
10
121.325
20
-61.9913
11
121.065
21
-61.3619
0
LINE
8
BLACK
6
CONTINUOUS
10
121.065
20
-61.3619
11
120.686
21
-60.7955
0
LINE
8
BLACK
6
CONTINUOUS
10
120.686
20
-60.7955
11
120.205
21
-60.3138
0
LINE
8
BLACK
6
CONTINUOUS
10
120.205
20
-60.3138
11
119.638
21
-59.9353
0
LINE
8
BLACK
6
CONTINUOUS
10
119.638
20
-59.9353
11
119.009
21
-59.6746
0
LINE
8
BLACK
6
CONTINUOUS
10
119.009
20
-59.6746
11
118.341
21
-59.5417
0
LINE
8
BLACK
6
CONTINUOUS
10
118.341
20
-59.5417
11
117.659
21
-59.5417
0
LINE
8
BLACK
6
CONTINUOUS
10
117.659
20
-59.5417
11
116.991
21
-59.6746
0
LINE
8
BLACK
6
CONTINUOUS
10
116.991
20
-59.6746
11
116.362
21
-59.9353
0
LINE
8
BLACK
6
CONTINUOUS
10
116.362
20
-59.9353
11
115.795
21
-60.3138
0
LINE
8
BLACK
6
CONTINUOUS
10
115.795
20
-60.3138
11
115.314
21
-60.7955
0
LINE
8
BLACK
6
CONTINUOUS
10
115.314
20
-60.7955
11
114.935
21
-61.3619
0
LINE
8
BLACK
6
CONTINUOUS
10
114.935
20
-61.3619
11
114.675
21
-61.9913
0
LINE
8
BLACK
6
CONTINUOUS
10
114.675
20
-61.9913
11
114.542
21
-62.6594
0
LINE
8
BLACK
6
CONTINUOUS
10
114.542
20
-62.6594
11
114.542
21
-63.3406
0
LINE
8
BLACK
6
CONTINUOUS
10
114.542
20
-63.3406
11
114.675
21
-64.0087
  0
ENDSEC
  0
EOF
